<svg width="478" height="254" viewBox="0 0 478 254" fill="none" xmlns="http://www.w3.org/2000/svg">
<g filter="url(#filter0_i_70_491)">
<path fill-rule="evenodd" clip-rule="evenodd" d="M2.11591 9.57391C4.29767 5.1587 9.35999 2.34028 16.8884 1.00866C22.0166 11.7481 29.9696 18.42 35.1864 16.0963C39.0455 14.3773 40.3848 8.19149 39.1077 0.579183C53.2289 1.77586 70.7741 5.21346 90.904 10.6693C90.0245 11.33 89.2324 12.1125 88.556 13.0079C71.6117 11.5209 60.4313 13.8625 57.1134 20.5769C53.399 28.0937 60.0242 40.1088 74.5937 54.7468C73.6904 58.4299 73.7813 62.959 75.0818 67.5755C77.8336 77.3435 84.9589 83.8038 90.9966 82.0051C93.9835 81.1152 96.1446 78.3708 97.2329 74.6419C105.228 80.9709 114.24 87.568 124.134 94.3278C123.242 94.7566 122.581 95.3527 122.202 96.1206C120.122 100.329 127.267 108.104 138.16 113.487C147.32 118.014 156.214 119.407 160.049 117.232C180.399 129.412 202.973 141.731 227.059 153.633C233.586 156.859 240.071 159.977 246.494 162.985C243.964 163.419 241.938 164.66 240.961 166.638C238.881 170.846 242.336 176.798 248.676 179.932C255.017 183.065 261.843 182.193 263.923 177.985C265.024 175.757 264.574 173.041 262.967 170.514C288.102 181.721 312.036 191.097 333.668 198.357C324.779 198.215 318.23 199.91 317.817 202.845C317.28 206.668 327.356 211.146 340.323 212.848C353.289 214.55 364.235 212.831 364.772 209.008C364.832 208.581 364.76 208.145 364.566 207.706C403.537 218.046 430.505 218.895 435.99 207.797C440.419 198.832 430.143 183.47 409.225 164.891C457.042 199.466 483.693 229.113 476.373 243.926C471.684 253.416 453.685 255.529 426.493 251.356C430.641 248.865 433.063 245.627 432.559 242.556C431.713 237.406 422.953 234.675 412.994 236.457C405.391 237.818 399.287 241.414 397.2 245.332C349.208 233.392 284.333 208.705 215.544 174.713C201.17 167.611 187.223 160.397 173.8 153.147C184.953 157.194 193.413 158.349 194.801 155.54C196.758 151.579 183.913 141.236 166.11 132.439C148.306 123.642 132.287 119.721 130.33 123.682C129.561 125.238 131.076 127.778 134.277 130.822C124.544 125.065 115.204 119.334 106.306 113.666C106.84 113.292 107.25 112.834 107.52 112.289C109.599 108.081 102.455 100.305 91.5617 94.9228C83.8133 91.094 76.2555 89.5071 71.7891 90.4247C62.92 84.078 54.7497 77.8899 47.3563 71.9208C47.7297 71.8551 48.0584 71.7154 48.3359 71.4972C50.9335 69.4548 48.0577 61.3073 41.9125 53.2992C35.7674 45.2911 28.68 40.4549 26.0824 42.4973C23.9116 44.204 25.5633 50.1743 29.7509 56.7638C7.70025 36.3103 -2.82182 19.5664 2.11591 9.57391Z" fill="#00BFFC" fill-opacity="0.71"/>
</g>
<defs>
<filter id="filter0_i_70_491" x="0.916626" y="0.579224" width="491.056" height="252.816" filterUnits="userSpaceOnUse" color-interpolation-filters="sRGB">
<feFlood flood-opacity="0" result="BackgroundImageFix"/>
<feBlend mode="normal" in="SourceGraphic" in2="BackgroundImageFix" result="shape"/>
<feColorMatrix in="SourceAlpha" type="matrix" values="0 0 0 0 0 0 0 0 0 0 0 0 0 0 0 0 0 0 127 0" result="hardAlpha"/>
<feOffset dx="19"/>
<feGaussianBlur stdDeviation="7.2"/>
<feComposite in2="hardAlpha" operator="arithmetic" k2="-1" k3="1"/>
<feColorMatrix type="matrix" values="0 0 0 0 0.954687 0 0 0 0 0.954687 0 0 0 0 0.954687 0 0 0 0.78 0"/>
<feBlend mode="normal" in2="shape" result="effect1_innerShadow_70_491"/>
</filter>
</defs>
</svg>
