<svg width="495" height="395" viewBox="0 0 495 395" fill="none" xmlns="http://www.w3.org/2000/svg">
<path d="M106.847 224.834L96.0831 225.426" stroke="#A3A3A3" stroke-width="0.5"/>
<path d="M101.24 220.335L101.681 231.106" stroke="black"/>
<ellipse cx="101.502" cy="228.164" rx="1.12861" ry="1.25536" transform="rotate(-86.8731 101.502 228.164)" fill="#464646"/>
<ellipse cx="101.55" cy="227.142" rx="1.12861" ry="1.25536" transform="rotate(-86.8731 101.55 227.142)" fill="#464646"/>
<ellipse cx="101.367" cy="223.333" rx="1.12861" ry="1.25536" transform="rotate(-86.8731 101.367 223.333)" fill="#464646"/>
<rect x="95.6643" y="221.831" width="3.47676" height="6.15405" transform="rotate(-2.43897 95.6643 221.831)" fill="#175EE7"/>
<rect x="103.717" y="221.574" width="3.47676" height="6.15405" transform="rotate(-2.43897 103.717 221.574)" fill="#175EE7"/>
<ellipse cx="101.512" cy="229.803" rx="1.73838" ry="1.9336" transform="rotate(-86.8731 101.512 229.803)" fill="#A0A0A0"/>
<ellipse cx="101.147" cy="221.2" rx="1.20071" ry="1.33555" transform="rotate(92.391 101.147 221.2)" fill="#A0A0A0"/>
<ellipse cx="101.501" cy="229.998" rx="1.54316" ry="1.71049" transform="rotate(-86.8731 101.501 229.998)" fill="#D9D9D9"/>
<ellipse cx="101.152" cy="221.066" rx="1.06587" ry="1.18145" transform="rotate(92.391 101.152 221.066)" fill="#D9D9D9"/>
<path d="M307.972 90.2393L297.208 90.8307" stroke="#A3A3A3" stroke-width="0.5"/>
<path d="M302.365 85.74L302.806 96.5112" stroke="black"/>
<ellipse cx="302.627" cy="93.569" rx="1.12861" ry="1.25536" transform="rotate(-86.8731 302.627 93.569)" fill="#464646"/>
<ellipse cx="302.675" cy="92.5475" rx="1.12861" ry="1.25536" transform="rotate(-86.8731 302.675 92.5475)" fill="#464646"/>
<ellipse cx="302.492" cy="88.7383" rx="1.12861" ry="1.25536" transform="rotate(-86.8731 302.492 88.7383)" fill="#464646"/>
<rect x="296.789" y="87.2361" width="3.47676" height="6.15405" transform="rotate(-2.43897 296.789 87.2361)" fill="#175EE7"/>
<rect x="304.842" y="86.9795" width="3.47676" height="6.15405" transform="rotate(-2.43897 304.842 86.9795)" fill="#175EE7"/>
<ellipse cx="302.637" cy="95.2077" rx="1.73838" ry="1.9336" transform="rotate(-86.8731 302.637 95.2077)" fill="#A0A0A0"/>
<ellipse cx="302.271" cy="86.6055" rx="1.20071" ry="1.33555" transform="rotate(92.391 302.271 86.6055)" fill="#A0A0A0"/>
<ellipse cx="302.626" cy="95.4028" rx="1.54316" ry="1.71049" transform="rotate(-86.8731 302.626 95.4028)" fill="#D9D9D9"/>
<ellipse cx="302.277" cy="86.4707" rx="1.06587" ry="1.18145" transform="rotate(92.391 302.277 86.4707)" fill="#D9D9D9"/>
<path d="M282.543 163.132L271.779 163.724" stroke="#A3A3A3" stroke-width="0.5"/>
<path d="M276.937 158.633L277.377 169.404" stroke="black"/>
<ellipse cx="277.199" cy="166.462" rx="1.12861" ry="1.25536" transform="rotate(-86.8731 277.199 166.462)" fill="#464646"/>
<ellipse cx="277.246" cy="165.44" rx="1.12861" ry="1.25536" transform="rotate(-86.8731 277.246 165.44)" fill="#464646"/>
<ellipse cx="277.063" cy="161.631" rx="1.12861" ry="1.25536" transform="rotate(-86.8731 277.063 161.631)" fill="#464646"/>
<rect x="271.361" y="160.129" width="3.47676" height="6.15405" transform="rotate(-2.43897 271.361 160.129)" fill="#175EE7"/>
<rect x="279.413" y="159.872" width="3.47676" height="6.15405" transform="rotate(-2.43897 279.413 159.872)" fill="#175EE7"/>
<ellipse cx="277.208" cy="168.101" rx="1.73838" ry="1.9336" transform="rotate(-86.8731 277.208 168.101)" fill="#A0A0A0"/>
<ellipse cx="276.843" cy="159.498" rx="1.20071" ry="1.33555" transform="rotate(92.391 276.843 159.498)" fill="#A0A0A0"/>
<ellipse cx="277.198" cy="168.296" rx="1.54316" ry="1.71049" transform="rotate(-86.8731 277.198 168.296)" fill="#D9D9D9"/>
<ellipse cx="276.849" cy="159.364" rx="1.06587" ry="1.18145" transform="rotate(92.391 276.849 159.364)" fill="#D9D9D9"/>
<path d="M174.837 278.633L164.073 279.225" stroke="#A3A3A3" stroke-width="0.5"/>
<path d="M169.231 274.134L169.671 284.905" stroke="black"/>
<ellipse cx="169.493" cy="281.963" rx="1.12861" ry="1.25536" transform="rotate(-86.8731 169.493 281.963)" fill="#464646"/>
<ellipse cx="169.54" cy="280.941" rx="1.12861" ry="1.25536" transform="rotate(-86.8731 169.54 280.941)" fill="#464646"/>
<ellipse cx="169.357" cy="277.132" rx="1.12861" ry="1.25536" transform="rotate(-86.8731 169.357 277.132)" fill="#464646"/>
<rect x="163.655" y="275.63" width="3.47676" height="6.15405" transform="rotate(-2.43897 163.655 275.63)" fill="#175EE7"/>
<rect x="171.707" y="275.373" width="3.47676" height="6.15405" transform="rotate(-2.43897 171.707 275.373)" fill="#175EE7"/>
<ellipse cx="169.502" cy="283.602" rx="1.73838" ry="1.9336" transform="rotate(-86.8731 169.502 283.602)" fill="#A0A0A0"/>
<ellipse cx="169.137" cy="274.999" rx="1.20071" ry="1.33555" transform="rotate(92.391 169.137 274.999)" fill="#A0A0A0"/>
<ellipse cx="169.492" cy="283.797" rx="1.54316" ry="1.71049" transform="rotate(-86.8731 169.492 283.797)" fill="#D9D9D9"/>
<ellipse cx="169.143" cy="274.865" rx="1.06587" ry="1.18145" transform="rotate(92.391 169.143 274.865)" fill="#D9D9D9"/>
<path d="M420.058 31.0042L409.294 31.5956" stroke="#A3A3A3" stroke-width="0.5"/>
<path d="M414.451 26.5049L414.891 37.2761" stroke="black"/>
<ellipse cx="414.713" cy="34.3339" rx="1.12861" ry="1.25536" transform="rotate(-86.8731 414.713 34.3339)" fill="#464646"/>
<ellipse cx="414.76" cy="33.3124" rx="1.12861" ry="1.25536" transform="rotate(-86.8731 414.76 33.3124)" fill="#464646"/>
<ellipse cx="414.577" cy="29.5032" rx="1.12861" ry="1.25536" transform="rotate(-86.8731 414.577 29.5032)" fill="#464646"/>
<rect x="408.875" y="28.001" width="3.47676" height="6.15405" transform="rotate(-2.43897 408.875 28.001)" fill="#175EE7"/>
<rect x="416.927" y="27.7444" width="3.47676" height="6.15405" transform="rotate(-2.43897 416.927 27.7444)" fill="#175EE7"/>
<ellipse cx="414.723" cy="35.9726" rx="1.73838" ry="1.9336" transform="rotate(-86.8731 414.723 35.9726)" fill="#A0A0A0"/>
<ellipse cx="414.357" cy="27.3704" rx="1.20071" ry="1.33555" transform="rotate(92.391 414.357 27.3704)" fill="#A0A0A0"/>
<ellipse cx="414.712" cy="36.1677" rx="1.54316" ry="1.71049" transform="rotate(-86.8731 414.712 36.1677)" fill="#D9D9D9"/>
<ellipse cx="414.363" cy="27.2356" rx="1.06587" ry="1.18145" transform="rotate(92.391 414.363 27.2356)" fill="#D9D9D9"/>
<path d="M78.6238 244.588L74.2841 244.826" stroke="#A3A3A3" stroke-width="0.5"/>
<path d="M76.3634 242.774L76.541 247.117" stroke="black"/>
<ellipse cx="76.469" cy="245.93" rx="0.455027" ry="0.506126" transform="rotate(-86.8731 76.469 245.93)" fill="#464646"/>
<ellipse cx="76.4883" cy="245.519" rx="0.455027" ry="0.506126" transform="rotate(-86.8731 76.4883 245.519)" fill="#464646"/>
<ellipse cx="76.4145" cy="243.983" rx="0.455027" ry="0.506126" transform="rotate(-86.8731 76.4145 243.983)" fill="#464646"/>
<rect x="74.1152" y="243.377" width="1.40174" height="2.48115" transform="rotate(-2.43897 74.1152 243.377)" fill="#175EE7"/>
<rect x="77.3618" y="243.274" width="1.40174" height="2.48115" transform="rotate(-2.43897 77.3618 243.274)" fill="#175EE7"/>
<ellipse cx="76.4729" cy="246.591" rx="0.700868" ry="0.779575" transform="rotate(-86.8731 76.4729 246.591)" fill="#A0A0A0"/>
<ellipse cx="76.3256" cy="243.123" rx="0.484094" ry="0.538457" transform="rotate(92.391 76.3256 243.123)" fill="#A0A0A0"/>
<ellipse cx="76.4686" cy="246.67" rx="0.622161" ry="0.689624" transform="rotate(-86.8731 76.4686 246.67)" fill="#D9D9D9"/>
<ellipse cx="76.3278" cy="243.069" rx="0.42973" ry="0.476328" transform="rotate(92.391 76.3278 243.069)" fill="#D9D9D9"/>
<path d="M38.7205 280.165L34.3808 280.403" stroke="#A3A3A3" stroke-width="0.5"/>
<path d="M36.4601 278.351L36.6377 282.694" stroke="black"/>
<ellipse cx="36.5657" cy="281.507" rx="0.455027" ry="0.506126" transform="rotate(-86.8731 36.5657 281.507)" fill="#464646"/>
<ellipse cx="36.585" cy="281.096" rx="0.455027" ry="0.506126" transform="rotate(-86.8731 36.585 281.096)" fill="#464646"/>
<ellipse cx="36.5112" cy="279.56" rx="0.455027" ry="0.506126" transform="rotate(-86.8731 36.5112 279.56)" fill="#464646"/>
<rect x="34.2119" y="278.954" width="1.40174" height="2.48115" transform="rotate(-2.43897 34.2119 278.954)" fill="#175EE7"/>
<rect x="37.4585" y="278.851" width="1.40174" height="2.48115" transform="rotate(-2.43897 37.4585 278.851)" fill="#175EE7"/>
<ellipse cx="36.5696" cy="282.168" rx="0.700868" ry="0.779575" transform="rotate(-86.8731 36.5696 282.168)" fill="#A0A0A0"/>
<ellipse cx="36.4223" cy="278.7" rx="0.484094" ry="0.538457" transform="rotate(92.391 36.4223 278.7)" fill="#A0A0A0"/>
<ellipse cx="36.5653" cy="282.247" rx="0.622161" ry="0.689624" transform="rotate(-86.8731 36.5653 282.247)" fill="#D9D9D9"/>
<ellipse cx="36.4245" cy="278.646" rx="0.42973" ry="0.476328" transform="rotate(92.391 36.4245 278.646)" fill="#D9D9D9"/>
<path d="M123.448 232.266L119.108 232.504" stroke="#A3A3A3" stroke-width="0.5"/>
<path d="M121.187 230.452L121.365 234.794" stroke="black"/>
<ellipse cx="121.293" cy="233.608" rx="0.455027" ry="0.506126" transform="rotate(-86.8731 121.293 233.608)" fill="#464646"/>
<ellipse cx="121.312" cy="233.196" rx="0.455027" ry="0.506126" transform="rotate(-86.8731 121.312 233.196)" fill="#464646"/>
<ellipse cx="121.238" cy="231.661" rx="0.455027" ry="0.506126" transform="rotate(-86.8731 121.238 231.661)" fill="#464646"/>
<rect x="118.939" y="231.055" width="1.40174" height="2.48115" transform="rotate(-2.43897 118.939 231.055)" fill="#175EE7"/>
<rect x="122.186" y="230.952" width="1.40174" height="2.48115" transform="rotate(-2.43897 122.186 230.952)" fill="#175EE7"/>
<ellipse cx="121.297" cy="234.269" rx="0.700868" ry="0.779575" transform="rotate(-86.8731 121.297 234.269)" fill="#A0A0A0"/>
<ellipse cx="121.149" cy="230.801" rx="0.484094" ry="0.538457" transform="rotate(92.391 121.149 230.801)" fill="#A0A0A0"/>
<ellipse cx="121.292" cy="234.348" rx="0.622161" ry="0.689624" transform="rotate(-86.8731 121.292 234.348)" fill="#D9D9D9"/>
<ellipse cx="121.152" cy="230.747" rx="0.42973" ry="0.476328" transform="rotate(92.391 121.152 230.747)" fill="#D9D9D9"/>
<path d="M351.542 55.5151L347.202 55.7535" stroke="#A3A3A3" stroke-width="0.5"/>
<path d="M349.282 53.7011L349.459 58.0438" stroke="black"/>
<ellipse cx="349.387" cy="56.8576" rx="0.455027" ry="0.506126" transform="rotate(-86.8731 349.387 56.8576)" fill="#464646"/>
<ellipse cx="349.407" cy="56.4457" rx="0.455027" ry="0.506126" transform="rotate(-86.8731 349.407 56.4457)" fill="#464646"/>
<ellipse cx="349.333" cy="54.9099" rx="0.455027" ry="0.506126" transform="rotate(-86.8731 349.333 54.9099)" fill="#464646"/>
<rect x="347.034" y="54.3043" width="1.40174" height="2.48115" transform="rotate(-2.43897 347.034 54.3043)" fill="#175EE7"/>
<rect x="350.28" y="54.2008" width="1.40174" height="2.48115" transform="rotate(-2.43897 350.28 54.2008)" fill="#175EE7"/>
<ellipse cx="349.391" cy="57.5182" rx="0.700868" ry="0.779575" transform="rotate(-86.8731 349.391 57.5182)" fill="#A0A0A0"/>
<ellipse cx="349.244" cy="54.0501" rx="0.484094" ry="0.538457" transform="rotate(92.391 349.244 54.0501)" fill="#A0A0A0"/>
<ellipse cx="349.387" cy="57.5968" rx="0.622161" ry="0.689624" transform="rotate(-86.8731 349.387 57.5968)" fill="#D9D9D9"/>
<ellipse cx="349.246" cy="53.9958" rx="0.42973" ry="0.476328" transform="rotate(92.391 349.246 53.9958)" fill="#D9D9D9"/>
<path d="M87.3849 269.143L76.621 269.734" stroke="#A3A3A3" stroke-width="0.5"/>
<path d="M81.7782 264.643L82.2188 275.415" stroke="black"/>
<ellipse cx="82.0401" cy="272.472" rx="1.12861" ry="1.25536" transform="rotate(-86.8731 82.0401 272.472)" fill="#464646"/>
<ellipse cx="82.0879" cy="271.451" rx="1.12861" ry="1.25536" transform="rotate(-86.8731 82.0879 271.451)" fill="#464646"/>
<ellipse cx="81.9048" cy="267.642" rx="1.12861" ry="1.25536" transform="rotate(-86.8731 81.9048 267.642)" fill="#464646"/>
<rect x="76.2021" y="266.139" width="3.47676" height="6.15405" transform="rotate(-2.43897 76.2021 266.139)" fill="#175EE7"/>
<rect x="84.2546" y="265.883" width="3.47676" height="6.15405" transform="rotate(-2.43897 84.2546 265.883)" fill="#175EE7"/>
<ellipse cx="82.05" cy="274.111" rx="1.73838" ry="1.9336" transform="rotate(-86.8731 82.05 274.111)" fill="#A0A0A0"/>
<ellipse cx="81.6845" cy="265.509" rx="1.20071" ry="1.33555" transform="rotate(92.391 81.6845 265.509)" fill="#A0A0A0"/>
<ellipse cx="82.0392" cy="274.306" rx="1.54316" ry="1.71049" transform="rotate(-86.8731 82.0392 274.306)" fill="#D9D9D9"/>
<ellipse cx="81.6902" cy="265.374" rx="1.06587" ry="1.18145" transform="rotate(92.391 81.6902 265.374)" fill="#D9D9D9"/>
<path d="M148.615 293.089L124.079 294.437" stroke="#A3A3A3" stroke-width="0.5"/>
<path d="M135.835 282.833L136.839 307.386" stroke="black"/>
<ellipse cx="136.432" cy="300.679" rx="2.57261" ry="2.86151" transform="rotate(-86.8731 136.432 300.679)" fill="#464646"/>
<ellipse cx="136.541" cy="298.35" rx="2.57261" ry="2.86151" transform="rotate(-86.8731 136.541 298.35)" fill="#464646"/>
<ellipse cx="136.123" cy="289.668" rx="2.57261" ry="2.86151" transform="rotate(-86.8731 136.123 289.668)" fill="#464646"/>
<rect x="123.124" y="286.244" width="7.92507" height="14.0278" transform="rotate(-2.43897 123.124 286.244)" fill="#175EE7"/>
<rect x="141.48" y="285.659" width="7.92507" height="14.0278" transform="rotate(-2.43897 141.48 285.659)" fill="#175EE7"/>
<ellipse cx="136.454" cy="304.415" rx="3.96253" ry="4.40752" transform="rotate(-86.8731 136.454 304.415)" fill="#A0A0A0"/>
<ellipse cx="135.621" cy="284.806" rx="2.73695" ry="3.0443" transform="rotate(92.391 135.621 284.806)" fill="#A0A0A0"/>
<ellipse cx="136.43" cy="304.859" rx="3.51754" ry="3.89896" transform="rotate(-86.8731 136.43 304.859)" fill="#D9D9D9"/>
<ellipse cx="135.634" cy="284.499" rx="2.42959" ry="2.69304" transform="rotate(92.391 135.634 284.499)" fill="#D9D9D9"/>
<path d="M57.0729 326.275L32.5371 327.623" stroke="#A3A3A3" stroke-width="0.5"/>
<path d="M44.2928 316.019L45.297 340.571" stroke="black"/>
<ellipse cx="44.8899" cy="333.865" rx="2.57261" ry="2.86151" transform="rotate(-86.8731 44.8899 333.865)" fill="#464646"/>
<ellipse cx="44.999" cy="331.536" rx="2.57261" ry="2.86151" transform="rotate(-86.8731 44.999 331.536)" fill="#464646"/>
<ellipse cx="44.5813" cy="322.853" rx="2.57261" ry="2.86151" transform="rotate(-86.8731 44.5813 322.853)" fill="#464646"/>
<rect x="31.5825" y="319.429" width="7.92507" height="14.0278" transform="rotate(-2.43897 31.5825 319.429)" fill="#175EE7"/>
<rect x="49.9377" y="318.844" width="7.92507" height="14.0278" transform="rotate(-2.43897 49.9377 318.844)" fill="#175EE7"/>
<ellipse cx="44.912" cy="337.6" rx="3.96253" ry="4.40752" transform="rotate(-86.8731 44.912 337.6)" fill="#A0A0A0"/>
<ellipse cx="44.0792" cy="317.992" rx="2.73695" ry="3.0443" transform="rotate(92.391 44.0792 317.992)" fill="#A0A0A0"/>
<ellipse cx="44.888" cy="338.044" rx="3.51754" ry="3.89896" transform="rotate(-86.8731 44.888 338.044)" fill="#D9D9D9"/>
<ellipse cx="44.0919" cy="317.685" rx="2.42959" ry="2.69304" transform="rotate(92.391 44.0919 317.685)" fill="#D9D9D9"/>
<path d="M451.301 58.4491L413.213 60.542" stroke="#A3A3A3" stroke-width="0.5"/>
<path d="M431.461 42.5288L433.02 80.6425" stroke="black"/>
<ellipse cx="432.388" cy="70.2315" rx="3.99359" ry="4.44206" transform="rotate(-86.8731 432.388 70.2315)" fill="#464646"/>
<ellipse cx="432.558" cy="66.6166" rx="3.99359" ry="4.44206" transform="rotate(-86.8731 432.558 66.6166)" fill="#464646"/>
<ellipse cx="431.91" cy="53.1378" rx="3.99359" ry="4.44206" transform="rotate(-86.8731 431.91 53.1378)" fill="#464646"/>
<rect x="411.731" y="47.8225" width="12.3025" height="21.776" transform="rotate(-2.43897 411.731 47.8225)" fill="#175EE7"/>
<rect x="440.224" y="46.9144" width="12.3025" height="21.776" transform="rotate(-2.43897 440.224 46.9144)" fill="#175EE7"/>
<ellipse cx="432.423" cy="76.03" rx="6.15123" ry="6.84201" transform="rotate(-86.8731 432.423 76.03)" fill="#A0A0A0"/>
<ellipse cx="431.13" cy="45.5913" rx="4.2487" ry="4.72582" transform="rotate(92.391 431.13 45.5913)" fill="#A0A0A0"/>
<ellipse cx="432.385" cy="76.7199" rx="5.46045" ry="6.05255" transform="rotate(-86.8731 432.385 76.7199)" fill="#D9D9D9"/>
<ellipse cx="431.15" cy="45.1145" rx="3.77157" ry="4.18053" transform="rotate(92.391 431.15 45.1145)" fill="#D9D9D9"/>
<path d="M409.733 125.383L371.645 127.476" stroke="#A3A3A3" stroke-width="0.5"/>
<path d="M389.893 109.462L391.452 147.576" stroke="black"/>
<ellipse cx="390.82" cy="137.165" rx="3.99359" ry="4.44206" transform="rotate(-86.8731 390.82 137.165)" fill="#464646"/>
<ellipse cx="390.99" cy="133.55" rx="3.99359" ry="4.44206" transform="rotate(-86.8731 390.99 133.55)" fill="#464646"/>
<ellipse cx="390.342" cy="120.071" rx="3.99359" ry="4.44206" transform="rotate(-86.8731 390.342 120.071)" fill="#464646"/>
<rect x="370.163" y="114.756" width="12.3025" height="21.776" transform="rotate(-2.43897 370.163 114.756)" fill="#175EE7"/>
<rect x="398.656" y="113.848" width="12.3025" height="21.776" transform="rotate(-2.43897 398.656 113.848)" fill="#175EE7"/>
<ellipse cx="390.855" cy="142.964" rx="6.15123" ry="6.84201" transform="rotate(-86.8731 390.855 142.964)" fill="#A0A0A0"/>
<ellipse cx="389.562" cy="112.525" rx="4.2487" ry="4.72582" transform="rotate(92.391 389.562 112.525)" fill="#A0A0A0"/>
<ellipse cx="390.817" cy="143.653" rx="5.46045" ry="6.05255" transform="rotate(-86.8731 390.817 143.653)" fill="#D9D9D9"/>
<ellipse cx="389.582" cy="112.048" rx="3.77157" ry="4.18053" transform="rotate(92.391 389.582 112.048)" fill="#D9D9D9"/>
<path d="M247.84 260.777L209.752 262.87" stroke="#A3A3A3" stroke-width="0.5"/>
<path d="M228 244.857L229.559 282.97" stroke="black"/>
<ellipse cx="228.927" cy="272.559" rx="3.99359" ry="4.44206" transform="rotate(-86.8731 228.927 272.559)" fill="#464646"/>
<ellipse cx="229.097" cy="268.944" rx="3.99359" ry="4.44206" transform="rotate(-86.8731 229.097 268.944)" fill="#464646"/>
<ellipse cx="228.448" cy="255.466" rx="3.99359" ry="4.44206" transform="rotate(-86.8731 228.448 255.466)" fill="#464646"/>
<rect x="208.27" y="250.15" width="12.3025" height="21.776" transform="rotate(-2.43897 208.27 250.15)" fill="#175EE7"/>
<rect x="236.763" y="249.242" width="12.3025" height="21.776" transform="rotate(-2.43897 236.763 249.242)" fill="#175EE7"/>
<ellipse cx="228.962" cy="278.358" rx="6.15123" ry="6.84201" transform="rotate(-86.8731 228.962 278.358)" fill="#A0A0A0"/>
<ellipse cx="227.668" cy="247.919" rx="4.2487" ry="4.72582" transform="rotate(92.391 227.668 247.919)" fill="#A0A0A0"/>
<ellipse cx="228.924" cy="279.048" rx="5.46045" ry="6.05255" transform="rotate(-86.8731 228.924 279.048)" fill="#D9D9D9"/>
<ellipse cx="227.688" cy="247.442" rx="3.77157" ry="4.18053" transform="rotate(92.391 227.688 247.442)" fill="#D9D9D9"/>
<path d="M189.444 239.957L164.908 241.305" stroke="#A3A3A3" stroke-width="0.5"/>
<path d="M176.664 229.701L177.668 254.253" stroke="black"/>
<ellipse cx="177.261" cy="247.547" rx="2.57261" ry="2.86151" transform="rotate(-86.8731 177.261 247.547)" fill="#464646"/>
<ellipse cx="177.37" cy="245.218" rx="2.57261" ry="2.86151" transform="rotate(-86.8731 177.37 245.218)" fill="#464646"/>
<ellipse cx="176.953" cy="236.535" rx="2.57261" ry="2.86151" transform="rotate(-86.8731 176.953 236.535)" fill="#464646"/>
<rect x="163.954" y="233.111" width="7.92507" height="14.0278" transform="rotate(-2.43897 163.954 233.111)" fill="#175EE7"/>
<rect x="182.309" y="232.526" width="7.92507" height="14.0278" transform="rotate(-2.43897 182.309 232.526)" fill="#175EE7"/>
<ellipse cx="177.283" cy="251.282" rx="3.96253" ry="4.40752" transform="rotate(-86.8731 177.283 251.282)" fill="#A0A0A0"/>
<ellipse cx="176.45" cy="231.674" rx="2.73695" ry="3.0443" transform="rotate(92.391 176.45 231.674)" fill="#A0A0A0"/>
<ellipse cx="177.259" cy="251.726" rx="3.51754" ry="3.89896" transform="rotate(-86.8731 177.259 251.726)" fill="#D9D9D9"/>
<ellipse cx="176.463" cy="231.367" rx="2.42959" ry="2.69304" transform="rotate(92.391 176.463 231.367)" fill="#D9D9D9"/>
<path d="M447.793 97.0542L423.257 98.4024" stroke="#A3A3A3" stroke-width="0.5"/>
<path d="M435.012 86.7984L436.017 111.351" stroke="black"/>
<ellipse cx="435.61" cy="104.644" rx="2.57261" ry="2.86151" transform="rotate(-86.8731 435.61 104.644)" fill="#464646"/>
<ellipse cx="435.719" cy="102.316" rx="2.57261" ry="2.86151" transform="rotate(-86.8731 435.719 102.316)" fill="#464646"/>
<ellipse cx="435.301" cy="93.6328" rx="2.57261" ry="2.86151" transform="rotate(-86.8731 435.301 93.6328)" fill="#464646"/>
<rect x="422.302" y="90.2087" width="7.92507" height="14.0278" transform="rotate(-2.43897 422.302 90.2087)" fill="#175EE7"/>
<rect x="440.657" y="89.6237" width="7.92507" height="14.0278" transform="rotate(-2.43897 440.657 89.6237)" fill="#175EE7"/>
<ellipse cx="435.632" cy="108.38" rx="3.96253" ry="4.40752" transform="rotate(-86.8731 435.632 108.38)" fill="#A0A0A0"/>
<ellipse cx="434.799" cy="88.7714" rx="2.73695" ry="3.0443" transform="rotate(92.391 434.799 88.7714)" fill="#A0A0A0"/>
<ellipse cx="435.608" cy="108.824" rx="3.51754" ry="3.89896" transform="rotate(-86.8731 435.608 108.824)" fill="#D9D9D9"/>
<ellipse cx="434.812" cy="88.4643" rx="2.42959" ry="2.69304" transform="rotate(92.391 434.812 88.4643)" fill="#D9D9D9"/>
<path d="M112.808 324.673L88.2725 326.022" stroke="#A3A3A3" stroke-width="0.5"/>
<path d="M100.028 314.418L101.032 338.97" stroke="black"/>
<ellipse cx="100.625" cy="332.263" rx="2.57261" ry="2.86151" transform="rotate(-86.8731 100.625 332.263)" fill="#464646"/>
<ellipse cx="100.734" cy="329.935" rx="2.57261" ry="2.86151" transform="rotate(-86.8731 100.734 329.935)" fill="#464646"/>
<ellipse cx="100.317" cy="321.252" rx="2.57261" ry="2.86151" transform="rotate(-86.8731 100.317 321.252)" fill="#464646"/>
<rect x="87.3179" y="317.828" width="7.92507" height="14.0278" transform="rotate(-2.43897 87.3179 317.828)" fill="#175EE7"/>
<rect x="105.673" y="317.243" width="7.92507" height="14.0278" transform="rotate(-2.43897 105.673 317.243)" fill="#175EE7"/>
<ellipse cx="100.647" cy="335.999" rx="3.96253" ry="4.40752" transform="rotate(-86.8731 100.647 335.999)" fill="#A0A0A0"/>
<ellipse cx="99.8145" cy="316.391" rx="2.73695" ry="3.0443" transform="rotate(92.391 99.8145 316.391)" fill="#A0A0A0"/>
<ellipse cx="100.623" cy="336.443" rx="3.51754" ry="3.89896" transform="rotate(-86.8731 100.623 336.443)" fill="#D9D9D9"/>
<ellipse cx="99.8272" cy="316.083" rx="2.42959" ry="2.69304" transform="rotate(92.391 99.8272 316.083)" fill="#D9D9D9"/>
<path d="M291.233 208.271L266.698 209.619" stroke="#A3A3A3" stroke-width="0.5"/>
<path d="M278.453 198.015L279.457 222.568" stroke="black"/>
<ellipse cx="279.05" cy="215.861" rx="2.57261" ry="2.86151" transform="rotate(-86.8731 279.05 215.861)" fill="#464646"/>
<ellipse cx="279.159" cy="213.533" rx="2.57261" ry="2.86151" transform="rotate(-86.8731 279.159 213.533)" fill="#464646"/>
<ellipse cx="278.742" cy="204.85" rx="2.57261" ry="2.86151" transform="rotate(-86.8731 278.742 204.85)" fill="#464646"/>
<rect x="265.743" y="201.426" width="7.92507" height="14.0278" transform="rotate(-2.43897 265.743 201.426)" fill="#175EE7"/>
<rect x="284.098" y="200.841" width="7.92507" height="14.0278" transform="rotate(-2.43897 284.098 200.841)" fill="#175EE7"/>
<ellipse cx="279.072" cy="219.597" rx="3.96253" ry="4.40752" transform="rotate(-86.8731 279.072 219.597)" fill="#A0A0A0"/>
<ellipse cx="278.24" cy="199.988" rx="2.73695" ry="3.0443" transform="rotate(92.391 278.24 199.988)" fill="#A0A0A0"/>
<ellipse cx="279.048" cy="220.041" rx="3.51754" ry="3.89896" transform="rotate(-86.8731 279.048 220.041)" fill="#D9D9D9"/>
<ellipse cx="278.252" cy="199.681" rx="2.42959" ry="2.69304" transform="rotate(92.391 278.252 199.681)" fill="#D9D9D9"/>
<path d="M114.94 283.328L90.4038 284.676" stroke="#A3A3A3" stroke-width="0.5"/>
<path d="M102.159 273.072L103.164 297.624" stroke="black"/>
<ellipse cx="102.757" cy="290.918" rx="2.57261" ry="2.86151" transform="rotate(-86.8731 102.757 290.918)" fill="#464646"/>
<ellipse cx="102.866" cy="288.589" rx="2.57261" ry="2.86151" transform="rotate(-86.8731 102.866 288.589)" fill="#464646"/>
<ellipse cx="102.448" cy="279.906" rx="2.57261" ry="2.86151" transform="rotate(-86.8731 102.448 279.906)" fill="#464646"/>
<rect x="89.4492" y="276.482" width="7.92507" height="14.0278" transform="rotate(-2.43897 89.4492 276.482)" fill="#175EE7"/>
<rect x="107.804" y="275.897" width="7.92507" height="14.0278" transform="rotate(-2.43897 107.804 275.897)" fill="#175EE7"/>
<ellipse cx="102.779" cy="294.653" rx="3.96253" ry="4.40752" transform="rotate(-86.8731 102.779 294.653)" fill="#A0A0A0"/>
<ellipse cx="101.946" cy="275.045" rx="2.73695" ry="3.0443" transform="rotate(92.391 101.946 275.045)" fill="#A0A0A0"/>
<ellipse cx="102.755" cy="295.097" rx="3.51754" ry="3.89896" transform="rotate(-86.8731 102.755 295.097)" fill="#D9D9D9"/>
<ellipse cx="101.959" cy="274.738" rx="2.42959" ry="2.69304" transform="rotate(92.391 101.959 274.738)" fill="#D9D9D9"/>
<path d="M354.147 82.3141L336.759 83.2695" stroke="#A3A3A3" stroke-width="0.5"/>
<path d="M345.09 75.0461L345.801 92.4458" stroke="black"/>
<ellipse cx="345.513" cy="87.693" rx="1.82316" ry="2.0279" transform="rotate(-86.8731 345.513 87.693)" fill="#464646"/>
<ellipse cx="345.59" cy="86.0427" rx="1.82316" ry="2.0279" transform="rotate(-86.8731 345.59 86.0427)" fill="#464646"/>
<ellipse cx="345.294" cy="79.8894" rx="1.82316" ry="2.0279" transform="rotate(-86.8731 345.294 79.8894)" fill="#464646"/>
<rect x="336.082" y="77.4628" width="5.61634" height="9.94123" transform="rotate(-2.43897 336.082 77.4628)" fill="#175EE7"/>
<rect x="349.09" y="77.0482" width="5.61634" height="9.94123" transform="rotate(-2.43897 349.09 77.0482)" fill="#175EE7"/>
<ellipse cx="345.529" cy="90.3401" rx="2.80817" ry="3.12353" transform="rotate(-86.8731 345.529 90.3401)" fill="#A0A0A0"/>
<ellipse cx="344.938" cy="76.4442" rx="1.93962" ry="2.15744" transform="rotate(92.391 344.938 76.4442)" fill="#A0A0A0"/>
<ellipse cx="345.512" cy="90.655" rx="2.49282" ry="2.76312" transform="rotate(-86.8731 345.512 90.655)" fill="#D9D9D9"/>
<ellipse cx="344.947" cy="76.2265" rx="1.7218" ry="1.9085" transform="rotate(92.391 344.947 76.2265)" fill="#D9D9D9"/>
<path d="M324.159 167.763L299.623 169.111" stroke="#A3A3A3" stroke-width="0.5"/>
<path d="M311.379 157.507L312.383 182.06" stroke="black"/>
<ellipse cx="311.976" cy="175.353" rx="2.57261" ry="2.86151" transform="rotate(-86.8731 311.976 175.353)" fill="#464646"/>
<ellipse cx="312.085" cy="173.024" rx="2.57261" ry="2.86151" transform="rotate(-86.8731 312.085 173.024)" fill="#464646"/>
<ellipse cx="311.668" cy="164.342" rx="2.57261" ry="2.86151" transform="rotate(-86.8731 311.668 164.342)" fill="#464646"/>
<rect x="298.669" y="160.918" width="7.92507" height="14.0278" transform="rotate(-2.43897 298.669 160.918)" fill="#175EE7"/>
<rect x="317.024" y="160.333" width="7.92507" height="14.0278" transform="rotate(-2.43897 317.024 160.333)" fill="#175EE7"/>
<ellipse cx="311.998" cy="179.088" rx="3.96253" ry="4.40752" transform="rotate(-86.8731 311.998 179.088)" fill="#A0A0A0"/>
<ellipse cx="311.165" cy="159.48" rx="2.73695" ry="3.0443" transform="rotate(92.391 311.165 159.48)" fill="#A0A0A0"/>
<ellipse cx="311.974" cy="179.533" rx="3.51754" ry="3.89896" transform="rotate(-86.8731 311.974 179.533)" fill="#D9D9D9"/>
<ellipse cx="311.178" cy="159.173" rx="2.42959" ry="2.69304" transform="rotate(92.391 311.178 159.173)" fill="#D9D9D9"/>
<path d="M398.261 47.2891L373.725 48.6372" stroke="#A3A3A3" stroke-width="0.5"/>
<path d="M385.48 37.0333L386.485 61.5856" stroke="black"/>
<ellipse cx="386.078" cy="54.8791" rx="2.57261" ry="2.86151" transform="rotate(-86.8731 386.078 54.8791)" fill="#464646"/>
<ellipse cx="386.187" cy="52.5504" rx="2.57261" ry="2.86151" transform="rotate(-86.8731 386.187 52.5504)" fill="#464646"/>
<ellipse cx="385.769" cy="43.8677" rx="2.57261" ry="2.86151" transform="rotate(-86.8731 385.769 43.8677)" fill="#464646"/>
<rect x="372.77" y="40.4436" width="7.92507" height="14.0278" transform="rotate(-2.43897 372.77 40.4436)" fill="#175EE7"/>
<rect x="391.125" y="39.8585" width="7.92507" height="14.0278" transform="rotate(-2.43897 391.125 39.8585)" fill="#175EE7"/>
<ellipse cx="386.1" cy="58.6145" rx="3.96253" ry="4.40752" transform="rotate(-86.8731 386.1 58.6145)" fill="#A0A0A0"/>
<ellipse cx="385.267" cy="39.0062" rx="2.73695" ry="3.0443" transform="rotate(92.391 385.267 39.0062)" fill="#A0A0A0"/>
<ellipse cx="386.076" cy="59.0588" rx="3.51754" ry="3.89896" transform="rotate(-86.8731 386.076 59.0588)" fill="#D9D9D9"/>
<ellipse cx="385.279" cy="38.6992" rx="2.42959" ry="2.69304" transform="rotate(92.391 385.279 38.6992)" fill="#D9D9D9"/>
<path d="M54.5756 260.002L43.8116 260.593" stroke="#A3A3A3" stroke-width="0.5"/>
<path d="M48.9689 255.503L49.4095 266.274" stroke="black"/>
<ellipse cx="49.2308" cy="263.332" rx="1.12861" ry="1.25536" transform="rotate(-86.8731 49.2308 263.332)" fill="#464646"/>
<ellipse cx="49.2786" cy="262.31" rx="1.12861" ry="1.25536" transform="rotate(-86.8731 49.2786 262.31)" fill="#464646"/>
<ellipse cx="49.0954" cy="258.501" rx="1.12861" ry="1.25536" transform="rotate(-86.8731 49.0954 258.501)" fill="#464646"/>
<rect x="43.3928" y="256.999" width="3.47676" height="6.15405" transform="rotate(-2.43897 43.3928 256.999)" fill="#175EE7"/>
<rect x="51.4453" y="256.742" width="3.47676" height="6.15405" transform="rotate(-2.43897 51.4453 256.742)" fill="#175EE7"/>
<ellipse cx="49.2406" cy="264.97" rx="1.73838" ry="1.9336" transform="rotate(-86.8731 49.2406 264.97)" fill="#A0A0A0"/>
<ellipse cx="48.8752" cy="256.368" rx="1.20071" ry="1.33555" transform="rotate(92.391 48.8752 256.368)" fill="#A0A0A0"/>
<ellipse cx="49.2299" cy="265.165" rx="1.54316" ry="1.71049" transform="rotate(-86.8731 49.2299 265.165)" fill="#D9D9D9"/>
<ellipse cx="48.8808" cy="256.233" rx="1.06587" ry="1.18145" transform="rotate(92.391 48.8808 256.233)" fill="#D9D9D9"/>
<path d="M361.374 138.583L350.61 139.175" stroke="#A3A3A3" stroke-width="0.5"/>
<path d="M355.768 134.084L356.208 144.855" stroke="black"/>
<ellipse cx="356.03" cy="141.913" rx="1.12861" ry="1.25536" transform="rotate(-86.8731 356.03 141.913)" fill="#464646"/>
<ellipse cx="356.077" cy="140.892" rx="1.12861" ry="1.25536" transform="rotate(-86.8731 356.077 140.892)" fill="#464646"/>
<ellipse cx="355.894" cy="137.082" rx="1.12861" ry="1.25536" transform="rotate(-86.8731 355.894 137.082)" fill="#464646"/>
<rect x="350.192" y="135.58" width="3.47676" height="6.15405" transform="rotate(-2.43897 350.192 135.58)" fill="#175EE7"/>
<rect x="358.244" y="135.324" width="3.47676" height="6.15405" transform="rotate(-2.43897 358.244 135.324)" fill="#175EE7"/>
<ellipse cx="356.039" cy="143.552" rx="1.73838" ry="1.9336" transform="rotate(-86.8731 356.039 143.552)" fill="#A0A0A0"/>
<ellipse cx="355.674" cy="134.95" rx="1.20071" ry="1.33555" transform="rotate(92.391 355.674 134.95)" fill="#A0A0A0"/>
<ellipse cx="356.029" cy="143.747" rx="1.54316" ry="1.71049" transform="rotate(-86.8731 356.029 143.747)" fill="#D9D9D9"/>
<ellipse cx="355.68" cy="134.815" rx="1.06587" ry="1.18145" transform="rotate(92.391 355.68 134.815)" fill="#D9D9D9"/>
<path d="M247.73 209.759L236.966 210.35" stroke="#A3A3A3" stroke-width="0.5"/>
<path d="M242.123 205.26L242.564 216.031" stroke="black"/>
<ellipse cx="242.385" cy="213.089" rx="1.12861" ry="1.25536" transform="rotate(-86.8731 242.385 213.089)" fill="#464646"/>
<ellipse cx="242.433" cy="212.067" rx="1.12861" ry="1.25536" transform="rotate(-86.8731 242.433 212.067)" fill="#464646"/>
<ellipse cx="242.25" cy="208.258" rx="1.12861" ry="1.25536" transform="rotate(-86.8731 242.25 208.258)" fill="#464646"/>
<rect x="236.547" y="206.756" width="3.47676" height="6.15405" transform="rotate(-2.43897 236.547 206.756)" fill="#175EE7"/>
<rect x="244.6" y="206.499" width="3.47676" height="6.15405" transform="rotate(-2.43897 244.6 206.499)" fill="#175EE7"/>
<ellipse cx="242.395" cy="214.727" rx="1.73838" ry="1.9336" transform="rotate(-86.8731 242.395 214.727)" fill="#A0A0A0"/>
<ellipse cx="242.03" cy="206.125" rx="1.20071" ry="1.33555" transform="rotate(92.391 242.03 206.125)" fill="#A0A0A0"/>
<ellipse cx="242.384" cy="214.922" rx="1.54316" ry="1.71049" transform="rotate(-86.8731 242.384 214.922)" fill="#D9D9D9"/>
<ellipse cx="242.035" cy="205.99" rx="1.06587" ry="1.18145" transform="rotate(92.391 242.035 205.99)" fill="#D9D9D9"/>
<path d="M59.5597 290.468L48.7958 291.059" stroke="#A3A3A3" stroke-width="0.5"/>
<path d="M53.953 285.968L54.3936 296.74" stroke="black"/>
<ellipse cx="54.215" cy="293.797" rx="1.12861" ry="1.25536" transform="rotate(-86.8731 54.215 293.797)" fill="#464646"/>
<ellipse cx="54.2627" cy="292.776" rx="1.12861" ry="1.25536" transform="rotate(-86.8731 54.2627 292.776)" fill="#464646"/>
<ellipse cx="54.0796" cy="288.967" rx="1.12861" ry="1.25536" transform="rotate(-86.8731 54.0796 288.967)" fill="#464646"/>
<rect x="48.377" y="287.464" width="3.47676" height="6.15405" transform="rotate(-2.43897 48.377 287.464)" fill="#175EE7"/>
<rect x="56.4294" y="287.208" width="3.47676" height="6.15405" transform="rotate(-2.43897 56.4294 287.208)" fill="#175EE7"/>
<ellipse cx="54.2248" cy="295.436" rx="1.73838" ry="1.9336" transform="rotate(-86.8731 54.2248 295.436)" fill="#A0A0A0"/>
<ellipse cx="53.8593" cy="286.834" rx="1.20071" ry="1.33555" transform="rotate(92.391 53.8593 286.834)" fill="#A0A0A0"/>
<ellipse cx="54.214" cy="295.631" rx="1.54316" ry="1.71049" transform="rotate(-86.8731 54.214 295.631)" fill="#D9D9D9"/>
<ellipse cx="53.865" cy="286.699" rx="1.06587" ry="1.18145" transform="rotate(92.391 53.865 286.699)" fill="#D9D9D9"/>
<path d="M381.406 82.657L370.642 83.2485" stroke="#A3A3A3" stroke-width="0.5"/>
<path d="M375.799 78.1577L376.239 88.9289" stroke="black"/>
<ellipse cx="376.061" cy="85.9867" rx="1.12861" ry="1.25536" transform="rotate(-86.8731 376.061 85.9867)" fill="#464646"/>
<ellipse cx="376.109" cy="84.9652" rx="1.12861" ry="1.25536" transform="rotate(-86.8731 376.109 84.9652)" fill="#464646"/>
<ellipse cx="375.925" cy="81.156" rx="1.12861" ry="1.25536" transform="rotate(-86.8731 375.925 81.156)" fill="#464646"/>
<rect x="370.223" y="79.6538" width="3.47676" height="6.15405" transform="rotate(-2.43897 370.223 79.6538)" fill="#175EE7"/>
<rect x="378.275" y="79.3972" width="3.47676" height="6.15405" transform="rotate(-2.43897 378.275 79.3972)" fill="#175EE7"/>
<ellipse cx="376.071" cy="87.6254" rx="1.73838" ry="1.9336" transform="rotate(-86.8731 376.071 87.6254)" fill="#A0A0A0"/>
<ellipse cx="375.705" cy="79.0232" rx="1.20071" ry="1.33555" transform="rotate(92.391 375.705 79.0232)" fill="#A0A0A0"/>
<ellipse cx="376.06" cy="87.8205" rx="1.54316" ry="1.71049" transform="rotate(-86.8731 376.06 87.8205)" fill="#D9D9D9"/>
<ellipse cx="375.711" cy="78.8885" rx="1.06587" ry="1.18145" transform="rotate(92.391 375.711 78.8885)" fill="#D9D9D9"/>
</svg>
