<svg width="398" height="444" viewBox="0 0 398 444" fill="none" xmlns="http://www.w3.org/2000/svg">
<path d="M155.328 119.443C154.916 119.697 154.381 119.575 154.132 119.171L150.076 112.59C149.827 112.186 149.959 111.653 150.37 111.399L154.84 108.644C155.252 108.391 155.787 108.513 156.036 108.917L160.092 115.498C160.341 115.902 160.209 116.435 159.798 116.688L155.328 119.443Z" fill="#C89A23"/>
<path d="M151.446 119.817C151.035 120.071 150.5 119.949 150.251 119.545L146.195 112.964C145.946 112.56 146.077 112.027 146.489 111.774L150.959 109.019C151.37 108.765 151.906 108.887 152.155 109.291L156.211 115.872C156.46 116.276 156.328 116.809 155.916 117.062L151.446 119.817Z" fill="#937423"/>
<path d="M157.855 115.202C157.71 115.659 157.22 115.919 156.762 115.782L149.293 113.555C148.834 113.419 148.581 112.938 148.726 112.481L150.306 107.517C150.452 107.06 150.941 106.801 151.399 106.938L158.869 109.164C159.327 109.301 159.581 109.782 159.435 110.239L157.855 115.202Z" fill="#6C3E2A" fill-opacity="0.92"/>
<path d="M358.318 382.163C358.169 381.631 358.479 381.079 359.011 380.93L367.677 378.502C368.209 378.353 368.761 378.663 368.91 379.195L370.529 384.973C370.678 385.505 370.367 386.056 369.835 386.205L361.169 388.634C360.637 388.783 360.086 388.472 359.937 387.941L358.318 382.163Z" fill="#C89A23"/>
<path d="M359.164 377.772C359.015 377.24 359.326 376.688 359.857 376.539L368.524 374.111C369.055 373.962 369.607 374.272 369.756 374.804L371.375 380.581C371.524 381.113 371.214 381.665 370.682 381.814L362.016 384.243C361.484 384.392 360.932 384.081 360.783 383.549L359.164 377.772Z" fill="#937423"/>
<path d="M362.227 386.261C361.765 385.96 361.635 385.34 361.936 384.877L366.855 377.34C367.156 376.877 367.776 376.747 368.238 377.049L373.263 380.328C373.726 380.63 373.856 381.249 373.554 381.712L368.636 389.249C368.334 389.712 367.715 389.842 367.252 389.54L362.227 386.261Z" fill="#6C3E2A" fill-opacity="0.92"/>
<path d="M222.352 261.378C222.771 261.019 223.403 261.068 223.762 261.487L229.615 268.324C229.974 268.744 229.925 269.375 229.506 269.734L224.948 273.636C224.528 273.995 223.897 273.947 223.538 273.527L217.685 266.69C217.326 266.271 217.374 265.639 217.794 265.28L222.352 261.378Z" fill="#C89A23"/>
<path d="M226.691 260.296C227.111 259.937 227.742 259.986 228.101 260.405L233.954 267.242C234.313 267.662 234.264 268.293 233.845 268.652L229.287 272.554C228.868 272.913 228.236 272.864 227.877 272.445L222.024 265.608C221.665 265.189 221.714 264.557 222.133 264.198L226.691 260.296Z" fill="#937423"/>
<path d="M220.282 266.65C220.361 266.104 220.868 265.725 221.415 265.804L230.322 267.089C230.869 267.168 231.248 267.675 231.169 268.221L230.313 274.16C230.234 274.706 229.727 275.086 229.18 275.007L220.272 273.722C219.726 273.643 219.347 273.136 219.425 272.589L220.282 266.65Z" fill="#6C3E2A" fill-opacity="0.92"/>
<path d="M241.021 310.432C241.74 310.241 242.475 310.658 242.662 311.364L245.716 322.858C245.904 323.564 245.473 324.29 244.754 324.481L236.947 326.556C236.229 326.747 235.494 326.33 235.307 325.624L232.252 314.13C232.065 313.424 232.496 312.698 233.214 312.507L241.021 310.432Z" fill="#C89A23"/>
<path d="M246.905 311.604C247.624 311.413 248.358 311.83 248.545 312.535L251.6 324.029C251.787 324.735 251.357 325.461 250.638 325.652L242.831 327.727C242.112 327.918 241.378 327.501 241.19 326.796L238.136 315.301C237.948 314.596 238.379 313.869 239.098 313.678L246.905 311.604Z" fill="#937423"/>
<path d="M235.416 315.557C235.833 314.949 236.67 314.784 237.284 315.188L247.299 321.783C247.913 322.188 248.074 323.01 247.657 323.618L243.126 330.228C242.709 330.837 241.873 331.002 241.258 330.597L231.244 324.002C230.629 323.597 230.469 322.776 230.886 322.168L235.416 315.557Z" fill="#6C3E2A" fill-opacity="0.92"/>
<path d="M137.68 117.035C137.478 117.28 137.115 117.315 136.869 117.113L132.87 113.819C132.624 113.617 132.589 113.254 132.791 113.008L134.988 110.342C135.19 110.096 135.552 110.061 135.798 110.264L139.798 113.558C140.043 113.76 140.078 114.123 139.876 114.368L137.68 117.035Z" fill="#C89A23"/>
<path d="M135.327 118.08C135.125 118.326 134.762 118.361 134.516 118.159L130.517 114.864C130.271 114.662 130.236 114.299 130.438 114.054L132.635 111.387C132.837 111.142 133.2 111.107 133.445 111.309L137.445 114.603C137.69 114.805 137.725 115.168 137.523 115.414L135.327 118.08Z" fill="#937423"/>
<path d="M138.329 113.839C138.338 114.157 138.088 114.422 137.771 114.432L132.591 114.59C132.274 114.599 132.008 114.35 131.998 114.032L131.893 110.579C131.884 110.261 132.133 109.996 132.451 109.986L137.63 109.828C137.948 109.819 138.214 110.068 138.223 110.386L138.329 113.839Z" fill="#6C3E2A" fill-opacity="0.92"/>
<path d="M291.443 351.819C291.677 352.035 291.691 352.399 291.475 352.633L287.956 356.436C287.74 356.669 287.376 356.683 287.142 356.467L284.607 354.121C284.373 353.905 284.359 353.541 284.575 353.308L288.094 349.504C288.31 349.271 288.674 349.257 288.908 349.473L291.443 351.819Z" fill="#C89A23"/>
<path d="M292.352 354.228C292.585 354.444 292.599 354.808 292.383 355.042L288.864 358.845C288.648 359.078 288.284 359.093 288.051 358.877L285.515 356.531C285.282 356.315 285.268 355.95 285.484 355.717L289.003 351.914C289.218 351.68 289.583 351.666 289.816 351.882L292.352 354.228Z" fill="#937423"/>
<path d="M288.29 350.987C288.608 350.996 288.859 351.26 288.85 351.578L288.71 356.758C288.701 357.076 288.436 357.326 288.119 357.318L284.665 357.224C284.348 357.216 284.097 356.951 284.106 356.633L284.246 351.453C284.255 351.136 284.519 350.885 284.837 350.893L288.29 350.987Z" fill="#6C3E2A" fill-opacity="0.92"/>
<path d="M327.244 347.128C327.33 346.821 327.647 346.643 327.954 346.728L332.944 348.122C333.25 348.208 333.429 348.525 333.344 348.832L332.414 352.159C332.329 352.465 332.011 352.644 331.705 352.558L326.714 351.164C326.408 351.079 326.229 350.761 326.315 350.455L327.244 347.128Z" fill="#C89A23"/>
<path d="M328.973 345.22C329.058 344.913 329.376 344.734 329.682 344.82L334.673 346.214C334.979 346.3 335.158 346.617 335.072 346.923L334.143 350.25C334.057 350.557 333.74 350.736 333.434 350.65L328.443 349.256C328.137 349.17 327.958 348.853 328.043 348.547L328.973 345.22Z" fill="#937423"/>
<path d="M327.944 350.313C327.807 350.026 327.928 349.682 328.214 349.545L332.887 347.305C333.173 347.167 333.517 347.288 333.655 347.575L335.148 350.69C335.286 350.976 335.165 351.32 334.878 351.458L330.205 353.698C329.919 353.835 329.575 353.714 329.437 353.428L327.944 350.313Z" fill="#6C3E2A" fill-opacity="0.92"/>
<path d="M138.414 94.4973C138.13 94.6397 137.784 94.5246 137.642 94.2403L135.322 89.607C135.18 89.3227 135.295 88.9768 135.579 88.8345L138.668 87.2879C138.952 87.1456 139.298 87.2607 139.441 87.545L141.76 92.1782C141.903 92.4625 141.788 92.8084 141.503 92.9508L138.414 94.4973Z" fill="#C89A23"/>
<path d="M135.84 94.4988C135.555 94.6411 135.21 94.526 135.067 94.2417L132.747 89.6085C132.605 89.3241 132.72 88.9783 133.004 88.8359L136.093 87.2893C136.378 87.147 136.723 87.2621 136.866 87.5464L139.186 92.1796C139.328 92.464 139.213 92.8099 138.929 92.9522L135.84 94.4988Z" fill="#937423"/>
<path d="M140.304 91.8394C140.184 92.1339 139.848 92.2752 139.553 92.1552L134.755 90.199C134.461 90.0789 134.319 89.7429 134.439 89.4485L135.743 86.2498C135.863 85.9553 136.199 85.814 136.494 85.934L141.292 87.8902C141.586 88.0103 141.728 88.3463 141.608 88.6407L140.304 91.8394Z" fill="#6C3E2A" fill-opacity="0.92"/>
<path d="M357.166 364.005C357.399 364.221 357.414 364.586 357.198 364.819L353.679 368.622C353.463 368.856 353.098 368.87 352.865 368.654L350.33 366.308C350.096 366.092 350.082 365.728 350.298 365.494L353.817 361.691C354.033 361.458 354.397 361.443 354.631 361.659L357.166 364.005Z" fill="#C89A23"/>
<path d="M358.074 366.415C358.308 366.63 358.322 366.995 358.106 367.228L354.587 371.031C354.371 371.265 354.007 371.279 353.773 371.063L351.238 368.717C351.005 368.501 350.99 368.137 351.206 367.903L354.725 364.1C354.941 363.867 355.306 363.853 355.539 364.068L358.074 366.415Z" fill="#937423"/>
<path d="M354.013 363.174C354.331 363.182 354.582 363.447 354.573 363.765L354.432 368.944C354.424 369.262 354.159 369.513 353.841 369.504L350.388 369.411C350.07 369.402 349.82 369.137 349.828 368.819L349.969 363.64C349.977 363.322 350.242 363.071 350.56 363.08L354.013 363.174Z" fill="#6C3E2A" fill-opacity="0.92"/>
<path d="M366.796 404.468C367.029 404.684 367.044 405.049 366.828 405.282L363.309 409.085C363.093 409.319 362.728 409.333 362.495 409.117L359.959 406.771C359.726 406.555 359.712 406.191 359.928 405.957L363.447 402.154C363.663 401.921 364.027 401.906 364.26 402.122L366.796 404.468Z" fill="#C89A23"/>
<path d="M367.704 406.878C367.938 407.094 367.952 407.458 367.736 407.691L364.217 411.495C364.001 411.728 363.637 411.742 363.403 411.526L360.868 409.18C360.634 408.964 360.62 408.6 360.836 408.367L364.355 404.563C364.571 404.33 364.935 404.316 365.169 404.532L367.704 406.878Z" fill="#937423"/>
<path d="M363.643 403.637C363.961 403.645 364.211 403.91 364.203 404.228L364.062 409.408C364.054 409.725 363.789 409.976 363.471 409.967L360.018 409.874C359.7 409.865 359.45 409.6 359.458 409.283L359.599 404.103C359.607 403.785 359.872 403.534 360.19 403.543L363.643 403.637Z" fill="#6C3E2A" fill-opacity="0.92"/>
<path d="M205.811 257.947C206.044 258.163 206.058 258.527 205.842 258.76L202.323 262.564C202.107 262.797 201.743 262.811 201.509 262.595L198.974 260.249C198.741 260.033 198.726 259.669 198.942 259.435L202.461 255.632C202.677 255.399 203.042 255.385 203.275 255.601L205.811 257.947Z" fill="#C89A23"/>
<path d="M206.719 260.356C206.952 260.572 206.966 260.936 206.75 261.169L203.231 264.973C203.015 265.206 202.651 265.22 202.418 265.004L199.882 262.658C199.649 262.442 199.635 262.078 199.851 261.845L203.37 258.041C203.586 257.808 203.95 257.794 204.183 258.01L206.719 260.356Z" fill="#937423"/>
<path d="M202.657 257.115C202.975 257.123 203.226 257.388 203.217 257.706L203.077 262.886C203.068 263.204 202.804 263.454 202.486 263.446L199.033 263.352C198.715 263.343 198.464 263.079 198.473 262.761L198.613 257.581C198.622 257.263 198.887 257.013 199.204 257.021L202.657 257.115Z" fill="#6C3E2A" fill-opacity="0.92"/>
<path d="M109.029 124.912C109.262 125.128 109.276 125.492 109.06 125.725L105.541 129.529C105.325 129.762 104.961 129.776 104.728 129.56L102.192 127.214C101.959 126.998 101.944 126.634 102.16 126.401L105.679 122.597C105.895 122.364 106.26 122.35 106.493 122.566L109.029 124.912Z" fill="#C89A23"/>
<path d="M109.937 127.321C110.17 127.537 110.184 127.901 109.968 128.135L106.449 131.938C106.234 132.171 105.869 132.185 105.636 131.969L103.1 129.623C102.867 129.408 102.853 129.043 103.069 128.81L106.588 125.007C106.804 124.773 107.168 124.759 107.401 124.975L109.937 127.321Z" fill="#937423"/>
<path d="M105.875 124.08C106.193 124.089 106.444 124.353 106.435 124.671L106.295 129.851C106.286 130.169 106.022 130.419 105.704 130.411L102.251 130.317C101.933 130.308 101.682 130.044 101.691 129.726L101.831 124.546C101.84 124.228 102.105 123.978 102.422 123.986L105.875 124.08Z" fill="#6C3E2A" fill-opacity="0.92"/>
<path d="M128.523 175.359C128.756 175.575 128.77 175.94 128.555 176.173L125.035 179.976C124.82 180.21 124.455 180.224 124.222 180.008L121.686 177.662C121.453 177.446 121.439 177.082 121.655 176.848L125.174 173.045C125.39 172.812 125.754 172.797 125.987 173.013L128.523 175.359Z" fill="#C89A23"/>
<path d="M129.431 177.769C129.665 177.985 129.679 178.349 129.463 178.582L125.944 182.386C125.728 182.619 125.364 182.633 125.13 182.417L122.595 180.071C122.361 179.855 122.347 179.491 122.563 179.258L126.082 175.454C126.298 175.221 126.662 175.207 126.896 175.423L129.431 177.769Z" fill="#937423"/>
<path d="M125.37 174.528C125.688 174.536 125.938 174.801 125.93 175.119L125.789 180.298C125.781 180.616 125.516 180.867 125.198 180.858L121.745 180.765C121.427 180.756 121.176 180.491 121.185 180.174L121.326 174.994C121.334 174.676 121.599 174.425 121.917 174.434L125.37 174.528Z" fill="#6C3E2A" fill-opacity="0.92"/>
<path d="M148.862 175.539C149.282 175.18 149.913 175.229 150.272 175.649L156.126 182.485C156.485 182.905 156.436 183.536 156.016 183.895L151.458 187.797C151.039 188.157 150.408 188.108 150.049 187.688L144.195 180.851C143.836 180.432 143.885 179.801 144.305 179.441L148.862 175.539Z" fill="#C89A23"/>
<path d="M153.202 174.457C153.621 174.098 154.253 174.147 154.612 174.567L160.465 181.403C160.824 181.823 160.775 182.454 160.356 182.813L155.798 186.715C155.378 187.074 154.747 187.026 154.388 186.606L148.535 179.769C148.175 179.35 148.224 178.718 148.644 178.359L153.202 174.457Z" fill="#937423"/>
<path d="M146.793 180.812C146.872 180.265 147.379 179.886 147.925 179.965L156.833 181.25C157.38 181.329 157.759 181.836 157.68 182.382L156.823 188.321C156.744 188.867 156.237 189.247 155.691 189.168L146.783 187.883C146.236 187.804 145.857 187.297 145.936 186.75L146.793 180.812Z" fill="#6C3E2A" fill-opacity="0.92"/>
<path d="M269.926 333.861C270.345 333.502 270.977 333.551 271.336 333.97L277.189 340.807C277.548 341.226 277.499 341.858 277.08 342.217L272.522 346.119C272.102 346.478 271.471 346.429 271.112 346.01L265.259 339.173C264.9 338.753 264.948 338.122 265.368 337.763L269.926 333.861Z" fill="#C89A23"/>
<path d="M274.265 332.779C274.685 332.419 275.316 332.468 275.675 332.888L281.528 339.725C281.887 340.144 281.838 340.775 281.419 341.135L276.861 345.037C276.442 345.396 275.81 345.347 275.451 344.927L269.598 338.091C269.239 337.671 269.288 337.04 269.707 336.681L274.265 332.779Z" fill="#937423"/>
<path d="M267.856 339.133C267.935 338.586 268.442 338.207 268.989 338.286L277.896 339.571C278.443 339.65 278.822 340.157 278.743 340.704L277.887 346.642C277.808 347.189 277.301 347.568 276.754 347.489L267.846 346.204C267.3 346.125 266.92 345.618 266.999 345.072L267.856 339.133Z" fill="#6C3E2A" fill-opacity="0.92"/>
<path d="M139.949 208.182C140.369 207.823 141 207.872 141.359 208.291L147.212 215.128C147.572 215.548 147.523 216.179 147.103 216.538L142.545 220.44C142.126 220.799 141.494 220.75 141.135 220.331L135.282 213.494C134.923 213.075 134.972 212.443 135.391 212.084L139.949 208.182Z" fill="#C89A23"/>
<path d="M144.288 207.1C144.708 206.741 145.339 206.79 145.698 207.209L151.552 214.046C151.911 214.466 151.862 215.097 151.442 215.456L146.885 219.358C146.465 219.717 145.834 219.668 145.475 219.249L139.621 212.412C139.262 211.993 139.311 211.361 139.731 211.002L144.288 207.1Z" fill="#937423"/>
<path d="M137.88 213.454C137.958 212.908 138.466 212.529 139.012 212.607L147.92 213.893C148.467 213.972 148.846 214.479 148.767 215.025L147.91 220.964C147.831 221.51 147.324 221.89 146.778 221.811L137.87 220.525C137.323 220.447 136.944 219.94 137.023 219.393L137.88 213.454Z" fill="#6C3E2A" fill-opacity="0.92"/>
<path d="M302.007 306.217C301.793 305.868 301.897 305.415 302.239 305.205L307.812 301.78C308.154 301.57 308.605 301.682 308.819 302.031L311.145 305.816C311.359 306.164 311.256 306.617 310.914 306.827L305.341 310.252C304.999 310.462 304.548 310.35 304.334 310.002L302.007 306.217Z" fill="#C89A23"/>
<path d="M301.695 302.932C301.481 302.584 301.585 302.131 301.927 301.921L307.5 298.496C307.842 298.285 308.292 298.397 308.506 298.746L310.833 302.531C311.047 302.88 310.943 303.332 310.601 303.543L305.028 306.968C304.686 307.178 304.235 307.066 304.021 306.717L301.695 302.932Z" fill="#937423"/>
<path d="M305.593 308.36C305.206 308.236 304.987 307.822 305.103 307.434L306.996 301.116C307.112 300.729 307.519 300.514 307.906 300.638L312.104 301.98C312.49 302.104 312.709 302.518 312.593 302.906L310.701 309.224C310.585 309.612 310.177 309.826 309.791 309.702L305.593 308.36Z" fill="#6C3E2A" fill-opacity="0.92"/>
<path d="M283.291 285.636C283.226 285.27 283.464 284.922 283.823 284.857L289.677 283.809C290.036 283.745 290.38 283.99 290.446 284.356L291.158 288.331C291.223 288.697 290.985 289.046 290.626 289.11L284.772 290.158C284.413 290.223 284.069 289.978 284.003 289.612L283.291 285.636Z" fill="#C89A23"/>
<path d="M284.118 282.753C284.052 282.387 284.29 282.038 284.649 281.974L290.503 280.926C290.862 280.862 291.206 281.106 291.272 281.472L291.984 285.448C292.049 285.814 291.811 286.163 291.452 286.227L285.598 287.275C285.239 287.339 284.895 287.095 284.829 286.729L284.118 282.753Z" fill="#937423"/>
<path d="M285.614 288.641C285.328 288.408 285.28 287.984 285.507 287.695L289.206 282.976C289.433 282.687 289.849 282.641 290.135 282.874L293.242 285.404C293.528 285.637 293.576 286.06 293.349 286.35L289.65 291.068C289.423 291.358 289.007 291.404 288.721 291.171L285.614 288.641Z" fill="#6C3E2A" fill-opacity="0.92"/>
<path d="M320.911 389.628C321.343 389.973 321.415 390.602 321.07 391.034L315.463 398.073C315.118 398.505 314.489 398.576 314.057 398.232L309.364 394.493C308.932 394.149 308.861 393.52 309.205 393.088L314.813 386.049C315.158 385.617 315.787 385.546 316.219 385.89L320.911 389.628Z" fill="#C89A23"/>
<path d="M322.794 393.685C323.226 394.029 323.297 394.658 322.953 395.09L317.345 402.13C317.001 402.562 316.372 402.633 315.94 402.289L311.247 398.55C310.815 398.206 310.744 397.577 311.088 397.145L316.696 390.106C317.04 389.674 317.669 389.602 318.101 389.947L322.794 393.685Z" fill="#937423"/>
<path d="M315.343 388.592C315.895 388.566 316.363 388.992 316.389 389.544L316.809 398.534C316.835 399.086 316.409 399.554 315.857 399.58L309.864 399.86C309.312 399.886 308.844 399.46 308.818 398.908L308.398 389.918C308.372 389.366 308.798 388.898 309.35 388.872L315.343 388.592Z" fill="#6C3E2A" fill-opacity="0.92"/>
<path d="M91.6551 112.891C92.1951 113.402 92.2261 114.246 91.7243 114.776L83.5478 123.413C83.046 123.943 82.2015 123.958 81.6616 123.447L75.7953 117.893C75.2553 117.382 75.2243 116.538 75.7261 116.008L83.9026 107.371C84.4044 106.841 85.2489 106.826 85.7888 107.337L91.6551 112.891Z" fill="#C89A23"/>
<path d="M93.749 118.512C94.289 119.023 94.3199 119.868 93.8182 120.398L85.6416 129.034C85.1399 129.564 84.2954 129.58 83.7554 129.069L77.8891 123.515C77.3492 123.004 77.3182 122.16 77.8199 121.63L85.9965 112.993C86.4982 112.463 87.3427 112.447 87.8827 112.959L93.749 118.512Z" fill="#937423"/>
<path d="M84.3499 110.813C85.0867 110.849 85.6665 111.473 85.6449 112.209L85.2935 124.195C85.272 124.93 84.6572 125.498 83.9204 125.463L75.9159 125.08C75.1791 125.045 74.5993 124.42 74.6209 123.684L74.9722 111.699C74.9938 110.963 75.6086 110.395 76.3454 110.431L84.3499 110.813Z" fill="#6C3E2A" fill-opacity="0.92"/>
<path d="M303.318 360.563C303.737 360.203 304.368 360.252 304.728 360.672L310.581 367.509C310.94 367.928 310.891 368.559 310.471 368.919L305.914 372.821C305.494 373.18 304.863 373.131 304.504 372.711L298.65 365.875C298.291 365.455 298.34 364.824 298.76 364.465L303.318 360.563Z" fill="#C89A23"/>
<path d="M307.657 359.481C308.076 359.121 308.708 359.17 309.067 359.59L314.92 366.427C315.279 366.846 315.23 367.477 314.811 367.837L310.253 371.739C309.833 372.098 309.202 372.049 308.843 371.629L302.99 364.793C302.631 364.373 302.679 363.742 303.099 363.383L307.657 359.481Z" fill="#937423"/>
<path d="M301.248 365.835C301.327 365.288 301.834 364.909 302.38 364.988L311.288 366.273C311.835 366.352 312.214 366.859 312.135 367.406L311.278 373.344C311.199 373.891 310.692 374.27 310.146 374.191L301.238 372.906C300.691 372.827 300.312 372.32 300.391 371.773L301.248 365.835Z" fill="#6C3E2A" fill-opacity="0.92"/>
<path d="M80.7315 58.0474C80.5085 58.5526 79.9182 58.7815 79.4129 58.5586L71.1789 54.9253C70.6736 54.7023 70.4447 54.112 70.6677 53.6067L73.0899 48.1173C73.3128 47.6121 73.9032 47.3832 74.4085 47.6061L82.6425 51.2394C83.1478 51.4624 83.3766 52.0527 83.1537 52.558L80.7315 58.0474Z" fill="#C89A23"/>
<path d="M77.2869 60.8995C77.064 61.4048 76.4736 61.6337 75.9683 61.4107L67.7343 57.7775C67.229 57.5545 67.0002 56.9641 67.2231 56.4589L69.6453 50.9695C69.8683 50.4642 70.4586 50.2354 70.9639 50.4583L79.1979 54.0916C79.7032 54.3145 79.9321 54.9049 79.7091 55.4102L77.2869 60.8995Z" fill="#937423"/>
<path d="M80.3177 52.3986C80.483 52.9255 80.1898 53.4867 79.6628 53.652L71.0752 56.3453C70.5483 56.5105 69.9871 56.2173 69.8218 55.6904L68.0263 49.9653C67.861 49.4383 68.1542 48.8772 68.6812 48.7119L77.2688 46.0186C77.7957 45.8533 78.3569 46.1465 78.5222 46.6735L80.3177 52.3986Z" fill="#6C3E2A" fill-opacity="0.92"/>
<path d="M47.4295 20.158C47.849 19.7988 48.4803 19.8477 48.8395 20.2673L54.6926 27.104C55.0518 27.5235 55.0029 28.1548 54.5833 28.514L50.0255 32.4161C49.606 32.7753 48.9747 32.7263 48.6155 32.3068L42.7624 25.4701C42.4032 25.0505 42.4521 24.4193 42.8717 24.0601L47.4295 20.158Z" fill="#C89A23"/>
<path d="M51.7687 19.0759C52.1883 18.7167 52.8195 18.7656 53.1787 19.1852L59.0318 26.0219C59.391 26.4414 59.3421 27.0727 58.9226 27.4319L54.3647 31.334C53.9452 31.6931 53.3139 31.6442 52.9548 31.2247L47.1016 24.3879C46.7424 23.9684 46.7914 23.3371 47.2109 22.978L51.7687 19.0759Z" fill="#937423"/>
<path d="M45.3598 25.4302C45.4387 24.8836 45.9457 24.5044 46.4924 24.5833L55.4001 25.8685C55.9468 25.9473 56.3259 26.4544 56.2471 27.001L55.3903 32.9395C55.3114 33.4862 54.8044 33.8653 54.2577 33.7865L45.35 32.5013C44.8034 32.4224 44.4242 31.9154 44.503 31.3688L45.3598 25.4302Z" fill="#6C3E2A" fill-opacity="0.92"/>
<path d="M188.468 220.48C189.265 220.171 190.157 220.555 190.461 221.337L195.409 234.088C195.712 234.871 195.312 235.756 194.515 236.065L185.855 239.426C185.057 239.735 184.165 239.352 183.861 238.569L178.913 225.818C178.61 225.036 179.01 224.15 179.807 223.841L188.468 220.48Z" fill="#C89A23"/>
<path d="M195.341 221.074C196.138 220.764 197.031 221.148 197.334 221.93L202.282 234.681C202.586 235.464 202.186 236.349 201.388 236.658L192.728 240.019C191.931 240.328 191.038 239.945 190.735 239.162L185.787 226.411C185.483 225.629 185.883 224.744 186.68 224.434L195.341 221.074Z" fill="#937423"/>
<path d="M182.711 227.049C183.11 226.3 184.045 226.006 184.799 226.39L197.081 232.659C197.835 233.044 198.122 233.962 197.723 234.711L193.382 242.84C192.983 243.589 192.048 243.883 191.294 243.499L179.012 237.23C178.258 236.845 177.971 235.927 178.37 235.178L182.711 227.049Z" fill="#6C3E2A" fill-opacity="0.92"/>
<path d="M58.2182 66.8836C57.9424 67.3621 57.331 67.5265 56.8525 67.2508L49.0545 62.7573C48.576 62.4815 48.4116 61.8701 48.6873 61.3916L51.683 56.1929C51.9587 55.7144 52.5702 55.55 53.0487 55.8257L60.8467 60.3192C61.3252 60.595 61.4896 61.2064 61.2138 61.6849L58.2182 66.8836Z" fill="#C89A23"/>
<path d="M54.4882 69.3508C54.2124 69.8293 53.601 69.9937 53.1225 69.718L45.3245 65.2245C44.846 64.9488 44.6816 64.3373 44.9573 63.8588L47.953 58.6601C48.2287 58.1816 48.8402 58.0172 49.3187 58.293L57.1167 62.7864C57.5952 63.0622 57.7596 63.6736 57.4838 64.1522L54.4882 69.3508Z" fill="#937423"/>
<path d="M58.4112 61.223C58.5191 61.7646 58.1676 62.2912 57.6259 62.3991L48.7995 64.158C48.2578 64.266 47.7313 63.9144 47.6233 63.3728L46.4507 57.4885C46.3428 56.9468 46.6943 56.4203 47.236 56.3123L56.0624 54.5534C56.6041 54.4454 57.1306 54.797 57.2386 55.3387L58.4112 61.223Z" fill="#6C3E2A" fill-opacity="0.92"/>
<path d="M183.2 254.088C183.62 253.729 184.251 253.778 184.61 254.197L190.463 261.034C190.822 261.454 190.773 262.085 190.354 262.444L185.796 266.346C185.377 266.705 184.745 266.657 184.386 266.237L178.533 259.4C178.174 258.981 178.223 258.349 178.642 257.99L183.2 254.088Z" fill="#C89A23"/>
<path d="M187.539 253.006C187.959 252.647 188.59 252.696 188.949 253.115L194.802 259.952C195.162 260.372 195.113 261.003 194.693 261.362L190.135 265.264C189.716 265.623 189.085 265.574 188.725 265.155L182.872 258.318C182.513 257.899 182.562 257.267 182.982 256.908L187.539 253.006Z" fill="#937423"/>
<path d="M181.13 259.36C181.209 258.814 181.716 258.435 182.263 258.513L191.171 259.799C191.717 259.878 192.097 260.385 192.018 260.931L191.161 266.87C191.082 267.416 190.575 267.796 190.028 267.717L181.121 266.431C180.574 266.353 180.195 265.846 180.274 265.299L181.13 259.36Z" fill="#6C3E2A" fill-opacity="0.92"/>
<path d="M249.989 298.272C250.408 297.913 251.04 297.962 251.399 298.382L257.252 305.219C257.611 305.638 257.562 306.269 257.143 306.628L252.585 310.531C252.165 310.89 251.534 310.841 251.175 310.421L245.322 303.585C244.963 303.165 245.012 302.534 245.431 302.175L249.989 298.272Z" fill="#C89A23"/>
<path d="M254.328 297.19C254.748 296.831 255.379 296.88 255.738 297.3L261.591 304.136C261.95 304.556 261.902 305.187 261.482 305.546L256.924 309.448C256.505 309.808 255.873 309.759 255.514 309.339L249.661 302.502C249.302 302.083 249.351 301.452 249.77 301.092L254.328 297.19Z" fill="#937423"/>
<path d="M247.919 303.545C247.998 302.998 248.505 302.619 249.052 302.698L257.96 303.983C258.506 304.062 258.885 304.569 258.807 305.116L257.95 311.054C257.871 311.601 257.364 311.98 256.817 311.901L247.909 310.616C247.363 310.537 246.984 310.03 247.062 309.483L247.919 303.545Z" fill="#6C3E2A" fill-opacity="0.92"/>
<path d="M108.611 56.3329C108.426 56.6977 107.986 56.8462 107.628 56.6647L101.793 53.707C101.435 53.5255 101.295 53.0826 101.48 52.7179L103.489 48.755C103.674 48.3903 104.114 48.2417 104.472 48.4232L110.306 51.3809C110.664 51.5624 110.805 52.0053 110.62 52.3701L108.611 56.3329Z" fill="#C89A23"/>
<path d="M105.975 58.3175C105.79 58.6823 105.35 58.8308 104.992 58.6493L99.1573 55.6916C98.7993 55.5101 98.659 55.0673 98.8439 54.7025L100.853 50.7397C101.038 50.3749 101.478 50.2263 101.836 50.4078L107.67 53.3656C108.028 53.5471 108.169 53.9899 107.984 54.3547L105.975 58.3175Z" fill="#937423"/>
<path d="M108.561 52.156C108.658 52.55 108.42 52.9536 108.029 53.0574L101.654 54.7499C101.263 54.8538 100.868 54.6186 100.771 54.2246L99.7185 49.9445C99.6217 49.5506 99.8603 49.147 100.251 49.0431L106.626 47.3507C107.017 47.2468 107.412 47.482 107.509 47.8759L108.561 52.156Z" fill="#6C3E2A" fill-opacity="0.92"/>
<path d="M328.315 331.31C328.243 331.022 328.415 330.731 328.699 330.661L333.317 329.519C333.6 329.449 333.888 329.626 333.959 329.915L334.735 333.052C334.806 333.34 334.634 333.631 334.351 333.701L329.733 334.843C329.449 334.913 329.162 334.736 329.09 334.447L328.315 331.31Z" fill="#C89A23"/>
<path d="M328.824 328.965C328.753 328.677 328.924 328.386 329.208 328.316L333.826 327.174C334.11 327.104 334.397 327.281 334.469 327.57L335.244 330.707C335.315 330.996 335.144 331.286 334.86 331.356L330.242 332.498C329.958 332.568 329.671 332.391 329.599 332.102L328.824 328.965Z" fill="#937423"/>
<path d="M330.326 333.588C330.085 333.417 330.025 333.081 330.191 332.838L332.898 328.879C333.064 328.636 333.394 328.577 333.634 328.748L336.246 330.606C336.487 330.777 336.547 331.113 336.381 331.356L333.674 335.315C333.508 335.558 333.178 335.616 332.938 335.445L330.326 333.588Z" fill="#6C3E2A" fill-opacity="0.92"/>
<path d="M334.452 379.221C334.281 378.696 334.568 378.132 335.094 377.961L343.653 375.18C344.178 375.009 344.743 375.296 344.913 375.822L346.767 381.528C346.938 382.053 346.651 382.617 346.125 382.788L337.566 385.569C337.041 385.74 336.477 385.453 336.306 384.927L334.452 379.221Z" fill="#C89A23"/>
<path d="M335.118 374.799C334.947 374.274 335.234 373.709 335.76 373.539L344.319 370.757C344.844 370.587 345.408 370.874 345.579 371.399L347.433 377.106C347.604 377.631 347.317 378.195 346.791 378.366L338.232 381.147C337.707 381.318 337.143 381.03 336.972 380.505L335.118 374.799Z" fill="#937423"/>
<path d="M338.526 383.156C338.052 382.873 337.896 382.259 338.179 381.785L342.784 374.052C343.066 373.578 343.68 373.422 344.155 373.705L349.31 376.775C349.784 377.057 349.94 377.671 349.657 378.146L345.052 385.878C344.769 386.353 344.156 386.508 343.681 386.226L338.526 383.156Z" fill="#6C3E2A" fill-opacity="0.92"/>
<path d="M120.868 88.0632C120.687 88.1056 120.506 87.9959 120.465 87.8182L119.787 84.9231C119.746 84.7455 119.859 84.5671 120.04 84.5248L122.006 84.0644C122.187 84.0221 122.367 84.1317 122.409 84.3094L123.087 87.2045C123.128 87.3821 123.015 87.5605 122.834 87.6029L120.868 88.0632Z" fill="#C89A23"/>
<path d="M119.406 87.7267C119.225 87.7691 119.045 87.6594 119.003 87.4818L118.326 84.5867C118.284 84.409 118.397 84.2307 118.578 84.1883L120.544 83.728C120.725 83.6856 120.906 83.7953 120.947 83.9729L121.625 86.868C121.667 87.0457 121.554 87.224 121.373 87.2664L119.406 87.7267Z" fill="#937423"/>
<path d="M122.307 86.8242C122.198 86.9731 121.988 87.0082 121.837 86.9025L119.384 85.1799C119.233 85.0742 119.199 84.8678 119.308 84.7188L120.489 83.1007C120.598 82.9518 120.808 82.9168 120.959 83.0225L123.412 84.745C123.563 84.8507 123.597 85.0571 123.488 85.2061L122.307 86.8242Z" fill="#6C3E2A" fill-opacity="0.92"/>
<path d="M75.3828 67.9446C75.4638 68.1119 75.3963 68.312 75.2321 68.3915L72.5558 69.6871C72.3916 69.7666 72.1928 69.6955 72.1118 69.5281L71.2318 67.7104C71.1508 67.5431 71.2183 67.343 71.3825 67.2635L74.0587 65.9679C74.2229 65.8884 74.4217 65.9596 74.5027 66.1269L75.3828 67.9446Z" fill="#C89A23"/>
<path d="M75.3747 69.4443C75.4557 69.6116 75.3882 69.8117 75.224 69.8912L72.5478 71.1869C72.3836 71.2664 72.1848 71.1952 72.1038 71.0279L71.2238 69.2102C71.1428 69.0428 71.2102 68.8427 71.3745 68.7632L74.0507 67.4676C74.2149 67.3881 74.4137 67.4593 74.4947 67.6266L75.3747 69.4443Z" fill="#937423"/>
<path d="M73.8586 66.8123C74.0277 66.8858 74.108 67.0832 74.0379 67.2532L72.8948 70.0245C72.8246 70.1946 72.6307 70.2729 72.4615 70.1994L70.6239 69.4014C70.4547 69.328 70.3745 69.1306 70.4446 68.9605L71.5877 66.1892C71.6578 66.0192 71.8518 65.9409 72.021 66.0143L73.8586 66.8123Z" fill="#6C3E2A" fill-opacity="0.92"/>
<path d="M223.745 285.829C223.826 285.997 223.758 286.197 223.594 286.276L220.918 287.572C220.754 287.651 220.555 287.58 220.474 287.413L219.594 285.595C219.513 285.428 219.58 285.228 219.744 285.148L222.421 283.853C222.585 283.773 222.784 283.844 222.865 284.012L223.745 285.829Z" fill="#C89A23"/>
<path d="M223.737 287.329C223.818 287.496 223.75 287.696 223.586 287.776L220.91 289.072C220.746 289.151 220.547 289.08 220.466 288.913L219.586 287.095C219.505 286.927 219.572 286.727 219.736 286.648L222.413 285.352C222.577 285.273 222.776 285.344 222.857 285.511L223.737 287.329Z" fill="#937423"/>
<path d="M222.221 284.697C222.39 284.77 222.47 284.968 222.4 285.138L221.257 287.909C221.187 288.079 220.993 288.158 220.823 288.084L218.986 287.286C218.817 287.213 218.736 287.015 218.807 286.845L219.95 284.074C220.02 283.904 220.214 283.825 220.383 283.899L222.221 284.697Z" fill="#6C3E2A" fill-opacity="0.92"/>
<path d="M168.788 226.25C168.869 226.417 168.801 226.617 168.637 226.697L165.961 227.992C165.796 228.072 165.598 228.001 165.517 227.833L164.637 226.016C164.556 225.848 164.623 225.648 164.787 225.569L167.464 224.273C167.628 224.194 167.827 224.265 167.908 224.432L168.788 226.25Z" fill="#C89A23"/>
<path d="M168.779 227.749C168.86 227.917 168.793 228.117 168.629 228.196L165.953 229.492C165.788 229.572 165.59 229.5 165.509 229.333L164.629 227.515C164.548 227.348 164.615 227.148 164.779 227.068L167.455 225.773C167.62 225.693 167.818 225.764 167.899 225.932L168.779 227.749Z" fill="#937423"/>
<path d="M167.263 225.117C167.433 225.191 167.513 225.388 167.443 225.558L166.3 228.33C166.229 228.5 166.035 228.578 165.866 228.505L164.029 227.707C163.86 227.633 163.779 227.436 163.849 227.266L164.992 224.494C165.063 224.324 165.257 224.246 165.426 224.319L167.263 225.117Z" fill="#6C3E2A" fill-opacity="0.92"/>
<path d="M42.1003 39.8327C42.1813 40 42.1138 40.2001 41.9496 40.2796L39.2734 41.5752C39.1092 41.6547 38.9104 41.5835 38.8294 41.4162L37.9493 39.5985C37.8683 39.4312 37.9358 39.2311 38.1 39.1516L40.7763 37.8559C40.9405 37.7764 41.1393 37.8476 41.2203 38.0149L42.1003 39.8327Z" fill="#C89A23"/>
<path d="M42.0922 41.3324C42.1732 41.4997 42.1058 41.6998 41.9415 41.7793L39.2653 43.0749C39.1011 43.1544 38.9023 43.0832 38.8213 42.9159L37.9413 41.0982C37.8603 40.9309 37.9278 40.7308 38.092 40.6513L40.7682 39.3557C40.9324 39.2762 41.1312 39.3474 41.2122 39.5147L42.0922 41.3324Z" fill="#937423"/>
<path d="M40.5761 38.7004C40.7453 38.7738 40.8255 38.9712 40.7554 39.1413L39.6123 41.9126C39.5422 42.0826 39.3482 42.1609 39.179 42.0875L37.3414 41.2895C37.1723 41.216 37.092 41.0186 37.1622 40.8486L38.3052 38.0773C38.3754 37.9072 38.5694 37.8289 38.7385 37.9024L40.5761 38.7004Z" fill="#6C3E2A" fill-opacity="0.92"/>
<path d="M285.653 328.926C285.734 329.093 285.667 329.293 285.502 329.373L282.826 330.669C282.662 330.748 282.463 330.677 282.382 330.51L281.502 328.692C281.421 328.525 281.489 328.324 281.653 328.245L284.329 326.949C284.493 326.87 284.692 326.941 284.773 327.108L285.653 328.926Z" fill="#C89A23"/>
<path d="M285.645 330.426C285.726 330.593 285.659 330.793 285.494 330.873L282.818 332.168C282.654 332.248 282.455 332.177 282.374 332.009L281.494 330.192C281.413 330.024 281.481 329.824 281.645 329.745L284.321 328.449C284.485 328.37 284.684 328.441 284.765 328.608L285.645 330.426Z" fill="#937423"/>
<path d="M284.129 327.794C284.298 327.867 284.378 328.065 284.308 328.235L283.165 331.006C283.095 331.176 282.901 331.254 282.732 331.181L280.894 330.383C280.725 330.309 280.645 330.112 280.715 329.942L281.858 327.171C281.928 327.001 282.122 326.922 282.291 326.996L284.129 327.794Z" fill="#6C3E2A" fill-opacity="0.92"/>
<path d="M313.443 290.654C313.524 290.821 313.456 291.021 313.292 291.101L310.616 292.397C310.451 292.476 310.253 292.405 310.172 292.238L309.292 290.42C309.211 290.253 309.278 290.052 309.442 289.973L312.119 288.677C312.283 288.598 312.482 288.669 312.563 288.836L313.443 290.654Z" fill="#C89A23"/>
<path d="M313.435 292.154C313.516 292.321 313.448 292.521 313.284 292.601L310.608 293.896C310.443 293.976 310.245 293.905 310.164 293.737L309.284 291.92C309.203 291.752 309.27 291.552 309.434 291.473L312.11 290.177C312.275 290.098 312.474 290.169 312.555 290.336L313.435 292.154Z" fill="#937423"/>
<path d="M311.918 289.522C312.088 289.595 312.168 289.793 312.098 289.963L310.955 292.734C310.884 292.904 310.69 292.982 310.521 292.909L308.684 292.111C308.515 292.037 308.434 291.84 308.504 291.67L309.648 288.899C309.718 288.729 309.912 288.65 310.081 288.724L311.918 289.522Z" fill="#6C3E2A" fill-opacity="0.92"/>
<path d="M90.5245 93.1044C90.9132 93.4968 90.9102 94.13 90.5178 94.5186L84.1237 100.852C83.7313 101.241 83.0981 101.238 82.7095 100.846L78.487 96.5828C78.0984 96.1904 78.1014 95.5572 78.4938 95.1686L84.8879 88.8349C85.2803 88.4463 85.9134 88.4493 86.3021 88.8417L90.5245 93.1044Z" fill="#C89A23"/>
<path d="M91.9186 97.3538C92.3072 97.7461 92.3042 98.3793 91.9118 98.7679L85.5177 105.102C85.1253 105.49 84.4922 105.487 84.1035 105.095L79.8811 100.832C79.4924 100.44 79.4954 99.8066 79.8878 99.4179L86.2819 93.0843C86.6743 92.6956 87.3075 92.6986 87.6961 93.091L91.9186 97.3538Z" fill="#937423"/>
<path d="M85.116 91.4226C85.6669 91.4617 86.0819 91.9399 86.0429 92.4908L85.4073 101.468C85.3683 102.019 84.89 102.434 84.3391 102.395L78.3541 101.971C77.8032 101.932 77.3882 101.454 77.4272 100.903L78.0629 91.9258C78.1019 91.3749 78.5801 90.9599 79.131 90.9989L85.116 91.4226Z" fill="#6C3E2A" fill-opacity="0.92"/>
<path d="M336.272 392.904C336.692 392.545 337.323 392.594 337.682 393.014L343.535 399.85C343.894 400.27 343.846 400.901 343.426 401.26L338.868 405.163C338.449 405.522 337.817 405.473 337.458 405.053L331.605 398.217C331.246 397.797 331.295 397.166 331.714 396.807L336.272 392.904Z" fill="#C89A23"/>
<path d="M340.611 391.822C341.031 391.463 341.662 391.512 342.021 391.932L347.874 398.768C348.234 399.188 348.185 399.819 347.765 400.178L343.207 404.08C342.788 404.44 342.157 404.391 341.797 403.971L335.944 397.134C335.585 396.715 335.634 396.084 336.054 395.724L340.611 391.822Z" fill="#937423"/>
<path d="M334.202 398.177C334.281 397.63 334.788 397.251 335.335 397.33L344.243 398.615C344.789 398.694 345.169 399.201 345.09 399.747L344.233 405.686C344.154 406.233 343.647 406.612 343.1 406.533L334.193 405.248C333.646 405.169 333.267 404.662 333.346 404.115L334.202 398.177Z" fill="#6C3E2A" fill-opacity="0.92"/>
<path d="M108.421 148.291C108.84 147.932 109.472 147.981 109.831 148.4L115.684 155.237C116.043 155.657 115.994 156.288 115.575 156.647L111.017 160.549C110.597 160.908 109.966 160.859 109.607 160.44L103.754 153.603C103.395 153.184 103.443 152.552 103.863 152.193L108.421 148.291Z" fill="#C89A23"/>
<path d="M112.76 147.209C113.18 146.85 113.811 146.899 114.17 147.318L120.023 154.155C120.382 154.574 120.333 155.206 119.914 155.565L115.356 159.467C114.937 159.826 114.305 159.777 113.946 159.358L108.093 152.521C107.734 152.101 107.783 151.47 108.202 151.111L112.76 147.209Z" fill="#937423"/>
<path d="M106.351 153.563C106.43 153.017 106.937 152.637 107.484 152.716L116.391 154.002C116.938 154.08 117.317 154.587 117.238 155.134L116.382 161.073C116.303 161.619 115.796 161.998 115.249 161.92L106.341 160.634C105.795 160.555 105.415 160.048 105.494 159.502L106.351 153.563Z" fill="#6C3E2A" fill-opacity="0.92"/>
<path d="M102.78 77.6473C102.371 77.6606 102.029 77.3461 102.016 76.9449L101.804 70.407C101.791 70.0058 102.111 69.6698 102.52 69.6565L106.961 69.5123C107.37 69.499 107.712 69.8135 107.725 70.2147L107.937 76.7526C107.95 77.1538 107.629 77.4898 107.22 77.5031L102.78 77.6473Z" fill="#C89A23"/>
<path d="M99.7721 76.2906C99.3634 76.3038 99.0215 75.9894 99.0084 75.5882L98.7961 69.0502C98.7831 68.649 99.1039 68.313 99.5126 68.2998L103.953 68.1556C104.362 68.1423 104.704 68.4568 104.717 68.858L104.929 75.3959C104.942 75.7971 104.622 76.1331 104.213 76.1463L99.7721 76.2906Z" fill="#937423"/>
<path d="M106.418 75.5955C106.119 75.8699 105.651 75.8548 105.372 75.5617L100.823 70.7867C100.543 70.4937 100.559 70.0338 100.858 69.7594L104.105 66.7787C104.404 66.5043 104.872 66.5194 105.152 66.8125L109.701 71.5874C109.98 71.8805 109.964 72.3404 109.665 72.6148L106.418 75.5955Z" fill="#6C3E2A" fill-opacity="0.92"/>
</svg>
