<svg width="179" height="510" viewBox="0 0 179 510" fill="none" xmlns="http://www.w3.org/2000/svg">
<g filter="url(#filter0_i_70_469)">
<path fill-rule="evenodd" clip-rule="evenodd" d="M16.7502 0.43514C21.4864 -0.914999 26.975 0.9413 33.0191 5.62317C28.5093 16.6366 28.9102 27.0098 34.1362 29.3129C38.002 31.0166 43.4838 27.8529 48.2644 21.7929C56.8649 33.0567 66.1057 48.3621 75.588 66.938C74.5077 66.7305 73.396 66.6694 72.2783 66.77C61.9964 53.22 52.7507 46.5116 45.5482 48.5648C37.485 50.8634 33.0361 63.8427 31.9814 84.4686C28.6465 86.2739 25.3527 89.3839 22.8069 93.4487C17.4203 102.049 17.4218 111.667 22.8104 114.931C25.4762 116.546 28.9609 116.303 32.4541 114.604C33.1376 124.778 34.3053 135.885 35.9448 147.755C35.0278 147.382 34.1427 147.294 33.319 147.528C28.8044 148.815 27.8449 159.331 31.1759 171.016C33.9771 180.842 38.9206 188.366 43.1072 189.745C47.757 213.001 53.7973 237.999 61.1628 263.836C63.1588 270.838 65.2049 277.736 67.2929 284.514C65.2708 282.932 62.9911 282.265 60.8697 282.87C56.3551 284.157 54.2672 290.714 56.2062 297.516C58.1451 304.318 63.3768 308.788 67.8913 307.502C70.2806 306.82 71.9902 304.663 72.7829 301.775C81.3676 327.921 90.5019 351.949 99.6571 372.849C93.7903 366.17 88.1346 362.457 85.6834 364.124C82.4911 366.294 85.943 376.766 93.3934 387.514C100.844 398.262 109.471 405.215 112.664 403.045C113.02 402.802 113.294 402.456 113.489 402.017C132.012 437.83 149.5 458.376 161.406 454.983C171.022 452.241 175.498 434.309 175.206 406.333C181.72 464.98 177.664 504.638 161.775 509.168C151.594 512.07 137.937 500.157 122.76 477.212C127.393 478.611 131.418 478.23 133.354 475.794C136.601 471.707 132.739 463.384 124.727 457.204C118.612 452.486 111.847 450.381 107.543 451.467C84.1458 407.897 58.8474 343.258 37.8122 269.468C33.4169 254.05 29.3904 238.873 25.7422 224.059C30.2374 235.039 35.0657 242.082 38.0789 241.223C42.328 240.012 41.3592 223.548 35.9151 204.451C30.471 185.354 22.6133 170.854 18.3643 172.066C16.6955 172.541 15.8316 175.369 15.7275 179.786C13.453 168.709 11.4235 157.94 9.64395 147.541C10.2794 147.686 10.8945 147.682 11.4786 147.515C15.9932 146.228 16.9527 135.713 13.6217 124.028C11.2523 115.716 7.35027 109.052 3.67 106.36C2.41275 95.5268 1.50747 85.3177 0.961841 75.8311C1.26135 76.0635 1.58569 76.2132 1.93375 76.2722C5.19169 76.8242 9.29468 69.2203 11.098 59.2885C12.9014 49.3567 11.7222 40.8579 8.46425 40.306C5.74169 39.8447 2.42899 45.079 0.36135 52.6078C0.697704 22.5335 6.03134 3.49077 16.7502 0.43514Z" fill="#FF0000" fill-opacity="0.71"/>
</g>
<defs>
<filter id="filter0_i_70_469" x="0.361328" y="0.00512695" width="192.219" height="509.593" filterUnits="userSpaceOnUse" color-interpolation-filters="sRGB">
<feFlood flood-opacity="0" result="BackgroundImageFix"/>
<feBlend mode="normal" in="SourceGraphic" in2="BackgroundImageFix" result="shape"/>
<feColorMatrix in="SourceAlpha" type="matrix" values="0 0 0 0 0 0 0 0 0 0 0 0 0 0 0 0 0 0 127 0" result="hardAlpha"/>
<feOffset dx="19"/>
<feGaussianBlur stdDeviation="7.2"/>
<feComposite in2="hardAlpha" operator="arithmetic" k2="-1" k3="1"/>
<feColorMatrix type="matrix" values="0 0 0 0 0.98 0 0 0 0 1 0 0 0 0 0 0 0 0 0.78 0"/>
<feBlend mode="normal" in2="shape" result="effect1_innerShadow_70_469"/>
</filter>
</defs>
</svg>
