<svg width="625" height="88" viewBox="0 0 625 88" fill="none" xmlns="http://www.w3.org/2000/svg">
<g filter="url(#filter0_f_70_354)">
<mask id="path-1-outside-1_70_354" maskUnits="userSpaceOnUse" x="57" y="3.6156" width="512" height="68" fill="black">
<rect fill="white" x="57" y="3.6156" width="512" height="68"/>
<path fill-rule="evenodd" clip-rule="evenodd" d="M209.236 10.8502C122.956 15.3276 63 25.2164 63 36.6959C63 52.3808 174.929 65.0959 313 65.0959C451.071 65.0959 563 52.3808 563 36.6959C563 25.0115 500.885 14.9751 412.119 10.6156C410.906 12.255 409.651 13.8638 408.357 15.4405C438.858 16.8754 466.281 18.9772 489.212 21.5822C511.746 24.142 529.764 27.1686 542.057 30.4703C548.243 32.1317 552.694 33.7895 555.494 35.3439C556.455 35.8775 557.107 36.337 557.532 36.696C557.107 37.0549 556.455 37.5144 555.494 38.048C552.694 39.6024 548.243 41.2602 542.057 42.9216C529.764 46.2233 511.746 49.2499 489.212 51.8097C447.299 56.5711 390.377 59.6512 327.089 60.0515C321.69 60.7404 316.183 61.096 310.59 61.096C304.895 61.096 299.288 60.7273 293.795 60.0132C232.557 59.4835 177.568 56.4424 136.788 51.8097C114.254 49.2499 96.2362 46.2233 83.9432 42.9216C77.7573 41.2602 73.3059 39.6024 70.506 38.048C69.5447 37.5144 68.8928 37.0549 68.468 36.696C68.8928 36.337 69.5447 35.8775 70.506 35.3439C73.3059 33.7895 77.7573 32.1317 83.9432 30.4703C96.2362 27.1686 114.254 24.142 136.788 21.5822C158.551 19.1098 184.362 17.0907 213.009 15.6648C211.711 14.0915 210.452 12.4862 209.236 10.8502Z"/>
</mask>
<path fill-rule="evenodd" clip-rule="evenodd" d="M209.236 10.8502C122.956 15.3276 63 25.2164 63 36.6959C63 52.3808 174.929 65.0959 313 65.0959C451.071 65.0959 563 52.3808 563 36.6959C563 25.0115 500.885 14.9751 412.119 10.6156C410.906 12.255 409.651 13.8638 408.357 15.4405C438.858 16.8754 466.281 18.9772 489.212 21.5822C511.746 24.142 529.764 27.1686 542.057 30.4703C548.243 32.1317 552.694 33.7895 555.494 35.3439C556.455 35.8775 557.107 36.337 557.532 36.696C557.107 37.0549 556.455 37.5144 555.494 38.048C552.694 39.6024 548.243 41.2602 542.057 42.9216C529.764 46.2233 511.746 49.2499 489.212 51.8097C447.299 56.5711 390.377 59.6512 327.089 60.0515C321.69 60.7404 316.183 61.096 310.59 61.096C304.895 61.096 299.288 60.7273 293.795 60.0132C232.557 59.4835 177.568 56.4424 136.788 51.8097C114.254 49.2499 96.2362 46.2233 83.9432 42.9216C77.7573 41.2602 73.3059 39.6024 70.506 38.048C69.5447 37.5144 68.8928 37.0549 68.468 36.696C68.8928 36.337 69.5447 35.8775 70.506 35.3439C73.3059 33.7895 77.7573 32.1317 83.9432 30.4703C96.2362 27.1686 114.254 24.142 136.788 21.5822C158.551 19.1098 184.362 17.0907 213.009 15.6648C211.711 14.0915 210.452 12.4862 209.236 10.8502Z" fill="white"/>
<path d="M209.236 10.8502L214.05 7.26933L212.133 4.69174L208.925 4.85822L209.236 10.8502ZM412.119 10.6156L412.414 4.62282L409.207 4.46531L407.296 7.04639L412.119 10.6156ZM408.357 15.4405L403.72 11.6327L396.132 20.872L408.075 21.4338L408.357 15.4405ZM489.212 21.5822L488.535 27.5438L488.535 27.5438L489.212 21.5822ZM542.057 30.4703L543.613 24.6756L543.613 24.6756L542.057 30.4703ZM555.494 35.3439L552.582 40.5897L552.582 40.5898L555.494 35.3439ZM557.532 36.696L561.405 41.2787L566.828 36.696L561.405 32.1132L557.532 36.696ZM555.494 38.048L552.582 32.8021L552.582 32.8022L555.494 38.048ZM542.057 42.9216L543.613 48.7163L543.613 48.7163L542.057 42.9216ZM489.212 51.8097L488.535 45.8481L488.535 45.8481L489.212 51.8097ZM327.089 60.0515L327.051 54.0516L326.688 54.0539L326.329 54.0998L327.089 60.0515ZM293.795 60.0132L294.568 54.0633L294.209 54.0166L293.847 54.0134L293.795 60.0132ZM136.788 51.8097L136.11 57.7714L136.11 57.7714L136.788 51.8097ZM83.9432 42.9216L82.3869 48.7163L82.3869 48.7163L83.9432 42.9216ZM70.506 38.048L67.5937 43.2938L67.5937 43.2938L70.506 38.048ZM68.468 36.696L64.5953 32.1132L59.1723 36.696L64.5953 41.2787L68.468 36.696ZM70.506 35.3439L67.5937 30.098L67.5937 30.0981L70.506 35.3439ZM83.9432 30.4703L85.4995 36.2649L85.4995 36.2649L83.9432 30.4703ZM136.788 21.5822L137.465 27.5438L137.465 27.5438L136.788 21.5822ZM213.009 15.6648L213.307 21.6574L225.243 21.0633L217.637 11.846L213.009 15.6648ZM208.925 4.85822C165.673 7.10272 128.847 10.7104 102.738 15.2354C89.7308 17.4897 79.1059 20.0173 71.6109 22.8257C67.8975 24.2172 64.5929 25.8073 62.108 27.7009C59.7559 29.4934 57 32.4558 57 36.6959H69C69 38.0662 68.1177 38.2084 69.3815 37.2453C70.5125 36.3834 72.5659 35.2827 75.8215 34.0627C82.2645 31.6485 92.021 29.2716 104.787 27.0591C130.226 22.6504 166.518 19.075 209.547 16.8421L208.925 4.85822ZM57 36.6959C57 39.5882 58.3169 41.9199 59.8176 43.5986C61.2865 45.2417 63.1872 46.5664 65.1669 47.6654C69.1335 49.8674 74.5972 51.8013 81.0899 53.5451C94.1698 57.0582 112.821 60.1579 135.546 62.7394C181.075 67.9115 243.812 71.0959 313 71.0959V59.0959C244.117 59.0959 181.854 55.9228 136.901 50.8161C114.384 48.2583 96.4241 45.2383 84.2026 41.9559C78.0446 40.302 73.6852 38.6692 70.9913 37.1737C69.6408 36.4239 69.0019 35.8671 68.7639 35.6008C68.5575 35.37 69 35.7643 69 36.6959H57ZM313 71.0959C382.188 71.0959 444.925 67.9115 490.454 62.7394C513.179 60.1579 531.83 57.0582 544.91 53.5451C551.403 51.8013 556.867 49.8674 560.833 47.6654C562.813 46.5664 564.713 45.2417 566.182 43.5986C567.683 41.9199 569 39.5882 569 36.6959H557C557 35.7643 557.442 35.37 557.236 35.6008C556.998 35.8671 556.359 36.4239 555.009 37.1737C552.315 38.6692 547.955 40.302 541.797 41.9559C529.576 45.2383 511.616 48.2583 489.099 50.8161C444.146 55.9228 381.883 59.0959 313 59.0959V71.0959ZM569 36.6959C569 32.3828 566.152 29.3919 563.753 27.5961C561.205 25.6884 557.809 24.0822 553.979 22.6734C546.248 19.8298 535.281 17.2708 521.85 14.9933C494.894 10.4225 456.909 6.8081 412.414 4.62282L411.825 16.6084C456.095 18.7826 493.551 22.3661 519.844 26.8244C533.037 29.0615 543.146 31.4749 549.836 33.9357C553.216 35.179 555.367 36.308 556.562 37.2027C557.907 38.2092 557 38.088 557 36.6959H569ZM407.296 7.04639C406.143 8.60443 404.951 10.1337 403.72 11.6327L412.994 19.2483C414.352 17.5939 415.669 15.9055 416.942 14.1848L407.296 7.04639ZM489.89 15.6205C466.797 12.9971 439.237 10.8867 408.639 9.4471L408.075 21.4338C438.478 22.8642 465.766 24.9572 488.535 27.5438L489.89 15.6205ZM543.613 24.6756C530.891 21.2587 512.527 18.1922 489.89 15.6205L488.535 27.5438C510.965 30.0918 528.637 33.0785 540.5 36.2649L543.613 24.6756ZM558.406 30.0981C554.969 28.1901 549.965 26.3817 543.613 24.6756L540.5 36.2649C546.52 37.8816 550.419 39.3889 552.582 40.5897L558.406 30.0981ZM561.405 32.1132C560.616 31.4462 559.623 30.7734 558.406 30.098L552.582 40.5898C553.288 40.9817 553.599 41.2277 553.659 41.2787L561.405 32.1132ZM558.406 43.2939C559.623 42.6186 560.616 41.9457 561.405 41.2787L553.659 32.1132C553.599 32.1642 553.288 32.4102 552.582 32.8021L558.406 43.2939ZM543.613 48.7163C549.965 47.0102 554.969 45.2018 558.406 43.2938L552.582 32.8022C550.419 34.003 546.52 35.5103 540.5 37.127L543.613 48.7163ZM489.89 57.7714C512.527 55.1997 530.891 52.1332 543.613 48.7163L540.5 37.127C528.637 40.3134 510.965 43.3001 488.535 45.8481L489.89 57.7714ZM327.127 66.0514C390.559 65.6502 447.704 62.5636 489.89 57.7714L488.535 45.8481C446.893 50.5786 390.195 53.6523 327.051 54.0516L327.127 66.0514ZM326.329 54.0998C321.182 54.7566 315.929 55.096 310.59 55.096V67.096C316.438 67.096 322.199 66.7242 327.848 66.0032L326.329 54.0998ZM310.59 55.096C305.154 55.096 299.806 54.744 294.568 54.0633L293.022 65.9632C298.771 66.7105 304.636 67.096 310.59 67.096V55.096ZM136.11 57.7714C177.157 62.4343 232.365 65.4821 293.743 66.013L293.847 54.0134C232.75 53.485 177.98 50.4506 137.465 45.8481L136.11 57.7714ZM82.3869 48.7163C95.1091 52.1332 113.473 55.1997 136.11 57.7714L137.465 45.8481C115.035 43.3001 97.3633 40.3134 85.4995 37.127L82.3869 48.7163ZM67.5937 43.2938C71.0305 45.2018 76.0346 47.0102 82.3869 48.7163L85.4995 37.127C79.48 35.5103 75.5813 34.003 73.4182 32.8022L67.5937 43.2938ZM64.5953 41.2787C65.3845 41.9456 66.3772 42.6185 67.5937 43.2938L73.4182 32.8022C72.7122 32.4102 72.4011 32.1642 72.3408 32.1132L64.5953 41.2787ZM67.5937 30.0981C66.3772 30.7734 65.3845 31.4463 64.5953 32.1132L72.3408 41.2787C72.4012 41.2277 72.7122 40.9817 73.4182 40.5897L67.5937 30.0981ZM82.3869 24.6756C76.0346 26.3817 71.0305 28.1901 67.5937 30.098L73.4182 40.5897C75.5813 39.3889 79.48 37.8816 85.4995 36.2649L82.3869 24.6756ZM136.11 15.6205C113.473 18.1922 95.1091 21.2587 82.3869 24.6756L85.4995 36.2649C97.3633 33.0785 115.035 30.0918 137.465 27.5438L136.11 15.6205ZM212.711 9.67222C183.969 11.1029 158.029 13.1306 136.11 15.6205L137.465 27.5438C159.074 25.089 184.755 23.0786 213.307 21.6574L212.711 9.67222ZM217.637 11.846C216.402 10.3502 215.206 8.8242 214.05 7.26933L204.421 14.431C205.698 16.1482 207.019 17.8329 208.381 19.4836L217.637 11.846Z" fill="#F3EA00" fill-opacity="0.66" mask="url(#path-1-outside-1_70_354)"/>
</g>
<g filter="url(#filter1_f_70_354)">
<mask id="path-3-outside-2_70_354" maskUnits="userSpaceOnUse" x="3" y="3" width="619" height="82" fill="black">
<rect fill="white" x="3" y="3" width="619" height="82"/>
<path fill-rule="evenodd" clip-rule="evenodd" d="M205.187 10C90.5301 15.0631 9 28.0035 9 43.1681C9 62.7453 144.882 78.6157 312.5 78.6157C480.118 78.6157 616 62.7453 616 43.1681C616 28.0783 535.272 15.1908 421.507 10.0755C419.895 11.7083 418.246 13.3047 416.561 14.8634C458.324 16.6479 495.751 19.4746 526.527 23.069C553.899 26.266 575.827 30.0501 590.819 34.1899C598.353 36.2705 603.849 38.365 607.355 40.3666C609.11 41.368 610.129 42.214 610.66 42.8245C610.786 42.9693 610.87 43.0834 610.925 43.1681C610.87 43.2527 610.786 43.3669 610.66 43.5116C610.129 44.1221 609.11 44.9682 607.355 45.9696C603.849 47.9711 598.353 50.0656 590.819 52.1463C575.827 56.2861 553.899 60.0702 526.527 63.2671C471.851 69.6531 396.178 73.6157 312.5 73.6157C228.822 73.6157 153.149 69.6531 98.4731 63.2671C71.1013 60.0702 49.1733 56.2861 34.1814 52.1463C26.6466 50.0656 21.1514 47.9711 17.6446 45.9696C15.8901 44.9682 14.8709 44.1221 14.3401 43.5116C14.2142 43.3669 14.13 43.2527 14.0746 43.1681C14.13 43.0834 14.2142 42.9693 14.3401 42.8245C14.8709 42.214 15.8901 41.368 17.6446 40.3666C21.1514 38.365 26.6466 36.2705 34.1814 34.1899C49.1733 30.0501 71.1013 26.266 98.4731 23.069C129.664 19.4261 167.687 16.5718 210.131 14.7918C208.447 13.2318 206.798 11.6341 205.187 10ZM611.025 42.9819C611.026 42.9819 611.024 42.9891 611.018 43.0037C611.021 42.9892 611.024 42.9819 611.025 42.9819ZM13.975 42.9819C13.9756 42.982 13.9787 42.9893 13.9824 43.0037C13.9763 42.9891 13.9745 42.9819 13.975 42.9819ZM13.975 43.3542C13.9745 43.3543 13.9763 43.3471 13.9824 43.3325C13.9787 43.3469 13.9756 43.3541 13.975 43.3542ZM611.018 43.3325C611.024 43.347 611.026 43.3542 611.025 43.3542C611.024 43.3542 611.021 43.3469 611.018 43.3325Z"/>
</mask>
<path fill-rule="evenodd" clip-rule="evenodd" d="M205.187 10C90.5301 15.0631 9 28.0035 9 43.1681C9 62.7453 144.882 78.6157 312.5 78.6157C480.118 78.6157 616 62.7453 616 43.1681C616 28.0783 535.272 15.1908 421.507 10.0755C419.895 11.7083 418.246 13.3047 416.561 14.8634C458.324 16.6479 495.751 19.4746 526.527 23.069C553.899 26.266 575.827 30.0501 590.819 34.1899C598.353 36.2705 603.849 38.365 607.355 40.3666C609.11 41.368 610.129 42.214 610.66 42.8245C610.786 42.9693 610.87 43.0834 610.925 43.1681C610.87 43.2527 610.786 43.3669 610.66 43.5116C610.129 44.1221 609.11 44.9682 607.355 45.9696C603.849 47.9711 598.353 50.0656 590.819 52.1463C575.827 56.2861 553.899 60.0702 526.527 63.2671C471.851 69.6531 396.178 73.6157 312.5 73.6157C228.822 73.6157 153.149 69.6531 98.4731 63.2671C71.1013 60.0702 49.1733 56.2861 34.1814 52.1463C26.6466 50.0656 21.1514 47.9711 17.6446 45.9696C15.8901 44.9682 14.8709 44.1221 14.3401 43.5116C14.2142 43.3669 14.13 43.2527 14.0746 43.1681C14.13 43.0834 14.2142 42.9693 14.3401 42.8245C14.8709 42.214 15.8901 41.368 17.6446 40.3666C21.1514 38.365 26.6466 36.2705 34.1814 34.1899C49.1733 30.0501 71.1013 26.266 98.4731 23.069C129.664 19.4261 167.687 16.5718 210.131 14.7918C208.447 13.2318 206.798 11.6341 205.187 10ZM611.025 42.9819C611.026 42.9819 611.024 42.9891 611.018 43.0037C611.021 42.9892 611.024 42.9819 611.025 42.9819ZM13.975 42.9819C13.9756 42.982 13.9787 42.9893 13.9824 43.0037C13.9763 42.9891 13.9745 42.9819 13.975 42.9819ZM13.975 43.3542C13.9745 43.3543 13.9763 43.3471 13.9824 43.3325C13.9787 43.3469 13.9756 43.3541 13.975 43.3542ZM611.018 43.3325C611.024 43.347 611.026 43.3542 611.025 43.3542C611.024 43.3542 611.021 43.3469 611.018 43.3325Z" fill="white"/>
<path d="M205.187 10L209.46 5.78754L207.587 3.88817L204.922 4.00584L205.187 10ZM421.507 10.0755L421.777 4.08155L419.112 3.96172L417.237 5.86004L421.507 10.0755ZM416.561 14.8634L412.486 10.4588L401.909 20.2429L416.304 20.858L416.561 14.8634ZM526.527 23.069L525.831 29.0285L525.831 29.0285L526.527 23.069ZM590.819 34.1899L592.416 28.4063L592.416 28.4063L590.819 34.1899ZM607.355 40.3666L604.381 45.5775L604.381 45.5776L607.355 40.3666ZM610.66 42.8245L615.188 38.8878L615.188 38.8877L610.66 42.8245ZM610.925 43.1681L615.945 46.4542L618.097 43.1681L615.945 39.882L610.925 43.1681ZM610.66 43.5116L615.188 47.4484L615.188 47.4484L610.66 43.5116ZM607.355 45.9696L604.381 40.7586L604.381 40.7586L607.355 45.9696ZM590.819 52.1463L592.416 57.9298L592.416 57.9298L590.819 52.1463ZM526.527 63.2671L525.831 57.3076L525.831 57.3076L526.527 63.2671ZM98.4731 63.2671L99.1692 57.3076L98.4731 63.2671ZM34.1814 52.1463L35.7785 46.3627L35.7785 46.3627L34.1814 52.1463ZM17.6446 45.9696L20.6188 40.7586L20.6188 40.7586L17.6446 45.9696ZM14.3401 43.5116L9.81228 47.4485L9.81232 47.4486L14.3401 43.5116ZM14.0746 43.1681L9.05495 39.8813L6.90282 43.1681L9.05495 46.4549L14.0746 43.1681ZM14.3401 42.8245L18.8678 46.7615L18.8678 46.7615L14.3401 42.8245ZM17.6446 40.3666L20.6188 45.5775L20.6188 45.5775L17.6446 40.3666ZM34.1814 34.1899L32.5844 28.4063L32.5844 28.4063L34.1814 34.1899ZM98.4731 23.069L99.1692 29.0285L98.4731 23.069ZM210.131 14.7918L210.382 20.7866L224.78 20.1828L214.208 10.39L210.131 14.7918ZM611.018 43.0037L605.214 41.4822L616.558 45.3065L611.018 43.0037ZM13.975 42.9819L13.4621 48.96L13.4625 48.96L13.975 42.9819ZM13.9824 43.0037L8.44573 45.3156L19.7855 41.4792L13.9824 43.0037ZM13.9824 43.3325L19.7855 44.857L8.44565 41.0208L13.9824 43.3325ZM611.018 43.3325L616.558 41.0286L605.214 44.8548L611.018 43.3325ZM204.922 4.00584C147.475 6.54265 98.1622 11.0582 63.1145 16.877C45.6372 19.7787 31.4365 23.0472 21.4834 26.6601C16.5428 28.4535 12.2888 30.4575 9.15864 32.7732C6.18889 34.9704 3 38.3893 3 43.1681H15C15 44.1557 14.3589 43.853 16.2957 42.4201C18.0722 41.1058 21.0835 39.5714 25.5778 37.94C34.4946 34.7033 47.8424 31.5768 65.0799 28.715C99.4615 23.0067 148.243 18.5204 205.452 15.9942L204.922 4.00584ZM3 43.1681C3 46.2488 4.36275 48.8013 6.03918 50.7293C7.68169 52.6183 9.85 54.1863 12.1918 55.5229C16.878 58.1977 23.4016 60.5812 31.2535 62.7494C47.0507 67.1116 69.6282 70.9729 97.197 74.1928C152.415 80.6421 228.534 84.6157 312.5 84.6157V72.6157C228.848 72.6157 153.216 68.6541 98.5891 62.2739C71.2352 59.079 49.3663 55.302 34.4476 51.1823C26.9416 49.1097 21.5398 47.0414 18.1403 45.1011C16.4392 44.1301 15.5245 43.3497 15.0947 42.8555C14.6988 42.4002 15 42.5345 15 43.1681H3ZM312.5 84.6157C396.466 84.6157 472.585 80.6421 527.803 74.1928C555.372 70.9729 577.949 67.1116 593.747 62.7494C601.598 60.5812 608.122 58.1977 612.808 55.5229C615.15 54.1863 617.318 52.6183 618.961 50.7293C620.637 48.8013 622 46.2488 622 43.1681H610C610 42.5345 610.301 42.4002 609.905 42.8555C609.476 43.3497 608.561 44.1301 606.86 45.1011C603.46 47.0414 598.058 49.1097 590.552 51.1823C575.634 55.302 553.765 59.079 526.411 62.2739C471.784 68.6541 396.152 72.6157 312.5 72.6157V84.6157ZM622 43.1681C622 38.412 618.84 35.003 615.889 32.8087C612.783 30.4988 608.562 28.5011 603.665 26.7142C593.8 23.1144 579.726 19.8572 562.404 16.9634C527.668 11.1601 478.778 6.64455 421.777 4.08155L421.238 16.0694C478.001 18.6217 526.358 23.1076 560.427 28.7993C577.508 31.653 590.726 34.7667 599.552 37.9872C604.001 39.6105 606.976 41.1353 608.729 42.4384C610.637 43.8571 610 44.1517 610 43.1681H622ZM417.237 5.86004C415.689 7.42828 414.105 8.96162 412.486 10.4588L420.635 19.2681C422.386 17.6478 424.101 15.9883 425.777 14.2909L417.237 5.86004ZM527.223 17.1096C496.266 13.4939 458.686 10.6579 416.817 8.8689L416.304 20.858C457.961 22.6379 495.237 25.4553 525.831 29.0285L527.223 17.1096ZM592.416 28.4063C576.984 24.1452 554.702 20.319 527.223 17.1096L525.831 29.0285C553.095 32.2129 574.669 35.9549 589.222 39.9734L592.416 28.4063ZM610.33 35.1557C606.179 32.7867 600.123 30.5345 592.416 28.4063L589.222 39.9734C596.584 42.0065 601.518 43.9434 604.381 45.5775L610.33 35.1557ZM615.188 38.8877C614.05 37.579 612.403 36.3392 610.33 35.1556L604.381 45.5776C605.066 45.9686 605.53 46.2852 605.823 46.5095C606.128 46.7425 606.196 46.8347 606.132 46.7614L615.188 38.8877ZM615.945 39.882C615.721 39.5391 615.467 39.2086 615.188 38.8878L606.132 46.7612C606.105 46.73 606.019 46.6278 605.905 46.4542L615.945 39.882ZM615.188 47.4484C615.467 47.1276 615.721 46.7972 615.945 46.4542L605.905 39.882C606.019 39.7083 606.105 39.6061 606.132 39.5748L615.188 47.4484ZM610.33 51.1805C612.403 49.997 614.05 48.7571 615.188 47.4484L606.132 39.5748C606.196 39.5015 606.128 39.5937 605.823 39.8266C605.53 40.0509 605.066 40.3675 604.381 40.7586L610.33 51.1805ZM592.416 57.9298C600.123 55.8016 606.179 53.5495 610.33 51.1805L604.381 40.7586C601.518 42.3928 596.584 44.3296 589.222 46.3627L592.416 57.9298ZM527.223 69.2266C554.702 66.0171 576.984 62.1909 592.416 57.9298L589.222 46.3627C574.669 50.3812 553.095 54.1232 525.831 57.3076L527.223 69.2266ZM312.5 79.6157C396.335 79.6157 472.251 75.6471 527.223 69.2266L525.831 57.3076C471.45 63.6591 396.021 67.6157 312.5 67.6157V79.6157ZM97.7771 69.2266C152.749 75.6471 228.665 79.6157 312.5 79.6157V67.6157C228.979 67.6157 153.55 63.6591 99.1692 57.3076L97.7771 69.2266ZM32.5844 57.9298C48.0156 62.1909 70.2979 66.0171 97.7771 69.2266L99.1692 57.3076C71.9047 54.1232 50.3311 50.3812 35.7785 46.3627L32.5844 57.9298ZM14.6703 51.1805C18.8209 53.5495 24.8774 55.8016 32.5844 57.9298L35.7785 46.3627C28.4158 44.3296 23.4819 42.3928 20.6188 40.7586L14.6703 51.1805ZM9.81232 47.4486C10.9501 48.7571 12.5967 49.9969 14.6703 51.1805L20.6188 40.7586C19.9337 40.3676 19.4701 40.0509 19.1765 39.8266C18.8717 39.5937 18.8041 39.5014 18.8678 39.5747L9.81232 47.4486ZM9.05495 46.4549C9.27901 46.797 9.53302 47.1273 9.81228 47.4485L18.8678 39.5747C18.8954 39.6064 18.9811 39.7084 19.0943 39.8813L9.05495 46.4549ZM9.81234 38.8876C9.53299 39.2088 9.27898 39.5391 9.05495 39.8813L19.0943 46.4549C18.9811 46.6277 18.8954 46.7297 18.8678 46.7615L9.81234 38.8876ZM14.6703 35.1556C12.5967 36.3392 10.9501 37.579 9.81232 38.8876L18.8678 46.7615C18.8041 46.8347 18.8717 46.7425 19.1765 46.5096C19.4701 46.2852 19.9337 45.9686 20.6188 45.5775L14.6703 35.1556ZM32.5844 28.4063C24.8774 30.5345 18.8209 32.7867 14.6703 35.1556L20.6188 45.5775C23.4819 43.9434 28.4158 42.0065 35.7785 39.9734L32.5844 28.4063ZM97.7771 17.1096C70.2979 20.319 48.0156 24.1452 32.5844 28.4063L35.7785 39.9734C50.3311 35.9549 71.9047 32.2129 99.1692 29.0285L97.7771 17.1096ZM209.879 8.7971C167.328 10.5816 129.151 13.4452 97.7771 17.1096L99.1692 29.0285C130.176 25.4071 168.045 22.562 210.382 20.7866L209.879 8.7971ZM214.208 10.39C212.59 8.8916 211.007 7.35701 209.46 5.78754L200.915 14.2125C202.589 15.9111 204.303 17.572 206.054 19.1937L214.208 10.39ZM611.025 48.9819C609.135 48.9819 607.543 48.1101 606.517 46.9414C605.659 45.9644 605.343 44.9668 605.224 44.5129C604.983 43.6013 605.024 42.8554 605.032 42.6903C605.057 42.1887 605.141 41.8034 605.16 41.7178C605.219 41.4421 605.286 41.2321 605.31 41.155C605.375 40.955 605.437 40.7978 605.477 40.7008L616.558 45.3065C616.604 45.195 616.671 45.0269 616.737 44.8197C616.763 44.739 616.83 44.5263 616.89 44.2488C616.909 44.1623 616.993 43.7763 617.018 43.2742C617.026 43.1089 617.067 42.3629 616.826 41.4511C616.707 40.9972 616.391 39.9996 615.533 39.0225C614.507 37.8538 612.915 36.9819 611.025 36.9819V48.9819ZM616.821 44.5252C616.789 44.6484 616.74 44.8181 616.669 45.0174C616.639 45.1012 616.571 45.2847 616.466 45.5106C616.425 45.5981 616.301 45.8629 616.102 46.1795C616.017 46.3141 615.781 46.6815 615.401 47.0873C615.212 47.2883 614.839 47.6601 614.287 48.018C613.789 48.3401 612.641 48.9819 611.025 48.9819V36.9819C609.409 36.9819 608.261 37.6238 607.763 37.9459C607.211 38.3038 606.838 38.6757 606.649 38.8768C606.268 39.2827 606.032 39.6503 605.947 39.7851C605.748 40.1021 605.623 40.3677 605.582 40.456C605.477 40.6837 605.408 40.87 605.376 40.9574C605.302 41.164 605.25 41.3445 605.214 41.4822L616.821 44.5252ZM13.4625 48.96C12.0234 48.8366 11.0219 48.2325 10.5784 47.9279C10.0826 47.5874 9.74355 47.2439 9.56431 47.0495C9.20575 46.6607 8.981 46.3113 8.89543 46.1752C8.69946 45.8634 8.57695 45.6027 8.53535 45.5132C8.43016 45.287 8.36222 45.1032 8.33192 45.0189C8.26014 44.8195 8.21136 44.6501 8.17933 44.5281L19.7855 41.4792C19.7497 41.3429 19.6975 41.1626 19.6231 40.9559C19.5915 40.8681 19.5225 40.6815 19.4165 40.4534C19.3744 40.3631 19.2516 40.1017 19.0553 39.7894C18.9696 39.6531 18.7447 39.3035 18.386 38.9146C18.2067 38.7201 17.8677 38.3766 17.3718 38.036C16.9282 37.7314 15.9267 37.1273 14.4876 37.0039L13.4625 48.96ZM19.5191 40.6917C19.5599 40.7894 19.6235 40.949 19.6888 41.1526C19.7137 41.2299 19.7824 41.4469 19.8432 41.7322C19.8612 41.8164 19.951 42.2265 19.9708 42.7598C19.9769 42.9249 20.0156 43.7513 19.71 44.7453C19.5541 45.2523 19.1511 46.3362 18.117 47.3229C16.8784 48.5047 15.1856 49.1079 13.4621 48.96L14.488 37.0039C12.7644 36.856 11.0716 37.4592 9.83297 38.641C8.79888 39.6277 8.39579 40.7117 8.23991 41.2187C7.93426 42.2128 7.97293 43.0394 7.97906 43.2047C7.99886 43.7385 8.08883 44.1493 8.10698 44.2344C8.16819 44.5215 8.23764 44.7411 8.26365 44.8221C8.33133 45.0328 8.39888 45.2034 8.44573 45.3156L19.5191 40.6917ZM13.4238 37.3796C15.1413 37.2211 16.845 37.8094 18.099 38.9962C19.145 39.986 19.552 41.078 19.7088 41.5871C20.0164 42.5852 19.9769 43.4154 19.9707 43.5793C19.9506 44.1127 19.8605 44.523 19.8426 44.6066C19.7818 44.8913 19.7132 45.1078 19.6884 45.1848C19.6232 45.3877 19.5599 45.5468 19.5192 45.6442L8.44565 41.0208C8.39892 41.1327 8.33157 41.3027 8.26405 41.5128C8.23814 41.5934 8.16876 41.8126 8.10754 42.0991C8.08948 42.1837 7.99924 42.5946 7.97917 43.1285C7.973 43.2926 7.93344 44.123 8.24106 45.1212C8.39796 45.6303 8.80496 46.7224 9.85094 47.7122C11.105 48.899 12.8087 49.4873 14.5262 49.3288L13.4238 37.3796ZM8.17934 41.808C8.21154 41.6854 8.26046 41.5157 8.33235 41.316C8.36275 41.2316 8.43062 41.0481 8.5356 40.8224C8.57719 40.7329 8.69919 40.4735 8.89413 40.1631C8.97934 40.0274 9.20249 39.6802 9.55808 39.2934C9.73583 39.1001 10.0717 38.7586 10.5625 38.4192C11.0005 38.1163 11.9934 37.5115 13.4238 37.3796L14.5262 49.3288C15.9567 49.1969 16.9496 48.5921 17.3877 48.2892C17.8786 47.9497 18.2145 47.6082 18.3923 47.4148C18.748 47.0279 18.9712 46.6805 19.0566 46.5446C19.2518 46.2337 19.3742 45.9736 19.4162 45.8832C19.522 45.6557 19.591 45.4695 19.6227 45.3814C19.6972 45.1745 19.7496 44.9939 19.7855 44.857L8.17934 41.808ZM605.478 45.6364C605.437 45.5395 605.375 45.3824 605.311 45.1825C605.286 45.1054 605.22 44.8954 605.16 44.6195C605.142 44.5338 605.057 44.1482 605.032 43.6461C605.024 43.4809 604.983 42.7342 605.224 41.8218C605.344 41.3672 605.66 40.3694 606.519 39.3924C607.546 38.224 609.137 37.3542 611.025 37.3542V49.3542C612.913 49.3542 614.504 48.4844 615.531 47.3159C616.39 46.339 616.706 45.341 616.826 44.8865C617.067 43.9739 617.026 43.2271 617.018 43.0616C616.993 42.559 616.908 42.1728 616.89 42.0862C616.83 41.8085 616.763 41.5958 616.737 41.5151C616.67 41.308 616.604 41.14 616.558 41.0286L605.478 45.6364ZM611.025 37.3542C612.639 37.3542 613.787 37.9947 614.284 38.3166C614.837 38.6741 615.21 39.0456 615.398 39.2467C615.779 39.6523 616.016 40.0198 616.1 40.1544C616.3 40.4711 616.424 40.7361 616.465 40.8237C616.57 41.0497 616.638 41.2334 616.668 41.3174C616.74 41.5169 616.789 41.6868 616.821 41.8102L605.214 44.8548C605.25 44.9926 605.302 45.1733 605.377 45.3801C605.408 45.4677 605.477 45.6542 605.583 45.882C605.624 45.9705 605.749 46.2362 605.949 46.5533C606.034 46.6882 606.27 47.0558 606.651 47.4615C606.84 47.6627 607.213 48.0342 607.766 48.3918C608.263 48.7137 609.411 49.3542 611.025 49.3542V37.3542Z" fill="#F3EA00" fill-opacity="0.66" mask="url(#path-3-outside-2_70_354)"/>
</g>
<defs>
<filter id="filter0_f_70_354" x="54" y="1.46533" width="518" height="72.6306" filterUnits="userSpaceOnUse" color-interpolation-filters="sRGB">
<feFlood flood-opacity="0" result="BackgroundImageFix"/>
<feBlend mode="normal" in="SourceGraphic" in2="BackgroundImageFix" result="shape"/>
<feGaussianBlur stdDeviation="1.5" result="effect1_foregroundBlur_70_354"/>
</filter>
<filter id="filter1_f_70_354" x="0" y="0.888184" width="625" height="86.7275" filterUnits="userSpaceOnUse" color-interpolation-filters="sRGB">
<feFlood flood-opacity="0" result="BackgroundImageFix"/>
<feBlend mode="normal" in="SourceGraphic" in2="BackgroundImageFix" result="shape"/>
<feGaussianBlur stdDeviation="1.5" result="effect1_foregroundBlur_70_354"/>
</filter>
</defs>
</svg>
