<svg width="659" height="1131" viewBox="0 0 659 1131" fill="none" xmlns="http://www.w3.org/2000/svg">
<path fill-rule="evenodd" clip-rule="evenodd" d="M549 285C567.778 285 583 269.778 583 251C583 269.778 598.222 285 617 285C598.222 285 583 300.222 583 319C583 300.222 567.778 285 549 285Z" fill="black"/>
<path fill-rule="evenodd" clip-rule="evenodd" d="M580 700C598.778 700 614 684.778 614 666C614 684.778 629.222 700 648 700C629.222 700 614 715.222 614 734C614 715.222 598.778 700 580 700Z" fill="black"/>
<g filter="url(#filter0_f_0_1)">
<g filter="url(#filter1_f_0_1)">
<ellipse cx="-322.977" cy="585.832" rx="290.977" ry="264.027" fill="#0057FF" fill-opacity="0.27"/>
</g>
</g>
<g filter="url(#filter2_f_0_1)">
<g filter="url(#filter3_f_0_1)">
<ellipse cx="-235.995" cy="534.458" rx="290.977" ry="270.764" transform="rotate(-6.18815 -235.995 534.458)" fill="#AD00FF" fill-opacity="0.27"/>
</g>
<g filter="url(#filter4_f_0_1)">
<ellipse cx="-178.121" cy="419.751" rx="290.977" ry="264.027" transform="rotate(-6.18815 -178.121 419.751)" fill="#0057FF" fill-opacity="0.27"/>
</g>
</g>
<g filter="url(#filter5_i_0_1)">
<circle cx="570.5" cy="524.5" r="24.5" fill="#D9D9D9"/>
</g>
<g filter="url(#filter6_i_0_1)">
<circle cx="577.5" cy="514.5" r="8.5" fill="#989898"/>
</g>
<g filter="url(#filter7_i_0_1)">
<ellipse cx="576" cy="534.5" rx="10" ry="9.5" fill="#989898"/>
</g>
<g filter="url(#filter8_i_0_1)">
<ellipse cx="555.193" cy="517.365" rx="6.5" ry="5" transform="rotate(-78.5291 555.193 517.365)" fill="#989898"/>
</g>
<g filter="url(#filter9_f_0_1)">
<path d="M371.003 494.725C365.254 502.484 352.936 498.395 352.968 488.738L354.151 138.413C354.174 131.607 360.842 126.812 367.302 128.956L574.687 197.806C581.146 199.95 583.623 207.781 579.571 213.25L371.003 494.725Z" fill="#FFF621"/>
<path d="M568.285 208.325L364.989 482.686L366.142 141.215L568.285 208.325Z" stroke="#FF0000" stroke-width="24"/>
</g>
<g filter="url(#filter10_f_0_1)">
<path d="M298.415 636.343C304.436 628.793 316.601 633.316 316.227 642.966L302.633 993.029C302.369 999.83 295.535 1004.39 289.156 1002.01L84.3401 925.86C77.9605 923.488 75.7631 915.574 80.0064 910.253L298.415 636.343Z" fill="#FFF621"/>
<path d="M91.1105 915.575L303.999 648.589L290.75 989.804L91.1105 915.575Z" stroke="#FF0000" stroke-width="24"/>
</g>
<ellipse cx="305.206" cy="650.79" rx="7.85752" ry="3.5716" transform="rotate(-165.406 305.206 650.79)" fill="#F0FF49"/>
<path d="M298.086 648.936C298.255 648.288 299.049 647.699 300.551 647.438C302.005 647.186 303.933 647.284 305.98 647.817C308.027 648.35 309.758 649.205 310.904 650.134C312.089 651.094 312.495 651.995 312.326 652.643C312.157 653.291 311.364 653.88 309.861 654.141C308.407 654.393 306.479 654.295 304.432 653.762C302.385 653.229 300.654 652.375 299.508 651.445C298.323 650.485 297.917 649.584 298.086 648.936Z" stroke="#FF0000" stroke-opacity="0.44"/>
<ellipse cx="307.907" cy="643.745" rx="16.2696" ry="7.39526" transform="rotate(-165.406 307.907 643.745)" fill="#A84E0D"/>
<ellipse cx="312.003" cy="633.921" rx="27.5" ry="12.5" transform="rotate(-165.591 312.003 633.921)" fill="#674A00"/>
<path d="M212.312 875.185C212.819 875.404 213.052 875.993 212.833 876.5L209.265 884.762C209.046 885.269 208.458 885.503 207.951 885.284L202.442 882.905C201.935 882.686 201.702 882.098 201.921 881.591L205.489 873.328C205.708 872.821 206.296 872.588 206.803 872.807L212.312 875.185Z" fill="#C89A23"/>
<path d="M215.191 878.607C215.698 878.826 215.931 879.415 215.713 879.922L212.145 888.184C211.926 888.691 211.337 888.925 210.83 888.706L205.322 886.327C204.815 886.108 204.581 885.52 204.8 885.013L208.368 876.75C208.587 876.243 209.176 876.01 209.683 876.228L215.191 878.607Z" fill="#937423"/>
<path d="M206.666 875.644C207.192 875.474 207.755 875.763 207.925 876.289L210.686 884.855C210.855 885.38 210.567 885.944 210.041 886.113L204.33 887.954C203.805 888.124 203.241 887.835 203.072 887.309L200.311 878.743C200.141 878.218 200.43 877.654 200.956 877.485L206.666 875.644Z" fill="#6C3E2A" fill-opacity="0.92"/>
<path d="M314.287 853.234C314.302 853.787 313.866 854.246 313.314 854.261L304.317 854.506C303.765 854.521 303.306 854.086 303.291 853.534L303.127 847.536C303.112 846.984 303.548 846.524 304.1 846.509L313.096 846.264C313.649 846.249 314.108 846.685 314.123 847.237L314.287 853.234Z" fill="#C89A23"/>
<path d="M312.396 857.287C312.411 857.839 311.976 858.299 311.424 858.314L302.427 858.559C301.875 858.574 301.415 858.139 301.4 857.587L301.237 851.589C301.222 851.037 301.657 850.577 302.209 850.562L311.206 850.317C311.758 850.302 312.218 850.738 312.233 851.29L312.396 857.287Z" fill="#937423"/>
<path d="M311.492 848.308C311.868 848.713 311.843 849.346 311.438 849.721L304.832 855.834C304.427 856.209 303.794 856.184 303.419 855.779L299.344 851.375C298.969 850.97 298.993 850.337 299.399 849.962L306.004 843.849C306.409 843.474 307.042 843.499 307.417 843.904L311.492 848.308Z" fill="#6C3E2A" fill-opacity="0.92"/>
<path d="M172.302 879.085C171.987 879.131 171.695 878.913 171.65 878.598L170.91 873.469C170.864 873.155 171.082 872.863 171.397 872.817L174.816 872.324C175.131 872.278 175.423 872.497 175.468 872.811L176.208 877.94C176.254 878.254 176.036 878.546 175.721 878.592L172.302 879.085Z" fill="#C89A23"/>
<path d="M169.858 878.275C169.543 878.32 169.252 878.102 169.206 877.787L168.466 872.659C168.42 872.344 168.639 872.052 168.953 872.007L172.372 871.513C172.687 871.468 172.979 871.686 173.024 872.001L173.765 877.129C173.81 877.444 173.592 877.736 173.277 877.781L169.858 878.275Z" fill="#937423"/>
<path d="M174.933 877.159C174.726 877.4 174.363 877.429 174.121 877.222L170.185 873.852C169.943 873.646 169.915 873.282 170.122 873.041L172.368 870.416C172.575 870.175 172.938 870.147 173.18 870.353L177.116 873.723C177.358 873.93 177.386 874.293 177.179 874.535L174.933 877.159Z" fill="#6C3E2A" fill-opacity="0.92"/>
<path d="M174.145 908.827C174.329 909.086 174.268 909.446 174.009 909.63L169.785 912.63C169.525 912.814 169.166 912.753 168.982 912.494L166.982 909.678C166.797 909.419 166.858 909.059 167.118 908.875L171.342 905.875C171.601 905.69 171.961 905.751 172.145 906.011L174.145 908.827Z" fill="#C89A23"/>
<path d="M174.54 911.371C174.724 911.63 174.663 911.99 174.404 912.174L170.179 915.174C169.92 915.359 169.561 915.298 169.377 915.038L167.376 912.222C167.192 911.963 167.253 911.603 167.512 911.419L171.737 908.419C171.996 908.235 172.355 908.296 172.54 908.555L174.54 911.371Z" fill="#937423"/>
<path d="M171.23 907.366C171.539 907.44 171.73 907.75 171.657 908.059L170.456 913.1C170.383 913.409 170.072 913.6 169.763 913.527L166.402 912.727C166.093 912.653 165.902 912.342 165.976 912.033L167.176 906.992C167.25 906.683 167.56 906.492 167.869 906.566L171.23 907.366Z" fill="#6C3E2A" fill-opacity="0.92"/>
<path d="M301.443 919.275C301.129 919.32 300.837 919.102 300.791 918.787L300.051 913.659C300.005 913.344 300.224 913.052 300.538 913.007L303.957 912.513C304.272 912.468 304.564 912.686 304.609 913.001L305.35 918.129C305.395 918.444 305.177 918.736 304.862 918.781L301.443 919.275Z" fill="#C89A23"/>
<path d="M299 918.464C298.685 918.51 298.393 918.291 298.347 917.977L297.607 912.848C297.562 912.534 297.78 912.242 298.095 912.196L301.514 911.703C301.828 911.657 302.12 911.875 302.166 912.19L302.906 917.319C302.951 917.633 302.733 917.925 302.418 917.971L299 918.464Z" fill="#937423"/>
<path d="M304.074 917.348C303.868 917.59 303.504 917.618 303.263 917.411L299.326 914.042C299.085 913.835 299.056 913.472 299.263 913.23L301.509 910.606C301.716 910.364 302.08 910.336 302.321 910.543L306.258 913.912C306.499 914.119 306.527 914.482 306.321 914.724L304.074 917.348Z" fill="#6C3E2A" fill-opacity="0.92"/>
<path d="M263.94 901.289C263.625 901.334 263.334 901.116 263.288 900.801L262.548 895.673C262.502 895.358 262.721 895.066 263.035 895.021L266.454 894.527C266.769 894.482 267.061 894.7 267.106 895.015L267.847 900.143C267.892 900.458 267.674 900.75 267.359 900.795L263.94 901.289Z" fill="#C89A23"/>
<path d="M261.496 900.478C261.182 900.524 260.89 900.305 260.844 899.991L260.104 894.862C260.058 894.547 260.277 894.255 260.591 894.21L264.01 893.716C264.325 893.671 264.617 893.889 264.662 894.204L265.403 899.332C265.448 899.647 265.23 899.939 264.915 899.985L261.496 900.478Z" fill="#937423"/>
<path d="M266.571 899.362C266.364 899.604 266.001 899.632 265.759 899.425L261.823 896.056C261.581 895.849 261.553 895.485 261.76 895.244L264.006 892.62C264.213 892.378 264.576 892.35 264.818 892.557L268.754 895.926C268.996 896.133 269.024 896.496 268.817 896.738L266.571 899.362Z" fill="#6C3E2A" fill-opacity="0.92"/>
<path d="M273.683 868.345C273.698 868.897 273.262 869.357 272.71 869.372L263.714 869.617C263.162 869.632 262.702 869.196 262.687 868.644L262.524 862.647C262.509 862.094 262.944 861.635 263.496 861.62L272.493 861.375C273.045 861.36 273.504 861.795 273.52 862.347L273.683 868.345Z" fill="#C89A23"/>
<path d="M271.792 872.398C271.807 872.95 271.372 873.41 270.82 873.425L261.823 873.67C261.271 873.685 260.811 873.249 260.796 872.697L260.633 866.699C260.618 866.147 261.054 865.688 261.606 865.673L270.602 865.428C271.154 865.413 271.614 865.848 271.629 866.4L271.792 872.398Z" fill="#937423"/>
<path d="M270.889 863.418C271.264 863.824 271.239 864.456 270.834 864.831L264.228 870.944C263.823 871.319 263.19 871.295 262.815 870.889L258.74 866.486C258.365 866.08 258.389 865.448 258.795 865.073L265.4 858.96C265.806 858.585 266.438 858.609 266.813 859.015L270.889 863.418Z" fill="#6C3E2A" fill-opacity="0.92"/>
<path d="M228.86 914.409C229.186 914.588 229.307 914.993 229.131 915.312L226.261 920.52C226.085 920.84 225.678 920.954 225.353 920.774L221.815 918.825C221.489 918.645 221.368 918.241 221.544 917.921L224.415 912.713C224.591 912.393 224.997 912.28 225.323 912.459L228.86 914.409Z" fill="#C89A23"/>
<path d="M230.581 916.866C230.907 917.045 231.028 917.45 230.852 917.769L227.981 922.977C227.805 923.297 227.399 923.411 227.073 923.231L223.536 921.282C223.21 921.102 223.089 920.698 223.265 920.378L226.135 915.17C226.311 914.85 226.718 914.737 227.043 914.916L230.581 916.866Z" fill="#937423"/>
<path d="M225.064 914.322C225.425 914.247 225.784 914.476 225.866 914.835L227.204 920.679C227.286 921.038 227.06 921.39 226.699 921.466L222.778 922.287C222.417 922.363 222.057 922.134 221.975 921.775L220.637 915.931C220.555 915.572 220.781 915.22 221.142 915.144L225.064 914.322Z" fill="#6C3E2A" fill-opacity="0.92"/>
<path d="M306.614 662.529C306.433 662.487 306.32 662.308 306.362 662.131L307.04 659.235C307.081 659.058 307.262 658.948 307.443 658.991L309.409 659.451C309.59 659.493 309.703 659.672 309.662 659.849L308.984 662.744C308.942 662.922 308.762 663.032 308.581 662.989L306.614 662.529Z" fill="#C89A23"/>
<path d="M305.454 661.579C305.273 661.536 305.16 661.358 305.202 661.18L305.879 658.285C305.921 658.108 306.102 657.998 306.283 658.04L308.249 658.501C308.43 658.543 308.543 658.721 308.501 658.899L307.824 661.794C307.782 661.972 307.602 662.081 307.421 662.039L305.454 661.579Z" fill="#937423"/>
<path d="M308.454 662.057C308.29 662.142 308.086 662.081 307.998 661.919L306.564 659.286C306.476 659.125 306.538 658.925 306.701 658.84L308.478 657.914C308.641 657.829 308.845 657.891 308.933 658.052L310.367 660.685C310.455 660.846 310.394 661.046 310.23 661.132L308.454 662.057Z" fill="#6C3E2A" fill-opacity="0.92"/>
<path d="M242.341 800.329C242.16 800.287 242.047 800.108 242.088 799.931L242.766 797.036C242.807 796.858 242.988 796.748 243.169 796.791L245.135 797.251C245.316 797.293 245.429 797.472 245.388 797.649L244.71 800.544C244.668 800.722 244.488 800.832 244.307 800.789L242.341 800.329Z" fill="#C89A23"/>
<path d="M241.18 799.379C240.999 799.336 240.886 799.158 240.928 798.98L241.606 796.085C241.647 795.908 241.828 795.798 242.009 795.84L243.975 796.301C244.156 796.343 244.269 796.521 244.227 796.699L243.55 799.594C243.508 799.772 243.328 799.881 243.147 799.839L241.18 799.379Z" fill="#937423"/>
<path d="M244.18 799.857C244.016 799.943 243.812 799.881 243.724 799.719L242.29 797.087C242.202 796.925 242.264 796.725 242.427 796.64L244.204 795.714C244.367 795.629 244.571 795.691 244.659 795.852L246.093 798.485C246.181 798.646 246.12 798.847 245.956 798.932L244.18 799.857Z" fill="#6C3E2A" fill-opacity="0.92"/>
<path d="M182.519 826.81C182.534 827.362 182.098 827.822 181.546 827.837L172.55 828.082C171.998 828.097 171.538 827.662 171.523 827.11L171.36 821.112C171.344 820.56 171.78 820.1 172.332 820.085L181.329 819.84C181.881 819.825 182.34 820.261 182.355 820.813L182.519 826.81Z" fill="#C89A23"/>
<path d="M180.628 830.863C180.643 831.415 180.208 831.875 179.656 831.89L170.659 832.135C170.107 832.15 169.647 831.715 169.632 831.163L169.469 825.165C169.454 824.613 169.889 824.153 170.442 824.138L179.438 823.893C179.99 823.878 180.45 824.314 180.465 824.866L180.628 830.863Z" fill="#937423"/>
<path d="M179.725 821.884C180.1 822.289 180.075 822.922 179.67 823.297L173.064 829.41C172.659 829.785 172.026 829.76 171.651 829.355L167.576 824.951C167.201 824.546 167.225 823.913 167.631 823.538L174.236 817.425C174.642 817.05 175.274 817.075 175.649 817.48L179.725 821.884Z" fill="#6C3E2A" fill-opacity="0.92"/>
<path d="M241.851 838.2C241.866 838.752 241.43 839.212 240.878 839.227L231.882 839.472C231.33 839.487 230.87 839.051 230.855 838.499L230.692 832.502C230.677 831.95 231.112 831.49 231.664 831.475L240.661 831.23C241.213 831.215 241.672 831.65 241.687 832.202L241.851 838.2Z" fill="#C89A23"/>
<path d="M239.96 842.253C239.975 842.805 239.54 843.265 238.988 843.28L229.991 843.525C229.439 843.54 228.979 843.104 228.964 842.552L228.801 836.555C228.786 836.002 229.221 835.543 229.774 835.528L238.77 835.283C239.322 835.268 239.782 835.703 239.797 836.255L239.96 842.253Z" fill="#937423"/>
<path d="M239.057 833.273C239.432 833.679 239.407 834.311 239.002 834.686L232.396 840.799C231.991 841.174 231.358 841.15 230.983 840.745L226.908 836.341C226.533 835.936 226.557 835.303 226.963 834.928L233.568 828.815C233.974 828.44 234.606 828.464 234.981 828.87L239.057 833.273Z" fill="#6C3E2A" fill-opacity="0.92"/>
<path d="M272.922 827.017C272.608 827.062 272.316 826.844 272.27 826.529L271.53 821.401C271.484 821.086 271.703 820.794 272.017 820.749L275.436 820.255C275.751 820.21 276.043 820.428 276.088 820.743L276.829 825.871C276.874 826.186 276.656 826.478 276.341 826.523L272.922 827.017Z" fill="#C89A23"/>
<path d="M270.479 826.206C270.164 826.252 269.872 826.033 269.826 825.719L269.086 820.59C269.041 820.276 269.259 819.984 269.574 819.938L272.993 819.445C273.307 819.399 273.599 819.617 273.645 819.932L274.385 825.06C274.43 825.375 274.212 825.667 273.897 825.713L270.479 826.206Z" fill="#937423"/>
<path d="M275.553 825.09C275.347 825.332 274.983 825.36 274.742 825.153L270.805 821.784C270.564 821.577 270.535 821.214 270.742 820.972L272.988 818.348C273.195 818.106 273.559 818.078 273.8 818.285L277.737 821.654C277.978 821.861 278.006 822.224 277.8 822.466L275.553 825.09Z" fill="#6C3E2A" fill-opacity="0.92"/>
<path d="M218.825 800.813C218.84 801.365 218.405 801.825 217.852 801.84L208.856 802.085C208.304 802.1 207.844 801.664 207.829 801.112L207.666 795.114C207.651 794.562 208.086 794.103 208.638 794.088L217.635 793.843C218.187 793.828 218.647 794.263 218.662 794.815L218.825 800.813Z" fill="#C89A23"/>
<path d="M216.934 804.866C216.949 805.418 216.514 805.878 215.962 805.893L206.965 806.138C206.413 806.153 205.954 805.717 205.939 805.165L205.775 799.167C205.76 798.615 206.196 798.156 206.748 798.14L215.744 797.896C216.296 797.881 216.756 798.316 216.771 798.868L216.934 804.866Z" fill="#937423"/>
<path d="M216.031 795.886C216.406 796.291 216.381 796.924 215.976 797.299L209.371 803.412C208.965 803.787 208.332 803.763 207.957 803.357L203.882 798.954C203.507 798.548 203.532 797.916 203.937 797.54L210.542 791.428C210.948 791.053 211.58 791.077 211.956 791.482L216.031 795.886Z" fill="#6C3E2A" fill-opacity="0.92"/>
<path d="M269.336 745.418C269.351 745.97 268.916 746.43 268.364 746.445L259.367 746.69C258.815 746.705 258.355 746.269 258.34 745.717L258.177 739.719C258.162 739.167 258.597 738.707 259.149 738.692L268.146 738.448C268.698 738.433 269.158 738.868 269.173 739.42L269.336 745.418Z" fill="#C89A23"/>
<path d="M267.446 749.471C267.461 750.023 267.025 750.483 266.473 750.498L257.477 750.742C256.925 750.757 256.465 750.322 256.45 749.77L256.286 743.772C256.271 743.22 256.707 742.76 257.259 742.745L266.256 742.5C266.808 742.485 267.267 742.921 267.282 743.473L267.446 749.471Z" fill="#937423"/>
<path d="M266.542 740.491C266.917 740.896 266.893 741.529 266.487 741.904L259.882 748.017C259.476 748.392 258.844 748.368 258.469 747.962L254.393 743.559C254.018 743.153 254.043 742.521 254.448 742.145L261.054 736.033C261.459 735.657 262.092 735.682 262.467 736.087L266.542 740.491Z" fill="#6C3E2A" fill-opacity="0.92"/>
<path d="M271.749 701.979C272.018 702.105 272.136 702.422 272.012 702.686L269.992 706.993C269.868 707.258 269.55 707.37 269.28 707.243L266.355 705.871C266.085 705.745 265.968 705.429 266.091 705.164L268.111 700.857C268.235 700.593 268.554 700.481 268.823 700.607L271.749 701.979Z" fill="#C89A23"/>
<path d="M273.25 703.85C273.52 703.977 273.637 704.293 273.514 704.558L271.494 708.865C271.37 709.129 271.051 709.241 270.782 709.115L267.856 707.743C267.587 707.617 267.469 707.3 267.593 707.036L269.613 702.729C269.737 702.464 270.055 702.352 270.325 702.479L273.25 703.85Z" fill="#937423"/>
<path d="M268.714 702.108C268.998 702.029 269.297 702.193 269.381 702.475L270.753 707.071C270.838 707.353 270.676 707.646 270.391 707.725L267.304 708.586C267.019 708.665 266.721 708.5 266.636 708.218L265.264 703.622C265.179 703.34 265.342 703.048 265.626 702.968L268.714 702.108Z" fill="#6C3E2A" fill-opacity="0.92"/>
<path d="M270.481 778.332C270.177 779.011 269.391 779.319 268.725 779.021L257.87 774.159C257.204 773.861 256.911 773.069 257.215 772.39L260.517 765.018C260.821 764.339 261.607 764.031 262.273 764.329L273.127 769.191C273.793 769.489 274.087 770.281 273.783 770.96L270.481 778.332Z" fill="#C89A23"/>
<path d="M265.868 782.167C265.564 782.845 264.777 783.154 264.111 782.855L253.257 777.994C252.591 777.695 252.297 776.903 252.601 776.225L255.903 768.852C256.207 768.174 256.993 767.866 257.66 768.164L268.514 773.026C269.18 773.324 269.474 774.116 269.17 774.794L265.868 782.167Z" fill="#937423"/>
<path d="M270.026 770.751C270.237 771.458 269.839 772.212 269.137 772.435L257.709 776.065C257.008 776.288 256.269 775.896 256.059 775.189L253.774 767.508C253.563 766.801 253.961 766.047 254.663 765.824L266.091 762.193C266.792 761.971 267.531 762.363 267.742 763.07L270.026 770.751Z" fill="#6C3E2A" fill-opacity="0.92"/>
<path d="M306.232 800.54C306.748 800.738 307.006 801.316 306.808 801.832L303.581 810.233C303.383 810.749 302.805 811.007 302.289 810.809L296.688 808.658C296.172 808.46 295.915 807.881 296.113 807.366L299.339 798.964C299.537 798.448 300.116 798.191 300.631 798.389L306.232 800.54Z" fill="#C89A23"/>
<path d="M309.25 803.841C309.765 804.039 310.023 804.617 309.825 805.133L306.598 813.534C306.4 814.05 305.822 814.308 305.306 814.11L299.705 811.959C299.19 811.761 298.932 811.182 299.13 810.667L302.356 802.265C302.554 801.749 303.133 801.492 303.648 801.69L309.25 803.841Z" fill="#937423"/>
<path d="M300.611 801.229C301.129 801.038 301.704 801.304 301.895 801.822L305.005 810.268C305.195 810.786 304.93 811.361 304.412 811.552L298.781 813.625C298.263 813.816 297.688 813.55 297.497 813.032L294.387 804.586C294.197 804.068 294.462 803.493 294.98 803.302L300.611 801.229Z" fill="#6C3E2A" fill-opacity="0.92"/>
<path d="M226.792 750.134C227.197 750.187 227.484 750.552 227.432 750.95L226.585 757.437C226.533 757.835 226.163 758.114 225.757 758.061L221.351 757.487C220.946 757.434 220.659 757.068 220.711 756.67L221.558 750.184C221.61 749.786 221.98 749.506 222.386 749.559L226.792 750.134Z" fill="#C89A23"/>
<path d="M229.541 751.958C229.946 752.011 230.233 752.377 230.181 752.775L229.334 759.261C229.282 759.659 228.912 759.939 228.506 759.886L224.1 759.311C223.695 759.258 223.408 758.893 223.46 758.495L224.307 752.008C224.359 751.61 224.729 751.331 225.135 751.383L229.541 751.958Z" fill="#937423"/>
<path d="M222.869 751.571C223.209 751.348 223.669 751.439 223.897 751.773L227.615 757.22C227.843 757.555 227.753 758.006 227.414 758.228L223.728 760.646C223.389 760.868 222.929 760.777 222.701 760.443L218.983 754.996C218.755 754.662 218.845 754.21 219.184 753.988L222.869 751.571Z" fill="#6C3E2A" fill-opacity="0.92"/>
<path d="M286.277 729.617C285.962 729.663 285.67 729.444 285.625 729.13L284.884 724.001C284.839 723.687 285.057 723.395 285.372 723.349L288.791 722.856C289.105 722.81 289.397 723.029 289.443 723.343L290.183 728.472C290.229 728.786 290.01 729.078 289.696 729.124L286.277 729.617Z" fill="#C89A23"/>
<path d="M283.833 728.807C283.518 728.852 283.226 728.634 283.181 728.319L282.44 723.191C282.395 722.876 282.613 722.584 282.928 722.539L286.347 722.045C286.662 722 286.953 722.218 286.999 722.533L287.739 727.661C287.785 727.976 287.566 728.268 287.252 728.313L283.833 728.807Z" fill="#937423"/>
<path d="M288.908 727.691C288.701 727.932 288.337 727.96 288.096 727.754L284.159 724.384C283.918 724.177 283.89 723.814 284.096 723.572L286.343 720.948C286.549 720.707 286.913 720.678 287.154 720.885L291.091 724.255C291.332 724.461 291.361 724.825 291.154 725.066L288.908 727.691Z" fill="#6C3E2A" fill-opacity="0.92"/>
<path d="M256.175 727.825C255.635 727.944 255.102 727.603 254.983 727.064L253.043 718.276C252.924 717.736 253.264 717.203 253.804 717.083L259.663 715.79C260.202 715.671 260.736 716.012 260.855 716.551L262.795 725.34C262.914 725.879 262.573 726.413 262.034 726.532L256.175 727.825Z" fill="#C89A23"/>
<path d="M251.838 726.734C251.298 726.853 250.765 726.512 250.646 725.973L248.706 717.185C248.587 716.645 248.927 716.112 249.467 715.993L255.325 714.699C255.865 714.58 256.398 714.921 256.518 715.46L258.458 724.249C258.577 724.788 258.236 725.322 257.697 725.441L251.838 726.734Z" fill="#937423"/>
<path d="M260.485 724.15C260.158 724.595 259.532 724.691 259.087 724.364L251.836 719.032C251.391 718.705 251.296 718.079 251.623 717.634L255.178 712.8C255.505 712.355 256.131 712.26 256.576 712.587L263.826 717.919C264.271 718.246 264.367 718.872 264.04 719.317L260.485 724.15Z" fill="#6C3E2A" fill-opacity="0.92"/>
<path d="M288.315 670.874C288.33 671.426 287.894 671.886 287.342 671.901L278.346 672.145C277.793 672.16 277.334 671.725 277.319 671.173L277.155 665.175C277.14 664.623 277.576 664.163 278.128 664.148L287.125 663.904C287.677 663.888 288.136 664.324 288.151 664.876L288.315 670.874Z" fill="#C89A23"/>
<path d="M286.424 674.927C286.439 675.479 286.004 675.938 285.452 675.953L276.455 676.198C275.903 676.213 275.443 675.778 275.428 675.226L275.265 669.228C275.25 668.676 275.685 668.216 276.237 668.201L285.234 667.956C285.786 667.941 286.246 668.377 286.261 668.929L286.424 674.927Z" fill="#937423"/>
<path d="M285.521 665.947C285.896 666.352 285.871 666.985 285.466 667.36L278.86 673.473C278.455 673.848 277.822 673.824 277.447 673.418L273.372 669.015C272.997 668.609 273.021 667.976 273.427 667.601L280.032 661.489C280.437 661.113 281.07 661.138 281.445 661.543L285.521 665.947Z" fill="#6C3E2A" fill-opacity="0.92"/>
<path d="M319.501 714.041C319.516 714.593 319.08 715.053 318.528 715.068L309.532 715.313C308.979 715.328 308.52 714.892 308.505 714.34L308.341 708.343C308.326 707.79 308.762 707.331 309.314 707.316L318.311 707.071C318.863 707.056 319.322 707.491 319.337 708.043L319.501 714.041Z" fill="#C89A23"/>
<path d="M317.61 718.094C317.625 718.646 317.19 719.106 316.638 719.121L307.641 719.366C307.089 719.381 306.629 718.945 306.614 718.393L306.451 712.396C306.436 711.843 306.871 711.384 307.423 711.369L316.42 711.124C316.972 711.109 317.432 711.544 317.447 712.096L317.61 718.094Z" fill="#937423"/>
<path d="M316.707 709.114C317.082 709.52 317.057 710.152 316.652 710.527L310.046 716.64C309.641 717.015 309.008 716.991 308.633 716.585L304.558 712.182C304.183 711.776 304.207 711.144 304.613 710.769L311.218 704.656C311.624 704.281 312.256 704.305 312.631 704.711L316.707 709.114Z" fill="#6C3E2A" fill-opacity="0.92"/>
<path d="M295.163 682.848C294.982 682.806 294.869 682.627 294.911 682.45L295.588 679.555C295.63 679.377 295.81 679.267 295.991 679.31L297.958 679.77C298.139 679.812 298.252 679.991 298.21 680.168L297.532 683.063C297.491 683.241 297.31 683.351 297.129 683.308L295.163 682.848Z" fill="#C89A23"/>
<path d="M294.003 681.898C293.822 681.855 293.709 681.677 293.75 681.499L294.428 678.604C294.47 678.427 294.65 678.317 294.831 678.359L296.797 678.82C296.978 678.862 297.091 679.04 297.05 679.218L296.372 682.113C296.331 682.291 296.15 682.401 295.969 682.358L294.003 681.898Z" fill="#937423"/>
<path d="M297.002 682.376C296.839 682.462 296.635 682.4 296.547 682.238L295.113 679.606C295.025 679.444 295.086 679.244 295.25 679.159L297.026 678.233C297.19 678.148 297.394 678.21 297.482 678.371L298.916 681.004C299.004 681.166 298.943 681.366 298.779 681.451L297.002 682.376Z" fill="#6C3E2A" fill-opacity="0.92"/>
<path d="M295.373 653.832C295.193 653.789 295.079 653.611 295.121 653.433L295.799 650.538C295.84 650.36 296.021 650.251 296.202 650.293L298.168 650.754C298.349 650.796 298.462 650.974 298.421 651.152L297.743 654.047C297.701 654.225 297.521 654.334 297.34 654.292L295.373 653.832Z" fill="#C89A23"/>
<path d="M294.213 652.881C294.032 652.839 293.919 652.661 293.961 652.483L294.639 649.588C294.68 649.41 294.861 649.301 295.042 649.343L297.008 649.803C297.189 649.846 297.302 650.024 297.26 650.202L296.583 653.097C296.541 653.274 296.361 653.384 296.18 653.342L294.213 652.881Z" fill="#937423"/>
<path d="M297.213 653.36C297.049 653.445 296.845 653.383 296.757 653.222L295.323 650.589C295.235 650.428 295.297 650.228 295.46 650.142L297.237 649.217C297.4 649.132 297.604 649.193 297.692 649.355L299.126 651.988C299.214 652.149 299.153 652.349 298.989 652.434L297.213 653.36Z" fill="#6C3E2A" fill-opacity="0.92"/>
<path d="M312.825 764.938C312.564 765.752 311.704 766.204 310.905 765.947L297.882 761.766C297.083 761.51 296.647 760.642 296.909 759.827L299.748 750.982C300.01 750.168 300.87 749.716 301.669 749.973L314.691 754.154C315.49 754.41 315.926 755.278 315.665 756.093L312.825 764.938Z" fill="#C89A23"/>
<path d="M308.038 769.905C307.776 770.719 306.917 771.172 306.118 770.915L293.095 766.734C292.296 766.477 291.86 765.609 292.121 764.795L294.961 755.95C295.223 755.136 296.082 754.684 296.882 754.94L309.904 759.121C310.703 759.378 311.139 760.246 310.878 761.06L308.038 769.905Z" fill="#937423"/>
<path d="M311.345 756.33C311.675 757.112 311.315 758.024 310.542 758.367L297.94 763.965C297.166 764.309 296.272 763.954 295.942 763.172L292.357 754.683C292.027 753.901 292.386 752.989 293.16 752.646L305.762 747.047C306.535 746.704 307.43 747.059 307.76 747.84L311.345 756.33Z" fill="#6C3E2A" fill-opacity="0.92"/>
<path d="M323.22 666.922C323.235 667.474 322.8 667.934 322.247 667.949L313.251 668.194C312.699 668.209 312.239 667.774 312.224 667.222L312.061 661.224C312.046 660.672 312.481 660.212 313.033 660.197L322.03 659.952C322.582 659.937 323.042 660.372 323.057 660.925L323.22 666.922Z" fill="#C89A23"/>
<path d="M321.329 670.975C321.345 671.527 320.909 671.987 320.357 672.002L311.36 672.247C310.808 672.262 310.349 671.827 310.334 671.275L310.17 665.277C310.155 664.725 310.591 664.265 311.143 664.25L320.139 664.005C320.691 663.99 321.151 664.425 321.166 664.978L321.329 670.975Z" fill="#937423"/>
<path d="M320.426 661.996C320.801 662.401 320.776 663.034 320.371 663.409L313.766 669.522C313.36 669.897 312.728 669.872 312.352 669.467L308.277 665.063C307.902 664.658 307.927 664.025 308.332 663.65L314.937 657.537C315.343 657.162 315.975 657.187 316.351 657.592L320.426 661.996Z" fill="#6C3E2A" fill-opacity="0.92"/>
<ellipse cx="371.541" cy="445.617" rx="7.85752" ry="3.5716" transform="rotate(16.1533 371.541 445.617)" fill="#F0FF49"/>
<path d="M378.608 447.664C378.422 448.307 377.612 448.874 376.103 449.093C374.643 449.306 372.718 449.155 370.686 448.567C368.655 447.979 366.947 447.077 365.827 446.117C364.669 445.125 364.288 444.213 364.474 443.57C364.66 442.927 365.47 442.36 366.979 442.14C368.439 441.927 370.364 442.078 372.396 442.666C374.427 443.255 376.135 444.156 377.255 445.116C378.413 446.109 378.794 447.02 378.608 447.664Z" stroke="#FFE500" stroke-opacity="0.44"/>
<ellipse cx="368.676" cy="451.586" rx="16.2696" ry="7.39526" transform="rotate(16.1533 368.676 451.586)" fill="#A84E0D"/>
<path d="M470.535 222.832C470.034 222.6 469.816 222.005 470.049 221.504L473.84 213.342C474.073 212.841 474.668 212.623 475.169 212.856L480.61 215.384C481.111 215.616 481.329 216.211 481.096 216.712L477.304 224.874C477.072 225.375 476.477 225.593 475.976 225.36L470.535 222.832Z" fill="#C89A23"/>
<path d="M467.749 219.333C467.249 219.101 467.031 218.506 467.264 218.005L471.055 209.843C471.288 209.342 471.883 209.124 472.383 209.357L477.825 211.885C478.326 212.117 478.543 212.712 478.311 213.213L474.519 221.375C474.287 221.876 473.692 222.094 473.191 221.861L467.749 219.333Z" fill="#937423"/>
<path d="M476.19 222.528C475.66 222.683 475.105 222.379 474.95 221.849L472.423 213.211C472.268 212.681 472.572 212.125 473.102 211.97L478.86 210.285C479.39 210.13 479.946 210.434 480.101 210.964L482.628 219.602C482.783 220.132 482.479 220.688 481.949 220.843L476.19 222.528Z" fill="#6C3E2A" fill-opacity="0.92"/>
<path d="M368 242C368 241.448 368.448 241 369 241H378C378.552 241 379 241.448 379 242V248C379 248.552 378.552 249 378 249H369C368.448 249 368 248.552 368 248V242Z" fill="#C89A23"/>
<path d="M370 238C370 237.448 370.448 237 371 237H380C380.552 237 381 237.448 381 238V244C381 244.552 380.552 245 380 245H371C370.448 245 370 244.552 370 244V238Z" fill="#937423"/>
<path d="M370.659 247.001C370.295 246.586 370.337 245.954 370.752 245.59L377.522 239.659C377.937 239.295 378.569 239.337 378.933 239.752L382.887 244.265C383.251 244.681 383.209 245.312 382.793 245.676L376.024 251.607C375.609 251.971 374.977 251.929 374.613 251.514L370.659 247.001Z" fill="#6C3E2A" fill-opacity="0.92"/>
<path d="M510.636 220.022C510.951 219.986 511.237 220.212 511.274 220.528L511.875 225.674C511.912 225.99 511.685 226.276 511.37 226.313L507.939 226.713C507.623 226.75 507.337 226.524 507.3 226.208L506.699 221.061C506.663 220.746 506.889 220.46 507.205 220.423L510.636 220.022Z" fill="#C89A23"/>
<path d="M513.056 220.899C513.372 220.862 513.658 221.089 513.695 221.404L514.296 226.551C514.332 226.867 514.106 227.153 513.79 227.19L510.359 227.59C510.044 227.627 509.758 227.401 509.721 227.085L509.12 221.938C509.083 221.622 509.31 221.336 509.625 221.3L513.056 220.899Z" fill="#937423"/>
<path d="M507.953 221.877C508.166 221.641 508.531 221.623 508.766 221.836L512.61 225.311C512.846 225.524 512.864 225.888 512.651 226.124L510.334 228.686C510.12 228.922 509.756 228.941 509.52 228.727L505.677 225.252C505.441 225.039 505.423 224.675 505.636 224.439L507.953 221.877Z" fill="#6C3E2A" fill-opacity="0.92"/>
<path d="M509.602 190.242C509.425 189.978 509.496 189.62 509.76 189.443L514.065 186.559C514.329 186.382 514.687 186.452 514.864 186.716L516.786 189.586C516.963 189.85 516.893 190.208 516.629 190.385L512.324 193.269C512.06 193.446 511.702 193.376 511.525 193.111L509.602 190.242Z" fill="#C89A23"/>
<path d="M509.277 187.688C509.1 187.423 509.171 187.066 509.435 186.889L513.739 184.005C514.004 183.828 514.361 183.898 514.538 184.162L516.461 187.032C516.638 187.296 516.567 187.654 516.303 187.831L511.999 190.715C511.735 190.892 511.377 190.821 511.2 190.557L509.277 187.688Z" fill="#937423"/>
<path d="M512.477 191.781C512.17 191.699 511.987 191.384 512.069 191.077L513.406 186.071C513.488 185.763 513.804 185.581 514.111 185.663L517.448 186.554C517.756 186.636 517.938 186.952 517.856 187.259L516.519 192.265C516.437 192.572 516.121 192.755 515.814 192.673L512.477 191.781Z" fill="#6C3E2A" fill-opacity="0.92"/>
<path d="M382.636 176.334C382.951 176.297 383.237 176.523 383.274 176.839L383.875 181.985C383.912 182.301 383.685 182.587 383.37 182.624L379.939 183.024C379.623 183.061 379.337 182.835 379.3 182.519L378.699 177.373C378.663 177.057 378.889 176.771 379.205 176.734L382.636 176.334Z" fill="#C89A23"/>
<path d="M385.056 177.21C385.372 177.174 385.658 177.4 385.695 177.716L386.296 182.862C386.332 183.178 386.106 183.464 385.79 183.501L382.359 183.901C382.044 183.938 381.758 183.712 381.721 183.396L381.12 178.249C381.083 177.934 381.31 177.648 381.625 177.611L385.056 177.21Z" fill="#937423"/>
<path d="M379.953 178.188C380.166 177.952 380.531 177.934 380.766 178.147L384.61 181.622C384.846 181.836 384.864 182.2 384.651 182.436L382.334 184.998C382.12 185.234 381.756 185.252 381.52 185.039L377.677 181.563C377.441 181.35 377.423 180.986 377.636 180.75L379.953 178.188Z" fill="#6C3E2A" fill-opacity="0.92"/>
<path d="M419.636 195.334C419.951 195.297 420.237 195.523 420.274 195.839L420.875 200.985C420.912 201.301 420.685 201.587 420.37 201.624L416.939 202.024C416.623 202.061 416.337 201.835 416.3 201.519L415.699 196.373C415.663 196.057 415.889 195.771 416.205 195.734L419.636 195.334Z" fill="#C89A23"/>
<path d="M422.056 196.21C422.372 196.174 422.658 196.4 422.695 196.716L423.296 201.862C423.332 202.178 423.106 202.464 422.79 202.501L419.359 202.901C419.044 202.938 418.758 202.712 418.721 202.396L418.12 197.249C418.083 196.934 418.31 196.648 418.625 196.611L422.056 196.21Z" fill="#937423"/>
<path d="M416.953 197.188C417.166 196.952 417.531 196.934 417.766 197.147L421.61 200.622C421.846 200.836 421.864 201.2 421.651 201.436L419.334 203.998C419.12 204.234 418.756 204.252 418.52 204.039L414.677 200.563C414.441 200.35 414.423 199.986 414.636 199.75L416.953 197.188Z" fill="#6C3E2A" fill-opacity="0.92"/>
<path d="M409 228C409 227.448 409.448 227 410 227H419C419.552 227 420 227.448 420 228V234C420 234.552 419.552 235 419 235H410C409.448 235 409 234.552 409 234V228Z" fill="#C89A23"/>
<path d="M411 224C411 223.448 411.448 223 412 223H421C421.552 223 422 223.448 422 224V230C422 230.552 421.552 231 421 231H412C411.448 231 411 230.552 411 230V224Z" fill="#937423"/>
<path d="M411.659 233.001C411.295 232.586 411.337 231.954 411.752 231.59L418.522 225.659C418.937 225.295 419.569 225.337 419.933 225.752L423.887 230.265C424.251 230.681 424.209 231.312 423.793 231.676L417.024 237.607C416.609 237.971 415.977 237.929 415.613 237.514L411.659 233.001Z" fill="#6C3E2A" fill-opacity="0.92"/>
<path d="M455.059 183.173C454.739 182.985 454.629 182.577 454.813 182.263L457.824 177.134C458.009 176.82 458.419 176.717 458.739 176.905L462.222 178.95C462.543 179.139 462.653 179.546 462.468 179.861L459.457 184.989C459.273 185.304 458.863 185.406 458.542 185.218L455.059 183.173Z" fill="#C89A23"/>
<path d="M453.406 180.67C453.086 180.482 452.976 180.074 453.16 179.76L456.171 174.632C456.356 174.317 456.766 174.214 457.086 174.403L460.569 176.448C460.89 176.636 461 177.043 460.815 177.358L457.804 182.486C457.62 182.801 457.21 182.904 456.889 182.715L453.406 180.67Z" fill="#937423"/>
<path d="M458.852 183.363C458.489 183.428 458.136 183.189 458.064 182.829L456.886 176.95C456.813 176.589 457.049 176.243 457.412 176.178L461.354 175.463C461.717 175.397 462.07 175.636 462.142 175.997L463.321 181.876C463.393 182.236 463.157 182.582 462.795 182.648L458.852 183.363Z" fill="#6C3E2A" fill-opacity="0.92"/>
<path d="M370.48 432.844C370.66 432.891 370.768 433.072 370.721 433.249L369.965 436.124C369.919 436.301 369.735 436.406 369.556 436.358L367.602 435.845C367.423 435.797 367.315 435.616 367.361 435.439L368.117 432.564C368.164 432.387 368.347 432.283 368.527 432.33L370.48 432.844Z" fill="#C89A23"/>
<path d="M371.614 433.825C371.794 433.872 371.902 434.054 371.855 434.23L371.099 437.106C371.053 437.282 370.869 437.387 370.69 437.34L368.736 436.826C368.557 436.779 368.449 436.597 368.495 436.421L369.251 433.545C369.298 433.369 369.481 433.264 369.661 433.311L371.614 433.825Z" fill="#937423"/>
<path d="M368.628 433.265C368.794 433.184 368.996 433.252 369.08 433.416L370.442 436.086C370.525 436.25 370.459 436.448 370.293 436.529L368.492 437.406C368.326 437.487 368.124 437.419 368.04 437.256L366.678 434.585C366.595 434.421 366.661 434.223 366.827 434.142L368.628 433.265Z" fill="#6C3E2A" fill-opacity="0.92"/>
<path d="M438.48 296.844C438.66 296.891 438.768 297.072 438.721 297.249L437.965 300.124C437.919 300.301 437.735 300.406 437.556 300.358L435.602 299.845C435.423 299.797 435.315 299.616 435.361 299.439L436.117 296.564C436.164 296.387 436.347 296.283 436.527 296.33L438.48 296.844Z" fill="#C89A23"/>
<path d="M439.614 297.825C439.794 297.872 439.902 298.054 439.855 298.23L439.099 301.106C439.053 301.282 438.869 301.387 438.69 301.34L436.736 300.826C436.557 300.779 436.449 300.597 436.495 300.421L437.251 297.545C437.298 297.369 437.481 297.264 437.661 297.311L439.614 297.825Z" fill="#937423"/>
<path d="M436.628 297.265C436.794 297.184 436.996 297.252 437.08 297.416L438.442 300.086C438.525 300.25 438.459 300.448 438.293 300.529L436.492 301.406C436.326 301.487 436.124 301.419 436.04 301.256L434.678 298.585C434.595 298.421 434.661 298.223 434.827 298.142L436.628 297.265Z" fill="#6C3E2A" fill-opacity="0.92"/>
<path d="M499 272C499 271.448 499.448 271 500 271H509C509.552 271 510 271.448 510 272V278C510 278.552 509.552 279 509 279H500C499.448 279 499 278.552 499 278V272Z" fill="#C89A23"/>
<path d="M501 268C501 267.448 501.448 267 502 267H511C511.552 267 512 267.448 512 268V274C512 274.552 511.552 275 511 275H502C501.448 275 501 274.552 501 274V268Z" fill="#937423"/>
<path d="M501.659 277.001C501.295 276.586 501.337 275.954 501.752 275.59L508.522 269.659C508.937 269.295 509.569 269.337 509.933 269.752L513.887 274.265C514.251 274.681 514.209 275.312 513.793 275.676L507.024 281.607C506.609 281.971 505.977 281.929 505.613 281.514L501.659 277.001Z" fill="#6C3E2A" fill-opacity="0.92"/>
<path d="M440 259C440 258.448 440.448 258 441 258H450C450.552 258 451 258.448 451 259V265C451 265.552 450.552 266 450 266H441C440.448 266 440 265.552 440 265V259Z" fill="#C89A23"/>
<path d="M442 255C442 254.448 442.448 254 443 254H452C452.552 254 453 254.448 453 255V261C453 261.552 452.552 262 452 262H443C442.448 262 442 261.552 442 261V255Z" fill="#937423"/>
<path d="M442.659 264.001C442.295 263.586 442.337 262.954 442.752 262.59L449.522 256.659C449.937 256.295 450.569 256.337 450.933 256.752L454.887 261.265C455.251 261.681 455.209 262.312 454.793 262.676L448.024 268.607C447.609 268.971 446.977 268.929 446.613 268.514L442.659 264.001Z" fill="#6C3E2A" fill-opacity="0.92"/>
<path d="M408.636 269.334C408.951 269.297 409.237 269.523 409.274 269.839L409.875 274.985C409.912 275.301 409.685 275.587 409.37 275.624L405.939 276.024C405.623 276.061 405.337 275.835 405.3 275.519L404.699 270.373C404.663 270.057 404.889 269.771 405.205 269.734L408.636 269.334Z" fill="#C89A23"/>
<path d="M411.056 270.21C411.372 270.174 411.658 270.4 411.695 270.716L412.296 275.862C412.332 276.178 412.106 276.464 411.79 276.501L408.359 276.901C408.044 276.938 407.758 276.712 407.721 276.396L407.12 271.249C407.083 270.934 407.31 270.648 407.625 270.611L411.056 270.21Z" fill="#937423"/>
<path d="M405.953 271.188C406.166 270.952 406.531 270.934 406.766 271.147L410.61 274.622C410.846 274.836 410.864 275.2 410.651 275.436L408.334 277.998C408.12 278.234 407.756 278.252 407.52 278.039L403.677 274.563C403.441 274.35 403.423 273.986 403.636 273.75L405.953 271.188Z" fill="#6C3E2A" fill-opacity="0.92"/>
<path d="M462 297C462 296.448 462.448 296 463 296H472C472.552 296 473 296.448 473 297V303C473 303.552 472.552 304 472 304H463C462.448 304 462 303.552 462 303V297Z" fill="#C89A23"/>
<path d="M464 293C464 292.448 464.448 292 465 292H474C474.552 292 475 292.448 475 293V299C475 299.552 474.552 300 474 300H465C464.448 300 464 299.552 464 299V293Z" fill="#937423"/>
<path d="M464.659 302.001C464.295 301.586 464.337 300.954 464.752 300.59L471.522 294.659C471.937 294.295 472.569 294.337 472.933 294.752L476.887 299.265C477.251 299.681 477.209 300.312 476.793 300.676L470.024 306.607C469.609 306.971 468.977 306.929 468.613 306.514L464.659 302.001Z" fill="#6C3E2A" fill-opacity="0.92"/>
<path d="M410 351C410 350.448 410.448 350 411 350H420C420.552 350 421 350.448 421 351V357C421 357.552 420.552 358 420 358H411C410.448 358 410 357.552 410 357V351Z" fill="#C89A23"/>
<path d="M412 347C412 346.448 412.448 346 413 346H422C422.552 346 423 346.448 423 347V353C423 353.552 422.552 354 422 354H413C412.448 354 412 353.552 412 353V347Z" fill="#937423"/>
<path d="M412.659 356.001C412.295 355.586 412.337 354.954 412.752 354.59L419.522 348.659C419.937 348.295 420.569 348.337 420.933 348.752L424.887 353.265C425.251 353.681 425.209 354.312 424.793 354.676L418.024 360.607C417.609 360.971 416.977 360.929 416.613 360.514L412.659 356.001Z" fill="#6C3E2A" fill-opacity="0.92"/>
<path d="M406.406 394.357C406.14 394.224 406.031 393.904 406.162 393.643L408.298 389.392C408.429 389.131 408.751 389.028 409.017 389.162L411.904 390.613C412.17 390.746 412.279 391.066 412.148 391.327L410.012 395.578C409.881 395.839 409.559 395.942 409.293 395.808L406.406 394.357Z" fill="#C89A23"/>
<path d="M404.956 392.445C404.69 392.312 404.581 391.992 404.712 391.731L406.848 387.48C406.979 387.22 407.301 387.116 407.567 387.25L410.454 388.701C410.72 388.834 410.829 389.154 410.698 389.415L408.562 393.666C408.431 393.927 408.109 394.03 407.843 393.896L404.956 392.445Z" fill="#937423"/>
<path d="M409.444 394.311C409.157 394.382 408.863 394.21 408.787 393.925L407.539 389.294C407.463 389.01 407.633 388.722 407.919 388.65L411.029 387.874C411.316 387.802 411.61 387.975 411.686 388.259L412.933 392.891C413.01 393.175 412.84 393.463 412.554 393.535L409.444 394.311Z" fill="#6C3E2A" fill-opacity="0.92"/>
<path d="M409.751 318.066C410.073 317.396 410.868 317.11 411.526 317.426L422.244 322.581C422.901 322.898 423.173 323.697 422.851 324.367L419.349 331.647C419.027 332.317 418.233 332.604 417.575 332.288L406.857 327.132C406.199 326.816 405.927 326.016 406.25 325.346L409.751 318.066Z" fill="#C89A23"/>
<path d="M414.467 314.359C414.789 313.689 415.584 313.402 416.242 313.718L426.96 318.874C427.617 319.19 427.889 319.99 427.567 320.66L424.065 327.94C423.743 328.61 422.949 328.896 422.291 328.58L411.573 323.425C410.915 323.108 410.643 322.309 410.966 321.639L414.467 314.359Z" fill="#937423"/>
<path d="M409.999 325.657C409.808 324.945 410.227 324.202 410.934 323.999L422.456 320.68C423.163 320.477 423.892 320.889 424.083 321.602L426.158 329.342C426.349 330.054 425.93 330.797 425.223 331.001L413.7 334.319C412.993 334.523 412.265 334.11 412.074 333.398L409.999 325.657Z" fill="#6C3E2A" fill-opacity="0.92"/>
<path d="M374.617 294.894C374.107 294.683 373.866 294.097 374.077 293.587L377.531 285.276C377.743 284.766 378.328 284.525 378.838 284.737L384.379 287.039C384.889 287.251 385.131 287.836 384.919 288.346L381.465 296.657C381.253 297.167 380.668 297.409 380.158 297.197L374.617 294.894Z" fill="#C89A23"/>
<path d="M371.691 291.513C371.181 291.301 370.939 290.715 371.151 290.205L374.605 281.894C374.817 281.384 375.402 281.143 375.912 281.355L381.453 283.657C381.963 283.869 382.204 284.455 381.993 284.965L378.539 293.275C378.327 293.785 377.742 294.027 377.232 293.815L371.691 291.513Z" fill="#937423"/>
<path d="M380.256 294.358C379.732 294.535 379.165 294.254 378.988 293.731L376.109 285.204C375.933 284.68 376.214 284.113 376.737 283.936L382.422 282.017C382.945 281.84 383.512 282.121 383.689 282.644L386.568 291.172C386.745 291.695 386.464 292.262 385.94 292.439L380.256 294.358Z" fill="#6C3E2A" fill-opacity="0.92"/>
<path d="M452.657 347.444C452.253 347.38 451.976 347.006 452.039 346.61L453.062 340.149C453.125 339.753 453.503 339.483 453.907 339.547L458.295 340.241C458.699 340.305 458.976 340.679 458.913 341.075L457.89 347.536C457.828 347.933 457.449 348.202 457.045 348.138L452.657 347.444Z" fill="#C89A23"/>
<path d="M449.959 345.545C449.555 345.481 449.278 345.108 449.341 344.711L450.364 338.25C450.426 337.854 450.805 337.584 451.209 337.648L455.597 338.343C456.001 338.407 456.277 338.78 456.215 339.176L455.192 345.637C455.129 346.034 454.751 346.303 454.347 346.239L449.959 345.545Z" fill="#937423"/>
<path d="M456.617 346.114C456.272 346.327 455.814 346.224 455.595 345.883L452.027 340.337C451.808 339.997 451.91 339.548 452.255 339.335L456.005 337.019C456.35 336.806 456.808 336.909 457.027 337.249L460.595 342.795C460.814 343.136 460.712 343.585 460.367 343.798L456.617 346.114Z" fill="#6C3E2A" fill-opacity="0.92"/>
<path d="M392.636 366.334C392.951 366.297 393.237 366.523 393.274 366.839L393.875 371.985C393.912 372.301 393.685 372.587 393.37 372.624L389.939 373.024C389.623 373.061 389.337 372.835 389.3 372.519L388.699 367.373C388.663 367.057 388.889 366.771 389.205 366.734L392.636 366.334Z" fill="#C89A23"/>
<path d="M395.056 367.21C395.372 367.174 395.658 367.4 395.695 367.716L396.296 372.862C396.332 373.178 396.106 373.464 395.79 373.501L392.359 373.901C392.044 373.938 391.758 373.712 391.721 373.396L391.12 368.249C391.083 367.934 391.31 367.648 391.625 367.611L395.056 367.21Z" fill="#937423"/>
<path d="M389.953 368.188C390.166 367.952 390.531 367.934 390.766 368.147L394.61 371.622C394.846 371.836 394.864 372.2 394.651 372.436L392.334 374.998C392.12 375.234 391.756 375.252 391.52 375.039L387.677 371.563C387.441 371.35 387.423 370.986 387.636 370.75L389.953 368.188Z" fill="#6C3E2A" fill-opacity="0.92"/>
<path d="M422.678 368.945C423.22 368.84 423.744 369.195 423.849 369.738L425.549 378.576C425.653 379.118 425.298 379.642 424.756 379.746L418.864 380.88C418.321 380.984 417.797 380.629 417.693 380.087L415.993 371.249C415.888 370.706 416.243 370.182 416.786 370.078L422.678 368.945Z" fill="#C89A23"/>
<path d="M426.983 370.153C427.526 370.049 428.05 370.404 428.154 370.946L429.854 379.784C429.959 380.326 429.604 380.851 429.061 380.955L423.169 382.088C422.627 382.193 422.103 381.838 421.998 381.295L420.298 372.457C420.194 371.915 420.549 371.391 421.091 371.286L426.983 370.153Z" fill="#937423"/>
<path d="M418.269 372.5C418.608 372.064 419.236 371.986 419.672 372.325L426.775 377.852C427.211 378.192 427.289 378.82 426.95 379.256L423.265 383.991C422.926 384.427 422.298 384.505 421.862 384.166L414.759 378.639C414.323 378.3 414.245 377.671 414.584 377.236L418.269 372.5Z" fill="#6C3E2A" fill-opacity="0.92"/>
<path d="M389 425C389 424.448 389.448 424 390 424H399C399.552 424 400 424.448 400 425V431C400 431.552 399.552 432 399 432H390C389.448 432 389 431.552 389 431V425Z" fill="#C89A23"/>
<path d="M391 421C391 420.448 391.448 420 392 420H401C401.552 420 402 420.448 402 421V427C402 427.552 401.552 428 401 428H392C391.448 428 391 427.552 391 427V421Z" fill="#937423"/>
<path d="M391.659 430.001C391.295 429.586 391.337 428.954 391.752 428.59L398.522 422.659C398.937 422.295 399.569 422.337 399.933 422.752L403.887 427.265C404.251 427.681 404.209 428.312 403.793 428.676L397.024 434.607C396.609 434.971 395.977 434.929 395.613 434.514L391.659 430.001Z" fill="#6C3E2A" fill-opacity="0.92"/>
<path d="M359 381C359 380.448 359.448 380 360 380H369C369.552 380 370 380.448 370 381V387C370 387.552 369.552 388 369 388H360C359.448 388 359 387.552 359 387V381Z" fill="#C89A23"/>
<path d="M361 377C361 376.448 361.448 376 362 376H371C371.552 376 372 376.448 372 377V383C372 383.552 371.552 384 371 384H362C361.448 384 361 383.552 361 383V377Z" fill="#937423"/>
<path d="M361.659 386.001C361.295 385.586 361.337 384.954 361.752 384.59L368.522 378.659C368.937 378.295 369.569 378.337 369.933 378.752L373.887 383.265C374.251 383.681 374.209 384.312 373.793 384.676L367.024 390.607C366.609 390.971 365.977 390.929 365.613 390.514L361.659 386.001Z" fill="#6C3E2A" fill-opacity="0.92"/>
<path d="M382.48 412.844C382.66 412.891 382.768 413.072 382.721 413.249L381.965 416.124C381.919 416.301 381.735 416.406 381.556 416.358L379.602 415.845C379.423 415.797 379.315 415.616 379.361 415.439L380.117 412.564C380.164 412.387 380.347 412.283 380.527 412.33L382.48 412.844Z" fill="#C89A23"/>
<path d="M383.614 413.825C383.794 413.872 383.902 414.054 383.855 414.23L383.099 417.106C383.053 417.282 382.869 417.387 382.69 417.34L380.736 416.826C380.557 416.779 380.449 416.597 380.495 416.421L381.251 413.545C381.298 413.369 381.481 413.264 381.661 413.311L383.614 413.825Z" fill="#937423"/>
<path d="M380.628 413.265C380.794 413.184 380.996 413.252 381.08 413.416L382.442 416.086C382.525 416.25 382.459 416.448 382.293 416.529L380.492 417.406C380.326 417.487 380.124 417.419 380.04 417.256L378.678 414.585C378.595 414.421 378.661 414.223 378.827 414.142L380.628 413.265Z" fill="#6C3E2A" fill-opacity="0.92"/>
<path d="M381.48 441.844C381.66 441.891 381.768 442.072 381.721 442.249L380.965 445.124C380.919 445.301 380.735 445.406 380.556 445.358L378.602 444.845C378.423 444.797 378.315 444.616 378.361 444.439L379.117 441.564C379.164 441.387 379.347 441.283 379.527 441.33L381.48 441.844Z" fill="#C89A23"/>
<path d="M382.614 442.825C382.794 442.872 382.902 443.054 382.855 443.23L382.099 446.106C382.053 446.282 381.869 446.387 381.69 446.34L379.736 445.826C379.557 445.779 379.449 445.597 379.495 445.421L380.251 442.545C380.298 442.369 380.481 442.264 380.661 442.311L382.614 442.825Z" fill="#937423"/>
<path d="M379.628 442.265C379.794 442.184 379.996 442.252 380.08 442.416L381.442 445.086C381.525 445.25 381.459 445.448 381.293 445.529L379.492 446.406C379.326 446.487 379.124 446.419 379.04 446.256L377.678 443.585C377.595 443.421 377.661 443.223 377.827 443.142L379.628 442.265Z" fill="#6C3E2A" fill-opacity="0.92"/>
<path d="M367.058 330.304C367.342 329.497 368.213 329.069 369.005 329.347L381.909 333.881C382.701 334.159 383.113 335.039 382.83 335.845L379.75 344.61C379.467 345.417 378.595 345.845 377.803 345.567L364.899 341.033C364.107 340.755 363.695 339.875 363.979 339.068L367.058 330.304Z" fill="#C89A23"/>
<path d="M371.979 325.468C372.262 324.662 373.134 324.233 373.926 324.511L386.83 329.045C387.622 329.324 388.034 330.203 387.75 331.01L384.671 339.774C384.387 340.581 383.516 341.01 382.724 340.731L369.82 336.197C369.028 335.919 368.616 335.04 368.899 334.233L371.979 325.468Z" fill="#937423"/>
<path d="M368.304 338.949C367.995 338.158 368.379 337.257 369.162 336.934L381.912 331.681C382.694 331.359 383.578 331.738 383.887 332.528L387.24 341.112C387.548 341.902 387.164 342.804 386.382 343.127L373.632 348.38C372.85 348.702 371.965 348.323 371.657 347.533L368.304 338.949Z" fill="#6C3E2A" fill-opacity="0.92"/>
<path d="M354 428C354 427.448 354.448 427 355 427H364C364.552 427 365 427.448 365 428V434C365 434.552 364.552 435 364 435H355C354.448 435 354 434.552 354 434V428Z" fill="#C89A23"/>
<path d="M356 424C356 423.448 356.448 423 357 423H366C366.552 423 367 423.448 367 424V430C367 430.552 366.552 431 366 431H357C356.448 431 356 430.552 356 430V424Z" fill="#937423"/>
<path d="M356.659 433.001C356.295 432.586 356.337 431.954 356.752 431.59L363.522 425.659C363.937 425.295 364.569 425.337 364.933 425.752L368.887 430.265C369.251 430.681 369.209 431.312 368.793 431.676L362.024 437.607C361.609 437.971 360.977 437.929 360.613 437.514L356.659 433.001Z" fill="#6C3E2A" fill-opacity="0.92"/>
<ellipse cx="364.315" cy="461.294" rx="27.5" ry="12.5" transform="rotate(15.9687 364.315 461.294)" fill="#674A00"/>
<g filter="url(#filter11_f_0_1)">
<mask id="path-76-outside-1_0_1" maskUnits="userSpaceOnUse" x="626" y="540.384" width="619" height="82" fill="black">
<rect fill="white" x="626" y="540.384" width="619" height="82"/>
<path fill-rule="evenodd" clip-rule="evenodd" d="M828.187 547.384C713.53 552.447 632 565.388 632 580.552C632 600.13 767.882 616 935.5 616C1103.12 616 1239 600.13 1239 580.552C1239 565.463 1158.27 552.575 1044.51 547.46C1042.9 549.093 1041.25 550.689 1039.56 552.248C1081.32 554.032 1118.75 556.859 1149.53 560.453C1176.9 563.65 1198.83 567.434 1213.82 571.574C1221.35 573.655 1226.85 575.749 1230.36 577.751C1232.11 578.752 1233.13 579.598 1233.66 580.209C1233.79 580.354 1233.87 580.468 1233.93 580.552C1233.87 580.637 1233.79 580.751 1233.66 580.896C1233.13 581.506 1232.11 582.353 1230.36 583.354C1226.85 585.355 1221.35 587.45 1213.82 589.531C1198.83 593.67 1176.9 597.455 1149.53 600.651C1094.85 607.037 1019.18 611 935.5 611C851.822 611 776.149 607.037 721.473 600.651C694.101 597.455 672.173 593.67 657.181 589.531C649.647 587.45 644.151 585.355 640.645 583.354C638.89 582.353 637.871 581.506 637.34 580.896C637.214 580.751 637.13 580.637 637.075 580.552C637.13 580.468 637.214 580.354 637.34 580.209C637.871 579.598 638.89 578.752 640.645 577.751C644.151 575.749 649.647 573.655 657.181 571.574C672.173 567.434 694.101 563.65 721.473 560.453C752.664 556.81 790.687 553.956 833.131 552.176C831.447 550.616 829.798 549.018 828.187 547.384ZM1234.02 580.366C1234.03 580.366 1234.02 580.374 1234.02 580.388C1234.02 580.374 1234.02 580.366 1234.02 580.366ZM636.975 580.366C636.976 580.366 636.979 580.374 636.982 580.388C636.976 580.373 636.974 580.366 636.975 580.366ZM636.975 580.739C636.974 580.739 636.976 580.731 636.982 580.717C636.979 580.731 636.976 580.739 636.975 580.739ZM1234.02 580.717C1234.02 580.731 1234.03 580.739 1234.02 580.739C1234.02 580.739 1234.02 580.731 1234.02 580.717Z"/>
</mask>
<path fill-rule="evenodd" clip-rule="evenodd" d="M828.187 547.384C713.53 552.447 632 565.388 632 580.552C632 600.13 767.882 616 935.5 616C1103.12 616 1239 600.13 1239 580.552C1239 565.463 1158.27 552.575 1044.51 547.46C1042.9 549.093 1041.25 550.689 1039.56 552.248C1081.32 554.032 1118.75 556.859 1149.53 560.453C1176.9 563.65 1198.83 567.434 1213.82 571.574C1221.35 573.655 1226.85 575.749 1230.36 577.751C1232.11 578.752 1233.13 579.598 1233.66 580.209C1233.79 580.354 1233.87 580.468 1233.93 580.552C1233.87 580.637 1233.79 580.751 1233.66 580.896C1233.13 581.506 1232.11 582.353 1230.36 583.354C1226.85 585.355 1221.35 587.45 1213.82 589.531C1198.83 593.67 1176.9 597.455 1149.53 600.651C1094.85 607.037 1019.18 611 935.5 611C851.822 611 776.149 607.037 721.473 600.651C694.101 597.455 672.173 593.67 657.181 589.531C649.647 587.45 644.151 585.355 640.645 583.354C638.89 582.353 637.871 581.506 637.34 580.896C637.214 580.751 637.13 580.637 637.075 580.552C637.13 580.468 637.214 580.354 637.34 580.209C637.871 579.598 638.89 578.752 640.645 577.751C644.151 575.749 649.647 573.655 657.181 571.574C672.173 567.434 694.101 563.65 721.473 560.453C752.664 556.81 790.687 553.956 833.131 552.176C831.447 550.616 829.798 549.018 828.187 547.384ZM1234.02 580.366C1234.03 580.366 1234.02 580.374 1234.02 580.388C1234.02 580.374 1234.02 580.366 1234.02 580.366ZM636.975 580.366C636.976 580.366 636.979 580.374 636.982 580.388C636.976 580.373 636.974 580.366 636.975 580.366ZM636.975 580.739C636.974 580.739 636.976 580.731 636.982 580.717C636.979 580.731 636.976 580.739 636.975 580.739ZM1234.02 580.717C1234.02 580.731 1234.03 580.739 1234.02 580.739C1234.02 580.739 1234.02 580.731 1234.02 580.717Z" fill="white"/>
<path d="M828.187 547.384L832.46 543.172L830.587 541.273L827.922 541.39L828.187 547.384ZM1044.51 547.46L1044.78 541.466L1042.11 541.346L1040.24 543.244L1044.51 547.46ZM1039.56 552.248L1035.49 547.843L1024.91 557.627L1039.3 558.242L1039.56 552.248ZM1149.53 560.453L1148.83 566.413L1149.53 560.453ZM1213.82 571.574L1215.42 565.791V565.791L1213.82 571.574ZM1230.36 577.751L1227.38 582.962L1227.38 582.962L1230.36 577.751ZM1233.66 580.209L1238.19 576.272L1238.19 576.272L1233.66 580.209ZM1233.93 580.552L1238.95 583.839L1241.1 580.552L1238.95 577.266L1233.93 580.552ZM1233.66 580.896L1238.19 584.833L1238.19 584.833L1233.66 580.896ZM1230.36 583.354L1227.38 578.143L1227.38 578.143L1230.36 583.354ZM1213.82 589.531L1215.42 595.314L1213.82 589.531ZM1149.53 600.651L1148.83 594.692L1149.53 600.651ZM721.473 600.651L722.169 594.692L721.473 600.651ZM657.181 589.531L658.778 583.747H658.778L657.181 589.531ZM640.645 583.354L643.619 578.143H643.619L640.645 583.354ZM637.34 580.896L632.812 584.833L632.812 584.833L637.34 580.896ZM637.075 580.552L632.055 577.266L629.903 580.552L632.055 583.839L637.075 580.552ZM637.34 580.209L641.868 584.146L641.868 584.146L637.34 580.209ZM640.645 577.751L643.619 582.962H643.619L640.645 577.751ZM657.181 571.574L655.584 565.791L657.181 571.574ZM721.473 560.453L722.169 566.413L721.473 560.453ZM833.131 552.176L833.382 558.171L847.78 557.567L837.208 547.774L833.131 552.176ZM1234.02 580.388L1228.21 578.867L1239.56 582.691L1234.02 580.388ZM636.975 580.366L636.462 586.344L636.462 586.344L636.975 580.366ZM636.982 580.388L631.446 582.7L642.786 578.864L636.982 580.388ZM636.982 580.717L642.786 582.241L631.446 578.405L636.982 580.717ZM1234.02 580.717L1239.56 578.413L1228.21 582.239L1234.02 580.717ZM827.922 541.39C770.475 543.927 721.162 548.443 686.114 554.261C668.637 557.163 654.436 560.432 644.483 564.044C639.543 565.838 635.289 567.842 632.159 570.158C629.189 572.355 626 575.774 626 580.552H638C638 581.54 637.359 581.237 639.296 579.804C641.072 578.49 644.083 576.956 648.578 575.324C657.495 572.088 670.842 568.961 688.08 566.099C722.461 560.391 771.243 555.905 828.452 553.379L827.922 541.39ZM626 580.552C626 583.633 627.363 586.186 629.039 588.114C630.682 590.003 632.85 591.571 635.192 592.907C639.878 595.582 646.402 597.966 654.253 600.134C670.051 604.496 692.628 608.357 720.197 611.577C775.415 618.026 851.534 622 935.5 622V610C851.848 610 776.216 606.038 721.589 599.658C694.235 596.463 672.366 592.686 657.448 588.567C649.942 586.494 644.54 584.426 641.14 582.485C639.439 581.515 638.524 580.734 638.095 580.24C637.699 579.785 638 579.919 638 580.552H626ZM935.5 622C1019.47 622 1095.58 618.026 1150.8 611.577C1178.37 608.357 1200.95 604.496 1216.75 600.134C1224.6 597.966 1231.12 595.582 1235.81 592.907C1238.15 591.571 1240.32 590.003 1241.96 588.114C1243.64 586.186 1245 583.633 1245 580.552H1233C1233 579.919 1233.3 579.785 1232.91 580.24C1232.48 580.734 1231.56 581.515 1229.86 582.485C1226.46 584.426 1221.06 586.494 1213.55 588.567C1198.63 592.686 1176.76 596.463 1149.41 599.658C1094.78 606.038 1019.15 610 935.5 610V622ZM1245 580.552C1245 575.796 1241.84 572.387 1238.89 570.193C1235.78 567.883 1231.56 565.885 1226.67 564.099C1216.8 560.499 1202.73 557.242 1185.4 554.348C1150.67 548.544 1101.78 544.029 1044.78 541.466L1044.24 553.454C1101 556.006 1149.36 560.492 1183.43 566.184C1200.51 569.037 1213.73 572.151 1222.55 575.372C1227 576.995 1229.98 578.52 1231.73 579.823C1233.64 581.241 1233 581.536 1233 580.552H1245ZM1040.24 543.244C1038.69 544.813 1037.1 546.346 1035.49 547.843L1043.63 556.652C1045.39 555.032 1047.1 553.373 1048.78 551.675L1040.24 543.244ZM1150.22 554.494C1119.27 550.878 1081.69 548.042 1039.82 546.253L1039.3 558.242C1080.96 560.022 1118.24 562.84 1148.83 566.413L1150.22 554.494ZM1215.42 565.791C1199.98 561.53 1177.7 557.703 1150.22 554.494L1148.83 566.413C1176.1 569.597 1197.67 573.339 1212.22 577.358L1215.42 565.791ZM1233.33 572.54C1229.18 570.171 1223.12 567.919 1215.42 565.791L1212.22 577.358C1219.58 579.391 1224.52 581.328 1227.38 582.962L1233.33 572.54ZM1238.19 576.272C1237.05 574.963 1235.4 573.724 1233.33 572.54L1227.38 582.962C1228.07 583.353 1228.53 583.67 1228.82 583.894C1229.13 584.127 1229.2 584.219 1229.13 584.146L1238.19 576.272ZM1238.95 577.266C1238.72 576.923 1238.47 576.593 1238.19 576.272L1229.13 584.146C1229.1 584.114 1229.02 584.012 1228.91 583.839L1238.95 577.266ZM1238.19 584.833C1238.47 584.512 1238.72 584.182 1238.95 583.839L1228.91 577.266C1229.02 577.093 1229.1 576.99 1229.13 576.959L1238.19 584.833ZM1233.33 588.565C1235.4 587.381 1237.05 586.141 1238.19 584.833L1229.13 576.959C1229.2 576.886 1229.13 576.978 1228.82 577.211C1228.53 577.435 1228.07 577.752 1227.38 578.143L1233.33 588.565ZM1215.42 595.314C1223.12 593.186 1229.18 590.934 1233.33 588.565L1227.38 578.143C1224.52 579.777 1219.58 581.714 1212.22 583.747L1215.42 595.314ZM1150.22 606.611C1177.7 603.401 1199.98 599.575 1215.42 595.314L1212.22 583.747C1197.67 587.766 1176.1 591.508 1148.83 594.692L1150.22 606.611ZM935.5 617C1019.34 617 1095.25 613.031 1150.22 606.611L1148.83 594.692C1094.45 601.043 1019.02 605 935.5 605V617ZM720.777 606.611C775.749 613.031 851.665 617 935.5 617V605C851.979 605 776.55 601.043 722.169 594.692L720.777 606.611ZM655.584 595.314C671.016 599.575 693.298 603.401 720.777 606.611L722.169 594.692C694.905 591.508 673.331 587.766 658.778 583.747L655.584 595.314ZM637.67 588.565C641.821 590.934 647.877 593.186 655.584 595.314L658.778 583.747C651.416 581.714 646.482 579.777 643.619 578.143L637.67 588.565ZM632.812 584.833C633.95 586.141 635.597 587.381 637.67 588.565L643.619 578.143C642.934 577.752 642.47 577.435 642.177 577.211C641.872 576.978 641.804 576.886 641.868 576.959L632.812 584.833ZM632.055 583.839C632.279 584.181 632.533 584.512 632.812 584.833L641.868 576.959C641.895 576.991 641.981 577.093 642.094 577.266L632.055 583.839ZM632.812 576.272C632.533 576.593 632.279 576.924 632.055 577.266L642.094 583.839C641.981 584.012 641.895 584.114 641.868 584.146L632.812 576.272ZM637.67 572.54C635.597 573.724 633.95 574.963 632.812 576.272L641.868 584.146C641.804 584.219 641.872 584.127 642.177 583.894C642.47 583.67 642.934 583.353 643.619 582.962L637.67 572.54ZM655.584 565.791C647.877 567.919 641.821 570.171 637.67 572.54L643.619 582.962C646.482 581.328 651.416 579.391 658.778 577.358L655.584 565.791ZM720.777 554.494C693.298 557.703 671.016 561.53 655.584 565.791L658.778 577.358C673.331 573.339 694.905 569.597 722.169 566.413L720.777 554.494ZM832.879 546.181C790.328 547.966 752.151 550.83 720.777 554.494L722.169 566.413C753.176 562.791 791.045 559.946 833.382 558.171L832.879 546.181ZM837.208 547.774C835.59 546.276 834.007 544.741 832.46 543.172L823.915 551.597C825.589 553.296 827.303 554.956 829.054 556.578L837.208 547.774ZM1234.02 586.366C1232.13 586.366 1230.54 585.494 1229.52 584.326C1228.66 583.349 1228.34 582.351 1228.22 581.897C1227.98 580.986 1228.02 580.24 1228.03 580.075C1228.06 579.573 1228.14 579.188 1228.16 579.102C1228.22 578.826 1228.29 578.616 1228.31 578.539C1228.37 578.339 1228.44 578.182 1228.48 578.085L1239.56 582.691C1239.6 582.579 1239.67 582.411 1239.74 582.204C1239.76 582.123 1239.83 581.911 1239.89 581.633C1239.91 581.547 1239.99 581.161 1240.02 580.659C1240.03 580.493 1240.07 579.747 1239.83 578.836C1239.71 578.382 1239.39 577.384 1238.53 576.407C1237.51 575.238 1235.91 574.366 1234.02 574.366V586.366ZM1239.82 581.91C1239.79 582.033 1239.74 582.202 1239.67 582.402C1239.64 582.486 1239.57 582.669 1239.47 582.895C1239.43 582.982 1239.3 583.247 1239.1 583.564C1239.02 583.698 1238.78 584.066 1238.4 584.472C1238.21 584.673 1237.84 585.044 1237.29 585.402C1236.79 585.725 1235.64 586.366 1234.02 586.366V574.366C1232.41 574.366 1231.26 575.008 1230.76 575.33C1230.21 575.688 1229.84 576.06 1229.65 576.261C1229.27 576.667 1229.03 577.035 1228.95 577.169C1228.75 577.486 1228.62 577.752 1228.58 577.84C1228.48 578.068 1228.41 578.254 1228.38 578.342C1228.3 578.548 1228.25 578.729 1228.21 578.867L1239.82 581.91ZM636.462 586.344C635.023 586.221 634.022 585.617 633.578 585.312C633.083 584.972 632.744 584.628 632.564 584.434C632.206 584.045 631.981 583.696 631.895 583.56C631.699 583.248 631.577 582.987 631.535 582.898C631.43 582.671 631.362 582.488 631.332 582.403C631.26 582.204 631.211 582.034 631.179 581.913L642.786 578.864C642.75 578.727 642.698 578.547 642.623 578.34C642.592 578.252 642.522 578.066 642.416 577.838C642.374 577.747 642.252 577.486 642.055 577.174C641.97 577.037 641.745 576.688 641.386 576.299C641.207 576.105 640.868 575.761 640.372 575.42C639.928 575.116 638.927 574.512 637.488 574.388L636.462 586.344ZM642.519 578.076C642.56 578.174 642.623 578.333 642.689 578.537C642.714 578.614 642.782 578.831 642.843 579.117C642.861 579.201 642.951 579.611 642.971 580.144C642.977 580.309 643.016 581.136 642.71 582.13C642.554 582.637 642.151 583.721 641.117 584.707C639.878 585.889 638.186 586.492 636.462 586.344L637.488 574.388C635.764 574.24 634.072 574.844 632.833 576.025C631.799 577.012 631.396 578.096 631.24 578.603C630.934 579.597 630.973 580.424 630.979 580.589C630.999 581.123 631.089 581.534 631.107 581.619C631.168 581.906 631.238 582.125 631.264 582.206C631.331 582.417 631.399 582.588 631.446 582.7L642.519 578.076ZM636.424 574.764C638.141 574.605 639.845 575.194 641.099 576.381C642.145 577.37 642.552 578.462 642.709 578.971C643.016 579.97 642.977 580.8 642.971 580.964C642.951 581.497 642.861 581.907 642.843 581.991C642.782 582.276 642.713 582.492 642.688 582.569C642.623 582.772 642.56 582.931 642.519 583.029L631.446 578.405C631.399 578.517 631.332 578.687 631.264 578.897C631.238 578.978 631.169 579.197 631.108 579.483C631.089 579.568 630.999 579.979 630.979 580.513C630.973 580.677 630.933 581.507 631.241 582.506C631.398 583.015 631.805 584.107 632.851 585.097C634.105 586.283 635.809 586.872 637.526 586.713L636.424 574.764ZM631.179 579.192C631.212 579.07 631.26 578.9 631.332 578.7C631.363 578.616 631.431 578.432 631.536 578.207C631.577 578.117 631.699 577.858 631.894 577.547C631.979 577.412 632.202 577.065 632.558 576.678C632.736 576.484 633.072 576.143 633.563 575.804C634.001 575.501 634.993 574.896 636.424 574.764L637.526 586.713C638.957 586.581 639.95 585.976 640.388 585.674C640.879 585.334 641.214 584.993 641.392 584.799C641.748 584.412 641.971 584.065 642.057 583.929C642.252 583.618 642.374 583.358 642.416 583.268C642.522 583.04 642.591 582.854 642.623 582.766C642.697 582.559 642.75 582.378 642.786 582.241L631.179 579.192ZM1228.48 583.021C1228.44 582.924 1228.38 582.767 1228.31 582.567C1228.29 582.49 1228.22 582.28 1228.16 582.004C1228.14 581.918 1228.06 581.533 1228.03 581.03C1228.02 580.865 1227.98 580.119 1228.22 579.206C1228.34 578.752 1228.66 577.754 1229.52 576.777C1230.55 575.608 1232.14 574.739 1234.02 574.739V586.739C1235.91 586.739 1237.5 585.869 1238.53 584.7C1239.39 583.723 1239.71 582.725 1239.83 582.271C1240.07 581.358 1240.03 580.611 1240.02 580.446C1239.99 579.943 1239.91 579.557 1239.89 579.471C1239.83 579.193 1239.76 578.98 1239.74 578.899C1239.67 578.692 1239.6 578.524 1239.56 578.413L1228.48 583.021ZM1234.02 574.739C1235.64 574.739 1236.79 575.379 1237.28 575.701C1237.84 576.058 1238.21 576.43 1238.4 576.631C1238.78 577.037 1239.02 577.404 1239.1 577.539C1239.3 577.855 1239.42 578.12 1239.46 578.208C1239.57 578.434 1239.64 578.618 1239.67 578.702C1239.74 578.901 1239.79 579.071 1239.82 579.195L1228.21 582.239C1228.25 582.377 1228.3 582.558 1228.38 582.764C1228.41 582.852 1228.48 583.039 1228.58 583.266C1228.62 583.355 1228.75 583.621 1228.95 583.938C1229.03 584.073 1229.27 584.44 1229.65 584.846C1229.84 585.047 1230.21 585.419 1230.77 585.776C1231.26 586.098 1232.41 586.739 1234.02 586.739V574.739Z" fill="#F3EA00" fill-opacity="0.66" mask="url(#path-76-outside-1_0_1)"/>
</g>
<g filter="url(#filter12_i_0_1)">
<circle cx="341" cy="549" r="89" fill="#0054F8"/>
</g>
<path d="M286 524L332 525" stroke="white" stroke-width="15" stroke-linecap="round"/>
<path d="M364 571L410 572" stroke="white" stroke-width="15" stroke-linecap="round"/>
<path d="M292 587L338 588" stroke="white" stroke-width="15" stroke-linecap="round"/>
<path d="M270 553L309 554" stroke="#00891E" stroke-width="15" stroke-linecap="round"/>
<path d="M286 544L325 545" stroke="#00891E" stroke-width="15" stroke-linecap="round"/>
<path d="M371 592L401 593" stroke="#00891E" stroke-width="15" stroke-linecap="round"/>
<path d="M321 612L334 612" stroke="#00891E" stroke-width="15" stroke-linecap="round"/>
<path d="M352 498L382 499" stroke="#00891E" stroke-width="15" stroke-linecap="round"/>
<path d="M334 507L364 508" stroke="#00891E" stroke-width="15" stroke-linecap="round"/>
<path d="M367 518L406 519" stroke="white" stroke-width="15" stroke-linecap="round"/>
<path d="M322 542L322 526" stroke="white" stroke-width="15" stroke-linecap="round"/>
<path d="M294 545L333 546" stroke="white" stroke-width="15" stroke-linecap="round"/>
<rect x="102" y="163" width="63.5312" height="30" rx="3" fill="white"/>
<rect x="102.5" y="163.5" width="62.5312" height="29" rx="2.5" stroke="black" stroke-opacity="0.14902"/>
<path d="M108.969 181V173H111.672C112.297 173 112.81 173.107 113.211 173.32C113.612 173.531 113.909 173.822 114.102 174.191C114.294 174.561 114.391 174.982 114.391 175.453C114.391 175.924 114.294 176.342 114.102 176.707C113.909 177.072 113.613 177.358 113.215 177.566C112.816 177.772 112.307 177.875 111.688 177.875H109.5V177H111.656C112.083 177 112.427 176.937 112.688 176.812C112.951 176.687 113.141 176.51 113.258 176.281C113.378 176.049 113.438 175.773 113.438 175.453C113.438 175.133 113.378 174.853 113.258 174.613C113.138 174.374 112.947 174.189 112.684 174.059C112.421 173.926 112.073 173.859 111.641 173.859H109.938V181H108.969ZM112.734 177.406L114.703 181H113.578L111.641 177.406H112.734ZM118.253 181.125C117.711 181.125 117.236 180.996 116.827 180.738C116.421 180.48 116.103 180.12 115.874 179.656C115.647 179.193 115.534 178.651 115.534 178.031C115.534 177.406 115.647 176.861 115.874 176.395C116.103 175.928 116.421 175.566 116.827 175.309C117.236 175.051 117.711 174.922 118.253 174.922C118.795 174.922 119.269 175.051 119.675 175.309C120.084 175.566 120.401 175.928 120.628 176.395C120.857 176.861 120.972 177.406 120.972 178.031C120.972 178.651 120.857 179.193 120.628 179.656C120.401 180.12 120.084 180.48 119.675 180.738C119.269 180.996 118.795 181.125 118.253 181.125ZM118.253 180.297C118.664 180.297 119.003 180.191 119.269 179.98C119.534 179.77 119.731 179.492 119.858 179.148C119.986 178.805 120.05 178.432 120.05 178.031C120.05 177.63 119.986 177.257 119.858 176.91C119.731 176.564 119.534 176.284 119.269 176.07C119.003 175.857 118.664 175.75 118.253 175.75C117.841 175.75 117.503 175.857 117.237 176.07C116.972 176.284 116.775 176.564 116.647 176.91C116.52 177.257 116.456 177.63 116.456 178.031C116.456 178.432 116.52 178.805 116.647 179.148C116.775 179.492 116.972 179.77 117.237 179.98C117.503 180.191 117.841 180.297 118.253 180.297ZM124.816 181.125C124.254 181.125 123.77 180.992 123.363 180.727C122.957 180.461 122.645 180.095 122.426 179.629C122.207 179.163 122.098 178.63 122.098 178.031C122.098 177.422 122.21 176.884 122.434 176.418C122.66 175.949 122.975 175.583 123.379 175.32C123.785 175.055 124.259 174.922 124.801 174.922C125.223 174.922 125.603 175 125.941 175.156C126.28 175.312 126.557 175.531 126.773 175.812C126.99 176.094 127.124 176.422 127.176 176.797H126.254C126.184 176.523 126.027 176.281 125.785 176.07C125.546 175.857 125.223 175.75 124.816 175.75C124.457 175.75 124.142 175.844 123.871 176.031C123.603 176.216 123.393 176.478 123.242 176.816C123.094 177.152 123.02 177.547 123.02 178C123.02 178.464 123.092 178.867 123.238 179.211C123.387 179.555 123.595 179.822 123.863 180.012C124.134 180.202 124.452 180.297 124.816 180.297C125.056 180.297 125.273 180.255 125.469 180.172C125.664 180.089 125.829 179.969 125.965 179.812C126.1 179.656 126.197 179.469 126.254 179.25H127.176C127.124 179.604 126.995 179.923 126.789 180.207C126.586 180.488 126.316 180.712 125.98 180.879C125.647 181.043 125.259 181.125 124.816 181.125ZM129.383 178.812L129.367 177.672H129.555L132.18 175H133.32L130.523 177.828H130.445L129.383 178.812ZM128.523 181V173H129.445V181H128.523ZM132.336 181L129.992 178.031L130.648 177.391L133.508 181H132.336ZM137.726 181V173H140.429C141.054 173 141.567 173.107 141.968 173.32C142.369 173.531 142.666 173.822 142.858 174.191C143.051 174.561 143.147 174.982 143.147 175.453C143.147 175.924 143.051 176.342 142.858 176.707C142.666 177.072 142.37 177.358 141.972 177.566C141.573 177.772 141.064 177.875 140.444 177.875H138.257V177H140.413C140.84 177 141.184 176.937 141.444 176.812C141.707 176.687 141.897 176.51 142.015 176.281C142.134 176.049 142.194 175.773 142.194 175.453C142.194 175.133 142.134 174.853 142.015 174.613C141.895 174.374 141.703 174.189 141.44 174.059C141.177 173.926 140.83 173.859 140.397 173.859H138.694V181H137.726ZM141.491 177.406L143.46 181H142.335L140.397 177.406H141.491ZM144.637 181V175H145.559V181H144.637ZM145.105 174C144.926 174 144.771 173.939 144.641 173.816C144.513 173.694 144.449 173.547 144.449 173.375C144.449 173.203 144.513 173.056 144.641 172.934C144.771 172.811 144.926 172.75 145.105 172.75C145.285 172.75 145.439 172.811 145.566 172.934C145.697 173.056 145.762 173.203 145.762 173.375C145.762 173.547 145.697 173.694 145.566 173.816C145.439 173.939 145.285 174 145.105 174ZM148.169 177.391V181H147.247V175H148.138V175.937H148.216C148.356 175.633 148.57 175.388 148.856 175.203C149.143 175.016 149.513 174.922 149.966 174.922C150.372 174.922 150.728 175.005 151.032 175.172C151.337 175.336 151.574 175.586 151.743 175.922C151.912 176.255 151.997 176.677 151.997 177.188V181H151.075V177.25C151.075 176.779 150.953 176.411 150.708 176.148C150.463 175.883 150.127 175.75 149.7 175.75C149.406 175.75 149.143 175.814 148.911 175.941C148.682 176.069 148.501 176.255 148.368 176.5C148.235 176.745 148.169 177.042 148.169 177.391ZM156.104 183.375C155.658 183.375 155.275 183.318 154.955 183.203C154.635 183.091 154.368 182.943 154.154 182.758C153.943 182.576 153.775 182.38 153.65 182.172L154.385 181.656C154.468 181.766 154.574 181.891 154.701 182.031C154.829 182.174 155.003 182.298 155.225 182.402C155.449 182.509 155.742 182.562 156.104 182.562C156.588 182.562 156.988 182.445 157.303 182.211C157.618 181.977 157.775 181.609 157.775 181.109V179.891H157.697C157.63 180 157.533 180.135 157.408 180.297C157.286 180.456 157.109 180.598 156.877 180.723C156.648 180.845 156.338 180.906 155.947 180.906C155.463 180.906 155.028 180.792 154.643 180.563C154.26 180.333 153.956 180 153.732 179.562C153.511 179.125 153.4 178.594 153.4 177.969C153.4 177.354 153.508 176.819 153.725 176.363C153.941 175.905 154.242 175.551 154.627 175.301C155.012 175.048 155.458 174.922 155.963 174.922C156.354 174.922 156.663 174.987 156.893 175.117C157.124 175.245 157.301 175.391 157.424 175.555C157.549 175.716 157.645 175.849 157.713 175.953H157.807V175H158.697V181.172C158.697 181.688 158.58 182.107 158.346 182.43C158.114 182.755 157.801 182.993 157.408 183.145C157.018 183.298 156.583 183.375 156.104 183.375ZM156.072 180.078C156.442 180.078 156.755 179.993 157.01 179.824C157.265 179.655 157.459 179.411 157.592 179.094C157.725 178.776 157.791 178.396 157.791 177.953C157.791 177.521 157.726 177.139 157.596 176.809C157.465 176.478 157.273 176.219 157.018 176.031C156.762 175.844 156.447 175.75 156.072 175.75C155.682 175.75 155.356 175.849 155.096 176.047C154.838 176.245 154.644 176.51 154.514 176.844C154.386 177.177 154.322 177.547 154.322 177.953C154.322 178.37 154.387 178.738 154.518 179.059C154.65 179.376 154.846 179.626 155.104 179.809C155.364 179.988 155.687 180.078 156.072 180.078Z" fill="black"/>
<defs>
<filter id="filter0_f_0_1" x="-1204" y="40" width="1298" height="1220.52" filterUnits="userSpaceOnUse" color-interpolation-filters="sRGB">
<feFlood flood-opacity="0" result="BackgroundImageFix"/>
<feBlend mode="normal" in="SourceGraphic" in2="BackgroundImageFix" result="shape"/>
<feGaussianBlur stdDeviation="63" result="effect1_foregroundBlur_0_1"/>
</filter>
<filter id="filter1_f_0_1" x="-675.653" y="260.105" width="705.353" height="651.453" filterUnits="userSpaceOnUse" color-interpolation-filters="sRGB">
<feFlood flood-opacity="0" result="BackgroundImageFix"/>
<feBlend mode="normal" in="SourceGraphic" in2="BackgroundImageFix" result="shape"/>
<feGaussianBlur stdDeviation="30.85" result="effect1_foregroundBlur_0_1"/>
</filter>
<filter id="filter2_f_0_1" x="-1072.96" y="-79.1368" width="1311.54" height="1211.22" filterUnits="userSpaceOnUse" color-interpolation-filters="sRGB">
<feFlood flood-opacity="0" result="BackgroundImageFix"/>
<feBlend mode="normal" in="SourceGraphic" in2="BackgroundImageFix" result="shape"/>
<feGaussianBlur stdDeviation="63" result="effect1_foregroundBlur_0_1"/>
</filter>
<filter id="filter3_f_0_1" x="-588.467" y="201.725" width="704.944" height="665.467" filterUnits="userSpaceOnUse" color-interpolation-filters="sRGB">
<feFlood flood-opacity="0" result="BackgroundImageFix"/>
<feBlend mode="normal" in="SourceGraphic" in2="BackgroundImageFix" result="shape"/>
<feGaussianBlur stdDeviation="30.85" result="effect1_foregroundBlur_0_1"/>
</filter>
<filter id="filter4_f_0_1" x="-530.52" y="93.6694" width="704.798" height="652.163" filterUnits="userSpaceOnUse" color-interpolation-filters="sRGB">
<feFlood flood-opacity="0" result="BackgroundImageFix"/>
<feBlend mode="normal" in="SourceGraphic" in2="BackgroundImageFix" result="shape"/>
<feGaussianBlur stdDeviation="30.85" result="effect1_foregroundBlur_0_1"/>
</filter>
<filter id="filter5_i_0_1" x="546" y="496" width="49" height="53" filterUnits="userSpaceOnUse" color-interpolation-filters="sRGB">
<feFlood flood-opacity="0" result="BackgroundImageFix"/>
<feBlend mode="normal" in="SourceGraphic" in2="BackgroundImageFix" result="shape"/>
<feColorMatrix in="SourceAlpha" type="matrix" values="0 0 0 0 0 0 0 0 0 0 0 0 0 0 0 0 0 0 127 0" result="hardAlpha"/>
<feOffset dy="-6"/>
<feGaussianBlur stdDeviation="2"/>
<feComposite in2="hardAlpha" operator="arithmetic" k2="-1" k3="1"/>
<feColorMatrix type="matrix" values="0 0 0 0 0 0 0 0 0 0 0 0 0 0 0 0 0 0 0.25 0"/>
<feBlend mode="normal" in2="shape" result="effect1_innerShadow_0_1"/>
</filter>
<filter id="filter6_i_0_1" x="569" y="506" width="17" height="18" filterUnits="userSpaceOnUse" color-interpolation-filters="sRGB">
<feFlood flood-opacity="0" result="BackgroundImageFix"/>
<feBlend mode="normal" in="SourceGraphic" in2="BackgroundImageFix" result="shape"/>
<feColorMatrix in="SourceAlpha" type="matrix" values="0 0 0 0 0 0 0 0 0 0 0 0 0 0 0 0 0 0 127 0" result="hardAlpha"/>
<feOffset dy="1"/>
<feGaussianBlur stdDeviation="3.15"/>
<feComposite in2="hardAlpha" operator="arithmetic" k2="-1" k3="1"/>
<feColorMatrix type="matrix" values="0 0 0 0 0 0 0 0 0 0 0 0 0 0 0 0 0 0 0.25 0"/>
<feBlend mode="normal" in2="shape" result="effect1_innerShadow_0_1"/>
</filter>
<filter id="filter7_i_0_1" x="566" y="525" width="20" height="20" filterUnits="userSpaceOnUse" color-interpolation-filters="sRGB">
<feFlood flood-opacity="0" result="BackgroundImageFix"/>
<feBlend mode="normal" in="SourceGraphic" in2="BackgroundImageFix" result="shape"/>
<feColorMatrix in="SourceAlpha" type="matrix" values="0 0 0 0 0 0 0 0 0 0 0 0 0 0 0 0 0 0 127 0" result="hardAlpha"/>
<feOffset dy="1"/>
<feGaussianBlur stdDeviation="3.15"/>
<feComposite in2="hardAlpha" operator="arithmetic" k2="-1" k3="1"/>
<feColorMatrix type="matrix" values="0 0 0 0 0 0 0 0 0 0 0 0 0 0 0 0 0 0 0.25 0"/>
<feBlend mode="normal" in2="shape" result="effect1_innerShadow_0_1"/>
</filter>
<filter id="filter8_i_0_1" x="550.124" y="510.916" width="10.1379" height="13.8965" filterUnits="userSpaceOnUse" color-interpolation-filters="sRGB">
<feFlood flood-opacity="0" result="BackgroundImageFix"/>
<feBlend mode="normal" in="SourceGraphic" in2="BackgroundImageFix" result="shape"/>
<feColorMatrix in="SourceAlpha" type="matrix" values="0 0 0 0 0 0 0 0 0 0 0 0 0 0 0 0 0 0 127 0" result="hardAlpha"/>
<feOffset dy="1"/>
<feGaussianBlur stdDeviation="3.15"/>
<feComposite in2="hardAlpha" operator="arithmetic" k2="-1" k3="1"/>
<feColorMatrix type="matrix" values="0 0 0 0 0 0 0 0 0 0 0 0 0 0 0 0 0 0 0.25 0"/>
<feBlend mode="normal" in2="shape" result="effect1_innerShadow_0_1"/>
</filter>
<filter id="filter9_f_0_1" x="276.068" y="51.5393" width="382.373" height="524.152" filterUnits="userSpaceOnUse" color-interpolation-filters="sRGB">
<feFlood flood-opacity="0" result="BackgroundImageFix"/>
<feBlend mode="normal" in="SourceGraphic" in2="BackgroundImageFix" result="shape"/>
<feGaussianBlur stdDeviation="38.45" result="effect1_foregroundBlur_0_1"/>
</filter>
<filter id="filter10_f_0_1" x="0.921043" y="555.654" width="392.214" height="523.894" filterUnits="userSpaceOnUse" color-interpolation-filters="sRGB">
<feFlood flood-opacity="0" result="BackgroundImageFix"/>
<feBlend mode="normal" in="SourceGraphic" in2="BackgroundImageFix" result="shape"/>
<feGaussianBlur stdDeviation="38.45" result="effect1_foregroundBlur_0_1"/>
</filter>
<filter id="filter11_f_0_1" x="623" y="538.273" width="625" height="86.7276" filterUnits="userSpaceOnUse" color-interpolation-filters="sRGB">
<feFlood flood-opacity="0" result="BackgroundImageFix"/>
<feBlend mode="normal" in="SourceGraphic" in2="BackgroundImageFix" result="shape"/>
<feGaussianBlur stdDeviation="1.5" result="effect1_foregroundBlur_0_1"/>
</filter>
<filter id="filter12_i_0_1" x="252" y="460" width="183" height="184" filterUnits="userSpaceOnUse" color-interpolation-filters="sRGB">
<feFlood flood-opacity="0" result="BackgroundImageFix"/>
<feBlend mode="normal" in="SourceGraphic" in2="BackgroundImageFix" result="shape"/>
<feColorMatrix in="SourceAlpha" type="matrix" values="0 0 0 0 0 0 0 0 0 0 0 0 0 0 0 0 0 0 127 0" result="hardAlpha"/>
<feMorphology radius="3" operator="erode" in="SourceAlpha" result="effect1_innerShadow_0_1"/>
<feOffset dx="5" dy="6"/>
<feGaussianBlur stdDeviation="6.45"/>
<feComposite in2="hardAlpha" operator="arithmetic" k2="-1" k3="1"/>
<feColorMatrix type="matrix" values="0 0 0 0 0 0 0 0 0 0 0 0 0 0 0 0 0 0 0.4 0"/>
<feBlend mode="normal" in2="shape" result="effect1_innerShadow_0_1"/>
</filter>
</defs>
</svg>
