<svg width="532" height="1043" viewBox="0 0 532 1043" fill="none" xmlns="http://www.w3.org/2000/svg">
<g filter="url(#filter0_f_51_498)">
<path fill-rule="evenodd" clip-rule="evenodd" d="M420.717 17.7161C407.492 83.4456 409.096 129.384 428.498 137.226C447.801 145.028 480.634 113.471 516.575 57.5509C507.443 84.6008 496.898 113.096 485.088 142.317C423.624 294.395 351.175 408.535 323.269 397.256C295.362 385.977 322.566 253.551 384.03 101.473C395.98 71.9058 408.345 43.7725 420.717 17.7161Z" fill="white"/>
</g>
<g filter="url(#filter1_f_51_498)">
<path fill-rule="evenodd" clip-rule="evenodd" d="M422.286 10.1549C407.396 79.907 408.36 129.087 428.498 137.226C448.636 145.365 483.501 110.666 521.258 50.1557L521.471 50.2419C515.848 65.5054 509.832 81.095 503.445 96.8968C441.981 248.974 369.532 363.114 341.626 351.836C313.719 340.557 340.923 208.131 402.387 56.0529C408.773 40.2512 415.278 24.8591 421.84 9.97465L422.286 10.1549Z" fill="#08C0FB" fill-opacity="0.23"/>
</g>
<g filter="url(#filter2_f_51_498)">
<path fill-rule="evenodd" clip-rule="evenodd" d="M422.286 10.1548C407.396 79.907 408.36 129.087 428.498 137.226C448.636 145.365 483.501 110.666 521.258 50.1556L521.883 50.4081C463.411 187.121 398.632 285.708 372.604 275.189C346.575 264.669 368.489 148.757 421.428 9.80841L422.286 10.1548Z" fill="#08C0FB" fill-opacity="0.23"/>
</g>
<g filter="url(#filter3_f_51_498)">
<path fill-rule="evenodd" clip-rule="evenodd" d="M428.498 137.226C411.579 130.388 408.194 94.5832 416.374 41.9481C392.681 125.962 387.046 186.355 405.494 193.811C423.799 201.209 461.27 154.642 502.235 78.8015C472.027 121.264 445.199 143.976 428.498 137.226Z" fill="#0878FB" fill-opacity="0.23"/>
</g>
<g filter="url(#filter4_f_51_498)">
<path d="M369.422 305.357C363.985 318.585 357.925 329.901 352.555 337.502C349.86 341.315 347.401 344.103 345.344 345.742C344.314 346.562 343.465 347.028 342.809 347.23C342.166 347.427 341.844 347.335 341.694 347.257C341.543 347.179 341.272 346.963 340.989 346.285C340.701 345.592 340.466 344.563 340.354 343.15C340.131 340.327 340.426 336.415 341.263 331.636C342.93 322.112 346.668 309.59 352.105 296.362C357.542 283.133 363.602 271.817 368.973 264.217C371.667 260.403 374.126 257.615 376.183 255.977C377.213 255.157 378.062 254.69 378.719 254.489C379.361 254.291 379.684 254.383 379.834 254.461C379.984 254.539 380.255 254.755 380.538 255.433C380.827 256.126 381.061 257.155 381.173 258.569C381.396 261.392 381.101 265.304 380.265 270.082C378.597 279.606 374.859 292.128 369.422 305.357Z" stroke="#00C0FD" stroke-opacity="0.65" stroke-width="4"/>
<path d="M409.83 209.194C404.423 222.349 398.391 233.598 393.041 241.149C390.356 244.939 387.906 247.707 385.855 249.332C384.829 250.145 383.983 250.607 383.328 250.806C382.688 251.001 382.364 250.909 382.21 250.829C382.057 250.75 381.785 250.532 381.502 249.857C381.212 249.167 380.977 248.144 380.862 246.738C380.634 243.929 380.921 240.038 381.748 235.284C383.396 225.809 387.106 213.354 392.513 200.199C397.92 187.044 403.952 175.795 409.302 168.243C411.986 164.454 414.436 161.686 416.487 160.061C417.514 159.248 418.36 158.786 419.015 158.587C419.655 158.392 419.979 158.484 420.132 158.563C420.286 158.643 420.558 158.861 420.841 159.536C421.13 160.225 421.366 161.249 421.48 162.655C421.709 165.464 421.422 169.355 420.595 174.109C418.947 183.584 415.236 196.039 409.83 209.194Z" stroke="#00C0FD" stroke-opacity="0.65" stroke-width="4"/>
<path d="M445.756 126.036C440.319 139.265 434.26 150.581 428.889 158.181C426.194 161.995 423.736 164.783 421.678 166.421C420.648 167.242 419.8 167.708 419.143 167.91C418.501 168.107 418.178 168.015 418.028 167.937C417.878 167.859 417.607 167.643 417.324 166.965C417.035 166.272 416.801 165.243 416.689 163.83C416.465 161.006 416.76 157.095 417.597 152.316C419.265 142.792 423.003 130.27 428.44 117.042C433.877 103.813 439.937 92.497 445.307 84.8966C448.002 81.0831 450.46 78.2951 452.518 76.6567C453.548 75.8364 454.396 75.3702 455.053 75.1684C455.696 74.9709 456.018 75.0629 456.168 75.1409C456.318 75.2189 456.59 75.4352 456.872 76.1133C457.161 76.8063 457.395 77.8348 457.507 79.2484C457.731 82.0716 457.436 85.9834 456.599 90.762C454.931 100.286 451.193 112.808 445.756 126.036Z" stroke="#00C0FD" stroke-opacity="0.65" stroke-width="4"/>
</g>
<g filter="url(#filter5_f_51_498)">
<path fill-rule="evenodd" clip-rule="evenodd" d="M109.867 1025.91C124.504 960.477 123.89 914.515 104.661 906.257C85.5306 898.042 52.0259 928.885 14.8888 984.018C24.6013 957.171 35.7574 928.909 48.1937 899.949C112.917 749.23 187.807 636.676 215.464 648.553C243.121 660.43 213.073 792.24 148.349 942.959C135.766 972.262 122.797 1000.12 109.867 1025.91Z" fill="white"/>
</g>
<g filter="url(#filter6_f_51_498)">
<path fill-rule="evenodd" clip-rule="evenodd" d="M108.136 1033.43C124.524 964.017 124.619 914.828 104.661 906.257C84.7029 897.686 49.0993 931.627 10.0481 991.31L9.83659 991.22C15.7872 976.081 22.138 960.624 28.8631 944.964C93.5867 794.245 168.476 681.691 196.133 693.568C223.79 705.444 193.742 837.254 129.019 987.974C122.294 1003.63 115.459 1018.88 108.578 1033.62L108.136 1033.43Z" fill="#08C0FB" fill-opacity="0.23"/>
</g>
<g filter="url(#filter7_f_51_498)">
<path fill-rule="evenodd" clip-rule="evenodd" d="M108.136 1033.43C124.524 964.017 124.619 914.828 104.661 906.257C84.7028 897.686 49.0992 931.627 10.048 991.31L9.42889 991.045C70.8308 855.622 137.716 758.452 163.513 769.53C189.309 780.607 164.904 896.021 108.986 1033.8L108.136 1033.43Z" fill="#08C0FB" fill-opacity="0.23"/>
</g>
<g filter="url(#filter8_f_51_498)">
<path fill-rule="evenodd" clip-rule="evenodd" d="M104.661 906.257C121.429 913.457 124.042 949.327 114.732 1001.77C140.228 918.29 147.161 858.032 128.878 850.181C110.736 842.39 72.2714 888.139 29.6837 963.081C60.7981 921.279 88.1095 899.149 104.661 906.257Z" fill="#0878FB" fill-opacity="0.23"/>
</g>
<g filter="url(#filter9_f_51_498)">
<path d="M167.343 739.437C173.064 726.329 179.366 715.146 184.899 707.663C187.675 703.908 190.193 701.174 192.285 699.58C193.333 698.782 194.191 698.334 194.852 698.147C195.498 697.963 195.819 698.062 195.967 698.143C196.116 698.224 196.382 698.447 196.65 699.131C196.924 699.83 197.136 700.863 197.218 702.279C197.38 705.106 197.001 709.011 196.062 713.77C194.189 723.256 190.183 735.694 184.462 748.803C178.742 761.911 172.44 773.094 166.907 780.577C164.13 784.332 161.612 787.066 159.52 788.66C158.473 789.458 157.614 789.906 156.954 790.093C156.307 790.277 155.987 790.178 155.838 790.097C155.69 790.016 155.423 789.794 155.155 789.11C154.881 788.41 154.669 787.377 154.588 785.962C154.425 783.134 154.804 779.23 155.744 774.47C157.616 764.984 161.623 752.546 167.343 739.437Z" stroke="#00C0FD" stroke-opacity="0.65" stroke-width="4"/>
<path d="M124.875 834.708C130.563 821.673 136.836 810.556 142.348 803.121C145.113 799.391 147.622 796.676 149.707 795.095C150.751 794.304 151.607 793.861 152.266 793.676C152.91 793.495 153.232 793.594 153.384 793.677C153.536 793.76 153.803 793.983 154.071 794.664C154.346 795.36 154.56 796.388 154.644 797.796C154.812 800.609 154.441 804.494 153.512 809.229C151.66 818.666 147.682 831.038 141.994 844.073C136.305 857.109 130.032 868.225 124.521 875.66C121.755 879.391 119.246 882.106 117.161 883.686C116.117 884.477 115.261 884.92 114.602 885.105C113.958 885.286 113.636 885.188 113.484 885.105C113.333 885.022 113.065 884.798 112.797 884.117C112.522 883.422 112.309 882.394 112.225 880.985C112.057 878.172 112.428 874.288 113.357 869.553C115.208 860.115 119.186 847.743 124.875 834.708Z" stroke="#00C0FD" stroke-opacity="0.65" stroke-width="4"/>
<path d="M87.1657 917.073C92.8863 903.964 99.1883 892.781 104.721 885.298C107.497 881.544 110.015 878.809 112.108 877.215C113.155 876.417 114.013 875.97 114.674 875.782C115.321 875.598 115.641 875.697 115.79 875.779C115.938 875.86 116.205 876.082 116.473 876.766C116.747 877.465 116.959 878.498 117.04 879.914C117.203 882.741 116.824 886.646 115.884 891.405C114.012 900.891 110.005 913.33 104.285 926.438C98.5642 939.546 92.2623 950.729 86.7293 958.213C83.9531 961.967 81.4351 964.702 79.3429 966.295C78.2953 967.093 77.4371 967.541 76.7762 967.729C76.1294 967.912 75.8092 967.813 75.6608 967.732C75.5123 967.651 75.2458 967.429 74.9777 966.745C74.7038 966.046 74.4919 965.012 74.4104 963.597C74.2476 960.769 74.6268 956.865 75.5662 952.105C77.4385 942.62 81.4452 930.181 87.1657 917.073Z" stroke="#00C0FD" stroke-opacity="0.65" stroke-width="4"/>
</g>
<defs>
<filter id="filter0_f_51_498" x="303.105" y="8.51606" width="222.67" height="398.709" filterUnits="userSpaceOnUse" color-interpolation-filters="sRGB">
<feFlood flood-opacity="0" result="BackgroundImageFix"/>
<feBlend mode="normal" in="SourceGraphic" in2="BackgroundImageFix" result="shape"/>
<feGaussianBlur stdDeviation="4.6" result="effect1_foregroundBlur_51_498"/>
</filter>
<filter id="filter1_f_51_498" x="321.462" y="0.77464" width="209.209" height="361.03" filterUnits="userSpaceOnUse" color-interpolation-filters="sRGB">
<feFlood flood-opacity="0" result="BackgroundImageFix"/>
<feBlend mode="normal" in="SourceGraphic" in2="BackgroundImageFix" result="shape"/>
<feGaussianBlur stdDeviation="4.6" result="effect1_foregroundBlur_51_498"/>
</filter>
<filter id="filter2_f_51_498" x="352.44" y="0.608411" width="178.643" height="284.549" filterUnits="userSpaceOnUse" color-interpolation-filters="sRGB">
<feFlood flood-opacity="0" result="BackgroundImageFix"/>
<feBlend mode="normal" in="SourceGraphic" in2="BackgroundImageFix" result="shape"/>
<feGaussianBlur stdDeviation="4.6" result="effect1_foregroundBlur_51_498"/>
</filter>
<filter id="filter3_f_51_498" x="385.33" y="32.7482" width="126.105" height="171.032" filterUnits="userSpaceOnUse" color-interpolation-filters="sRGB">
<feFlood flood-opacity="0" result="BackgroundImageFix"/>
<feBlend mode="normal" in="SourceGraphic" in2="BackgroundImageFix" result="shape"/>
<feGaussianBlur stdDeviation="4.6" result="effect1_foregroundBlur_51_498"/>
</filter>
<filter id="filter4_f_51_498" x="328.252" y="62.8833" width="141.358" height="296.632" filterUnits="userSpaceOnUse" color-interpolation-filters="sRGB">
<feFlood flood-opacity="0" result="BackgroundImageFix"/>
<feBlend mode="normal" in="SourceGraphic" in2="BackgroundImageFix" result="shape"/>
<feGaussianBlur stdDeviation="5.05" result="effect1_foregroundBlur_51_498"/>
</filter>
<filter id="filter5_f_51_498" x="5.68892" y="638.493" width="229.259" height="396.614" filterUnits="userSpaceOnUse" color-interpolation-filters="sRGB">
<feFlood flood-opacity="0" result="BackgroundImageFix"/>
<feBlend mode="normal" in="SourceGraphic" in2="BackgroundImageFix" result="shape"/>
<feGaussianBlur stdDeviation="4.6" result="effect1_foregroundBlur_51_498"/>
</filter>
<filter id="filter6_f_51_498" x="0.63667" y="683.508" width="214.98" height="359.315" filterUnits="userSpaceOnUse" color-interpolation-filters="sRGB">
<feFlood flood-opacity="0" result="BackgroundImageFix"/>
<feBlend mode="normal" in="SourceGraphic" in2="BackgroundImageFix" result="shape"/>
<feGaussianBlur stdDeviation="4.6" result="effect1_foregroundBlur_51_498"/>
</filter>
<filter id="filter7_f_51_498" x="0.228955" y="759.47" width="182.767" height="283.528" filterUnits="userSpaceOnUse" color-interpolation-filters="sRGB">
<feFlood flood-opacity="0" result="BackgroundImageFix"/>
<feBlend mode="normal" in="SourceGraphic" in2="BackgroundImageFix" result="shape"/>
<feGaussianBlur stdDeviation="4.6" result="effect1_foregroundBlur_51_498"/>
</filter>
<filter id="filter8_f_51_498" x="20.4837" y="840.121" width="127.879" height="170.853" filterUnits="userSpaceOnUse" color-interpolation-filters="sRGB">
<feFlood flood-opacity="0" result="BackgroundImageFix"/>
<feBlend mode="normal" in="SourceGraphic" in2="BackgroundImageFix" result="shape"/>
<feGaussianBlur stdDeviation="4.6" result="effect1_foregroundBlur_51_498"/>
</filter>
<filter id="filter9_f_51_498" x="62.3454" y="685.874" width="146.937" height="294.128" filterUnits="userSpaceOnUse" color-interpolation-filters="sRGB">
<feFlood flood-opacity="0" result="BackgroundImageFix"/>
<feBlend mode="normal" in="SourceGraphic" in2="BackgroundImageFix" result="shape"/>
<feGaussianBlur stdDeviation="5.05" result="effect1_foregroundBlur_51_498"/>
</filter>
</defs>
</svg>
