<svg width="528" height="1045" viewBox="0 0 528 1045" fill="none" xmlns="http://www.w3.org/2000/svg">
<g filter="url(#filter0_f_51_496)">
<path fill-rule="evenodd" clip-rule="evenodd" d="M425.063 9.89791C411.68 37.8789 398.27 68.3853 385.356 100.588C324.302 252.83 297.456 385.33 325.393 396.533C353.329 407.736 425.47 293.401 486.524 141.159C497.429 113.966 507.243 87.4023 515.848 62.0475C487.065 105.592 456.421 130.311 436.349 122.055C414.537 113.082 411.255 67.6528 425.063 9.89791Z" fill="#8800C8"/>
</g>
<g filter="url(#filter1_f_51_496)">
<path d="M372.838 309.501C366.469 324.363 359.378 337.071 353.093 345.601C349.941 349.878 347.058 353.015 344.634 354.861C343.422 355.784 342.406 356.321 341.598 356.554C340.807 356.784 340.34 356.691 340.06 356.547C339.779 356.404 339.415 356.073 339.068 355.263C338.715 354.436 338.442 353.241 338.314 351.633C338.058 348.42 338.416 343.993 339.403 338.61C341.373 327.877 345.763 313.79 352.132 298.928C358.5 284.066 365.592 271.358 371.877 262.828C375.028 258.551 377.912 255.414 380.335 253.568C381.548 252.645 382.564 252.108 383.371 251.875C384.163 251.645 384.629 251.738 384.91 251.882C385.191 252.025 385.555 252.356 385.901 253.166C386.254 253.993 386.528 255.188 386.656 256.796C386.912 260.009 386.554 264.436 385.566 269.819C383.597 280.552 379.207 294.639 372.838 309.501Z" stroke="#00C0FD" stroke-opacity="0.65" stroke-width="4"/>
<path d="M419.136 201.457C412.803 216.236 405.744 228.868 399.483 237.343C396.343 241.594 393.47 244.709 391.054 246.539C389.845 247.455 388.832 247.986 388.027 248.217C387.237 248.443 386.769 248.35 386.485 248.205C386.202 248.06 385.837 247.728 385.489 246.921C385.135 246.098 384.86 244.909 384.729 243.309C384.468 240.112 384.816 235.708 385.792 230.352C387.739 219.674 392.097 205.662 398.43 190.883C404.763 176.103 411.822 163.471 418.083 154.996C421.223 150.746 424.097 147.631 426.513 145.8C427.721 144.885 428.734 144.353 429.539 144.123C430.329 143.897 430.797 143.99 431.081 144.135C431.364 144.279 431.73 144.612 432.077 145.418C432.431 146.241 432.706 147.43 432.837 149.03C433.099 152.228 432.75 156.632 431.774 161.987C429.827 172.665 425.469 186.677 419.136 201.457Z" stroke="#00C0FD" stroke-opacity="0.65" stroke-width="4"/>
<path d="M465.434 93.4121C459.066 108.274 451.974 120.982 445.69 129.511C442.538 133.789 439.654 136.926 437.231 138.771C436.018 139.695 435.002 140.231 434.195 140.465C433.403 140.694 432.937 140.601 432.656 140.458C432.376 140.315 432.011 139.984 431.665 139.173C431.312 138.347 431.038 137.152 430.91 135.544C430.654 132.33 431.012 127.904 432 122.521C433.97 111.788 438.36 97.7006 444.728 82.8384C451.097 67.9763 458.188 55.2688 464.473 46.7392C467.625 42.4614 470.508 39.3245 472.932 37.479C474.144 36.5557 475.16 36.019 475.968 35.7853C476.76 35.556 477.226 35.6491 477.506 35.7924C477.787 35.9357 478.151 36.2667 478.498 37.0771C478.851 37.9035 479.124 39.0987 479.252 40.7066C479.508 43.9202 479.151 48.347 478.163 53.7298C476.193 64.4628 471.803 78.5499 465.434 93.4121Z" stroke="#00C0FD" stroke-opacity="0.65" stroke-width="4"/>
</g>
<g filter="url(#filter2_f_51_496)">
<path fill-rule="evenodd" clip-rule="evenodd" d="M507.688 73.1044C481.519 108.89 454.834 128.244 436.74 120.801C418.054 113.114 412.967 78.6746 420.573 32.6511C393.998 123.471 386.965 189.799 406.374 197.582C425.429 205.224 465.048 154.462 507.688 73.1044Z" fill="#08FBEC" fill-opacity="0.23"/>
</g>
<g filter="url(#filter3_f_51_496)">
<path fill-rule="evenodd" clip-rule="evenodd" d="M424.111 14.4593L422.224 13.7027C415.703 28.6048 409.24 44.0144 402.896 59.8333C341.842 212.076 314.996 344.575 342.933 355.779C370.87 366.982 443.011 252.647 504.064 100.404C510.408 84.5855 516.382 68.9798 521.964 53.7011L521.038 53.3297C490.909 101.476 457.932 129.518 436.74 120.801C415.665 112.132 411.888 69.4294 424.111 14.4593Z" fill="#08FBEC" fill-opacity="0.23"/>
</g>
<g filter="url(#filter4_f_51_496)">
<path fill-rule="evenodd" clip-rule="evenodd" d="M424.111 14.4593L421.813 13.5375C369.248 152.629 347.647 268.599 373.704 279.049C399.761 289.498 464.273 190.736 522.376 53.8661L521.038 53.3297C490.909 101.476 457.932 129.518 436.74 120.801C415.665 112.132 411.889 69.4294 424.111 14.4593Z" fill="#08FBEC" fill-opacity="0.23"/>
</g>
<g filter="url(#filter5_f_51_496)">
<path fill-rule="evenodd" clip-rule="evenodd" d="M101.955 1033.6C115.688 1005.79 129.481 975.452 142.799 943.414C205.763 791.952 234.274 659.801 206.48 648.247C178.687 636.693 105.113 750.111 42.1495 901.574C30.9031 928.628 20.7559 955.065 11.8324 980.31C41.1611 937.131 72.1135 912.799 92.0797 921.308C113.778 930.554 116.488 976.021 101.955 1033.6Z" fill="#8800C8"/>
</g>
<g filter="url(#filter6_f_51_496)">
<path d="M157.944 734.675C164.499 719.894 171.75 707.276 178.141 698.827C181.347 694.589 184.269 691.488 186.716 689.674C187.94 688.766 188.963 688.242 189.773 688.018C190.568 687.799 191.033 687.898 191.311 688.045C191.59 688.191 191.95 688.527 192.286 689.342C192.629 690.172 192.888 691.371 192.995 692.98C193.211 696.197 192.797 700.619 191.742 705.989C189.637 716.696 185.071 730.727 178.516 745.508C171.961 760.289 164.709 772.906 158.318 781.356C155.113 785.594 152.19 788.694 149.743 790.509C148.519 791.417 147.497 791.941 146.687 792.164C145.892 792.384 145.427 792.285 145.148 792.138C144.869 791.991 144.509 791.655 144.173 790.841C143.83 790.01 143.572 788.811 143.464 787.202C143.249 783.985 143.662 779.564 144.718 774.194C146.822 763.486 151.389 749.455 157.944 734.675Z" stroke="#00C0FD" stroke-opacity="0.65" stroke-width="4"/>
<path d="M110.29 842.128C116.809 827.43 124.027 814.887 130.393 806.492C133.587 802.281 136.499 799.203 138.938 797.403C140.158 796.502 141.177 795.984 141.986 795.763C142.778 795.547 143.245 795.646 143.527 795.794C143.808 795.943 144.169 796.28 144.506 797.091C144.85 797.918 145.111 799.11 145.221 800.712C145.442 803.912 145.039 808.312 143.995 813.654C141.914 824.307 137.38 838.263 130.862 852.962C124.343 867.66 117.126 880.203 110.759 888.598C107.566 892.809 104.653 895.887 102.214 897.687C100.994 898.588 99.9748 899.106 99.1666 899.327C98.3742 899.543 97.9077 899.444 97.6257 899.296C97.3438 899.147 96.9829 898.81 96.6459 897.999C96.3023 897.172 96.0417 895.98 95.931 894.378C95.7098 891.178 96.1136 886.778 97.1572 881.436C99.238 870.783 103.772 856.827 110.29 842.128Z" stroke="#00C0FD" stroke-opacity="0.65" stroke-width="4"/>
<path d="M62.6366 949.582C69.1916 934.801 76.4427 922.184 82.8339 913.734C86.0394 909.496 88.9621 906.396 91.4087 904.581C92.6328 903.673 93.6554 903.149 94.4656 902.925C95.2603 902.706 95.7253 902.805 96.004 902.952C96.2828 903.099 96.6429 903.434 96.979 904.249C97.3217 905.08 97.5804 906.278 97.6881 907.888C97.9034 911.104 97.4901 915.526 96.4346 920.896C94.3301 931.603 89.7632 945.634 83.2082 960.415C76.6531 975.196 69.4021 987.813 63.0108 996.263C59.8054 1000.5 56.8826 1003.6 54.4361 1005.42C53.2119 1006.32 52.1894 1006.85 51.3791 1007.07C50.5845 1007.29 50.1195 1007.19 49.8407 1007.05C49.5619 1006.9 49.2018 1006.56 48.8657 1005.75C48.5231 1004.92 48.2643 1003.72 48.1566 1002.11C47.9414 998.893 48.3546 994.471 49.4101 989.101C51.5147 978.394 56.0815 964.363 62.6366 949.582Z" stroke="#00C0FD" stroke-opacity="0.65" stroke-width="4"/>
</g>
<g filter="url(#filter7_f_51_496)">
<path fill-rule="evenodd" clip-rule="evenodd" d="M20.131 969.357C46.7478 933.903 73.6743 914.887 91.6731 922.557C110.26 930.477 114.914 964.978 106.73 1010.9C134.445 920.424 142.312 854.19 123.003 846.163C104.045 838.283 63.7904 888.542 20.131 969.357Z" fill="#08FBEC" fill-opacity="0.23"/>
</g>
<g filter="url(#filter8_f_51_496)">
<path fill-rule="evenodd" clip-rule="evenodd" d="M102.963 1029.05L104.84 1029.83C111.549 1015.01 118.205 999.683 124.748 983.945C187.711 832.482 216.222 700.331 188.429 688.777C160.635 677.223 87.0617 790.642 24.098 942.104C17.5557 957.842 11.3853 973.371 5.61149 988.579L6.5329 988.962C37.2656 941.198 70.5928 913.573 91.6733 922.556C112.637 931.49 115.877 974.236 102.963 1029.05Z" fill="#08FBEC" fill-opacity="0.23"/>
</g>
<g filter="url(#filter9_f_51_496)">
<path fill-rule="evenodd" clip-rule="evenodd" d="M102.963 1029.05L105.25 1030C159.56 891.58 182.619 775.89 156.695 765.114C130.772 754.338 65.0224 852.28 5.20189 988.408L6.53282 988.962C37.2656 941.198 70.5927 913.573 91.6732 922.556C112.637 931.49 115.876 974.236 102.963 1029.05Z" fill="#08FBEC" fill-opacity="0.23"/>
</g>
<defs>
<filter id="filter0_f_51_496" x="309.54" y="5.09792" width="211.108" height="396.993" filterUnits="userSpaceOnUse" color-interpolation-filters="sRGB">
<feFlood flood-opacity="0" result="BackgroundImageFix"/>
<feBlend mode="normal" in="SourceGraphic" in2="BackgroundImageFix" result="shape"/>
<feGaussianBlur stdDeviation="2.4" result="effect1_foregroundBlur_51_496"/>
</filter>
<filter id="filter1_f_51_496" x="326.186" y="23.4958" width="165.193" height="345.348" filterUnits="userSpaceOnUse" color-interpolation-filters="sRGB">
<feFlood flood-opacity="0" result="BackgroundImageFix"/>
<feBlend mode="normal" in="SourceGraphic" in2="BackgroundImageFix" result="shape"/>
<feGaussianBlur stdDeviation="5.05" result="effect1_foregroundBlur_51_496"/>
</filter>
<filter id="filter2_f_51_496" x="390.521" y="27.8511" width="121.967" height="175.289" filterUnits="userSpaceOnUse" color-interpolation-filters="sRGB">
<feFlood flood-opacity="0" result="BackgroundImageFix"/>
<feBlend mode="normal" in="SourceGraphic" in2="BackgroundImageFix" result="shape"/>
<feGaussianBlur stdDeviation="2.4" result="effect1_foregroundBlur_51_496"/>
</filter>
<filter id="filter3_f_51_496" x="327.08" y="8.9027" width="199.685" height="352.434" filterUnits="userSpaceOnUse" color-interpolation-filters="sRGB">
<feFlood flood-opacity="0" result="BackgroundImageFix"/>
<feBlend mode="normal" in="SourceGraphic" in2="BackgroundImageFix" result="shape"/>
<feGaussianBlur stdDeviation="2.4" result="effect1_foregroundBlur_51_496"/>
</filter>
<filter id="filter4_f_51_496" x="357.851" y="8.73751" width="169.325" height="275.869" filterUnits="userSpaceOnUse" color-interpolation-filters="sRGB">
<feFlood flood-opacity="0" result="BackgroundImageFix"/>
<feBlend mode="normal" in="SourceGraphic" in2="BackgroundImageFix" result="shape"/>
<feGaussianBlur stdDeviation="2.4" result="effect1_foregroundBlur_51_496"/>
</filter>
<filter id="filter5_f_51_496" x="7.0324" y="642.637" width="214.892" height="395.761" filterUnits="userSpaceOnUse" color-interpolation-filters="sRGB">
<feFlood flood-opacity="0" result="BackgroundImageFix"/>
<feBlend mode="normal" in="SourceGraphic" in2="BackgroundImageFix" result="shape"/>
<feGaussianBlur stdDeviation="2.4" result="effect1_foregroundBlur_51_496"/>
</filter>
<filter id="filter6_f_51_496" x="36.055" y="675.738" width="169.042" height="343.613" filterUnits="userSpaceOnUse" color-interpolation-filters="sRGB">
<feFlood flood-opacity="0" result="BackgroundImageFix"/>
<feBlend mode="normal" in="SourceGraphic" in2="BackgroundImageFix" result="shape"/>
<feGaussianBlur stdDeviation="5.05" result="effect1_foregroundBlur_51_496"/>
</filter>
<filter id="filter7_f_51_496" x="15.331" y="840.553" width="123.116" height="175.149" filterUnits="userSpaceOnUse" color-interpolation-filters="sRGB">
<feFlood flood-opacity="0" result="BackgroundImageFix"/>
<feBlend mode="normal" in="SourceGraphic" in2="BackgroundImageFix" result="shape"/>
<feGaussianBlur stdDeviation="2.4" result="effect1_foregroundBlur_51_496"/>
</filter>
<filter id="filter8_f_51_496" x="0.81145" y="683.167" width="203.062" height="351.461" filterUnits="userSpaceOnUse" color-interpolation-filters="sRGB">
<feFlood flood-opacity="0" result="BackgroundImageFix"/>
<feBlend mode="normal" in="SourceGraphic" in2="BackgroundImageFix" result="shape"/>
<feGaussianBlur stdDeviation="2.4" result="effect1_foregroundBlur_51_496"/>
</filter>
<filter id="filter9_f_51_496" x="0.401904" y="759.504" width="171.738" height="275.295" filterUnits="userSpaceOnUse" color-interpolation-filters="sRGB">
<feFlood flood-opacity="0" result="BackgroundImageFix"/>
<feBlend mode="normal" in="SourceGraphic" in2="BackgroundImageFix" result="shape"/>
<feGaussianBlur stdDeviation="2.4" result="effect1_foregroundBlur_51_496"/>
</filter>
</defs>
</svg>
