<svg width="608" height="1319" viewBox="0 0 608 1319" fill="none" xmlns="http://www.w3.org/2000/svg">
<g filter="url(#filter0_f_52_502)">
<path fill-rule="evenodd" clip-rule="evenodd" d="M534.139 199.377C492.455 285.459 451.132 340.682 430.277 332.821C409.422 324.961 414.829 256.201 440.333 164.021C425.191 195.291 410.001 230.633 395.728 268.503C342.162 410.622 321.786 534.519 350.216 545.234C378.647 555.95 445.118 449.427 498.684 307.308C512.957 269.439 524.874 232.863 534.139 199.377Z" fill="#FFF7CB" fill-opacity="0.76"/>
</g>
<g filter="url(#filter1_f_52_502)">
<path fill-rule="evenodd" clip-rule="evenodd" d="M71.7745 1119.78C112.453 1033.22 153.13 977.516 174.075 985.133C195.02 992.75 190.415 1061.57 165.986 1154.04C180.763 1122.59 195.54 1087.08 209.371 1049.04C261.277 906.311 280.208 782.185 251.655 771.801C223.101 761.418 157.876 868.708 105.969 1011.44C92.1383 1049.47 80.6485 1086.19 71.7745 1119.78Z" fill="#FFF7CB" fill-opacity="0.76"/>
</g>
<g filter="url(#filter2_f_52_502)">
<path fill-rule="evenodd" clip-rule="evenodd" d="M560.344 132.487C518.66 218.569 477.336 273.791 456.481 265.931C435.626 258.071 441.033 189.311 466.538 97.1307C451.395 128.401 436.206 163.743 421.932 201.613C368.366 343.732 347.99 467.628 376.421 478.344C404.851 489.06 471.323 382.537 524.888 240.418C539.162 202.548 551.079 165.972 560.344 132.487Z" fill="#FFE4A0" fill-opacity="0.76"/>
</g>
<g filter="url(#filter3_f_52_502)">
<path fill-rule="evenodd" clip-rule="evenodd" d="M46.3512 1186.97C87.0292 1100.41 127.706 1044.71 148.651 1052.32C169.596 1059.94 164.991 1128.76 140.563 1221.23C155.34 1189.79 170.116 1154.27 183.948 1116.24C235.854 973.502 254.785 849.376 226.231 838.993C197.678 828.609 132.452 935.899 80.5461 1078.63C66.715 1116.67 55.2251 1153.38 46.3512 1186.97Z" fill="#FFE4A0" fill-opacity="0.76"/>
</g>
<g filter="url(#filter4_f_52_502)">
<path fill-rule="evenodd" clip-rule="evenodd" d="M594.073 49.2142C552.389 135.296 511.065 190.519 490.21 182.658C469.355 174.798 474.762 106.038 500.267 13.8579C485.124 45.128 469.935 80.4703 455.661 118.34C402.095 260.459 381.719 384.356 410.15 395.071C438.58 405.787 505.052 299.264 558.617 157.145C572.891 119.275 584.808 82.6996 594.073 49.2142Z" fill="#FF0000" fill-opacity="0.12"/>
</g>
<g filter="url(#filter5_f_52_502)">
<path fill-rule="evenodd" clip-rule="evenodd" d="M13.5948 1270.63C54.2729 1184.07 94.9501 1128.37 115.895 1135.98C136.84 1143.6 132.235 1212.42 107.806 1304.89C122.583 1273.45 137.36 1237.93 151.191 1199.9C203.097 1057.16 222.028 933.036 193.475 922.653C164.921 912.269 99.6959 1019.56 47.7898 1162.29C33.9586 1200.33 22.4688 1237.04 13.5948 1270.63Z" fill="#FF0000" fill-opacity="0.12"/>
</g>
<g filter="url(#filter6_f_52_502)">
<path d="M401.278 441.37C396.413 454.819 390.843 466.384 385.802 474.208C383.273 478.133 380.936 481.024 378.951 482.749C377.957 483.612 377.129 484.114 376.482 484.344C375.848 484.569 375.522 484.491 375.369 484.419C375.216 484.348 374.935 484.143 374.624 483.478C374.306 482.798 374.028 481.78 373.855 480.373C373.511 477.562 373.638 473.641 374.27 468.831C375.528 459.244 378.727 446.574 383.592 433.125C388.458 419.676 394.028 408.11 399.068 400.287C401.597 396.362 403.934 393.471 405.92 391.746C406.914 390.882 407.741 390.38 408.389 390.151C409.023 389.926 409.348 390.004 409.502 390.075C409.655 390.147 409.935 390.351 410.247 391.017C410.565 391.697 410.843 392.714 411.016 394.122C411.36 396.933 411.232 400.854 410.601 405.664C409.343 415.25 406.144 427.921 401.278 441.37Z" stroke="white" stroke-width="4"/>
<path d="M437.533 343.566C432.694 356.94 427.149 368.437 422.127 376.211C419.607 380.111 417.278 382.982 415.298 384.693C414.308 385.55 413.482 386.047 412.837 386.274C412.205 386.496 411.877 386.418 411.721 386.345C411.564 386.272 411.283 386.066 410.971 385.404C410.652 384.728 410.373 383.716 410.199 382.315C409.85 379.519 409.971 375.619 410.593 370.834C411.834 361.297 415.008 348.694 419.847 335.32C424.685 321.946 430.23 310.449 435.252 302.675C437.772 298.775 440.101 295.904 442.081 294.193C443.072 293.336 443.897 292.839 444.543 292.612C445.174 292.39 445.502 292.468 445.659 292.541C445.815 292.614 446.096 292.82 446.408 293.482C446.727 294.158 447.006 295.171 447.181 296.571C447.529 299.367 447.409 303.267 446.786 308.052C445.545 317.589 442.371 330.192 437.533 343.566Z" stroke="white" stroke-width="4"/>
<path d="M469.867 258.947C465.001 272.396 459.431 283.961 454.391 291.784C451.862 295.71 449.525 298.6 447.539 300.325C446.545 301.189 445.718 301.691 445.07 301.921C444.437 302.146 444.111 302.067 443.957 301.996C443.804 301.924 443.524 301.72 443.212 301.054C442.894 300.374 442.616 299.357 442.444 297.95C442.099 295.138 442.227 291.218 442.858 286.408C444.117 276.821 447.315 264.15 452.181 250.701C457.047 237.252 462.616 225.687 467.657 217.864C470.186 213.938 472.523 211.048 474.508 209.323C475.502 208.459 476.33 207.957 476.977 207.727C477.611 207.502 477.937 207.581 478.09 207.652C478.244 207.724 478.524 207.928 478.835 208.593C479.154 209.273 479.432 210.291 479.604 211.698C479.948 214.51 479.821 218.43 479.189 223.24C477.931 232.827 474.732 245.498 469.867 258.947Z" stroke="white" stroke-width="4"/>
</g>
<g filter="url(#filter7_f_52_502)">
<path d="M201.807 876.254C206.515 862.749 211.95 851.12 216.899 843.238C219.382 839.284 221.685 836.366 223.65 834.618C224.634 833.743 225.456 833.231 226.101 832.994C226.732 832.761 227.059 832.836 227.213 832.905C227.367 832.975 227.65 833.176 227.969 833.838C228.295 834.514 228.585 835.529 228.773 836.934C229.15 839.741 229.069 843.663 228.494 848.48C227.347 858.08 224.296 870.788 219.587 884.292C214.879 897.797 209.444 909.427 204.495 917.308C202.012 921.263 199.709 924.18 197.744 925.928C196.76 926.804 195.938 927.315 195.293 927.552C194.663 927.785 194.336 927.71 194.182 927.641C194.027 927.571 193.745 927.37 193.425 926.708C193.099 926.032 192.81 925.018 192.621 923.612C192.244 920.805 192.325 916.883 192.901 912.066C194.047 902.466 197.098 889.759 201.807 876.254Z" stroke="white" stroke-width="4"/>
<path d="M166.695 974.474C171.377 961.044 176.788 949.483 181.719 941.652C184.193 937.722 186.489 934.824 188.448 933.09C189.429 932.222 190.248 931.715 190.891 931.481C191.52 931.251 191.849 931.325 192.006 931.396C192.164 931.467 192.447 931.67 192.767 932.329C193.093 933.001 193.384 934.01 193.575 935.408C193.956 938.2 193.881 942.102 193.314 946.894C192.185 956.444 189.158 969.083 184.475 982.513C179.793 995.942 174.382 1007.5 169.451 1015.33C166.977 1019.26 164.681 1022.16 162.722 1023.9C161.741 1024.76 160.922 1025.27 160.279 1025.51C159.65 1025.74 159.321 1025.66 159.164 1025.59C159.006 1025.52 158.723 1025.32 158.403 1024.66C158.077 1023.98 157.786 1022.98 157.595 1021.58C157.214 1018.79 157.289 1014.88 157.856 1010.09C158.985 1000.54 162.012 987.903 166.695 974.474Z" stroke="white" stroke-width="4"/>
<path d="M135.348 1059.46C140.057 1045.96 145.492 1034.33 150.441 1026.45C152.924 1022.49 155.227 1019.58 157.192 1017.83C158.176 1016.95 158.998 1016.44 159.643 1016.2C160.273 1015.97 160.6 1016.05 160.754 1016.12C160.909 1016.19 161.191 1016.39 161.51 1017.05C161.837 1017.72 162.126 1018.74 162.315 1020.14C162.692 1022.95 162.611 1026.87 162.035 1031.69C160.889 1041.29 157.838 1054 153.129 1067.5C148.421 1081.01 142.986 1092.64 138.037 1100.52C135.554 1104.47 133.251 1107.39 131.286 1109.14C130.302 1110.01 129.48 1110.53 128.835 1110.76C128.204 1110.99 127.877 1110.92 127.723 1110.85C127.569 1110.78 127.286 1110.58 126.967 1109.92C126.641 1109.24 126.351 1108.23 126.162 1106.82C125.785 1104.02 125.867 1100.09 126.442 1095.28C127.589 1085.68 130.64 1072.97 135.348 1059.46Z" stroke="white" stroke-width="4"/>
</g>
<defs>
<filter id="filter0_f_52_502" x="323.88" y="150.521" width="223.759" height="408.956" filterUnits="userSpaceOnUse" color-interpolation-filters="sRGB">
<feFlood flood-opacity="0" result="BackgroundImageFix"/>
<feBlend mode="normal" in="SourceGraphic" in2="BackgroundImageFix" result="shape"/>
<feGaussianBlur stdDeviation="6.75" result="effect1_foregroundBlur_52_502"/>
</filter>
<filter id="filter1_f_52_502" x="58.2744" y="757.607" width="220.182" height="409.932" filterUnits="userSpaceOnUse" color-interpolation-filters="sRGB">
<feFlood flood-opacity="0" result="BackgroundImageFix"/>
<feBlend mode="normal" in="SourceGraphic" in2="BackgroundImageFix" result="shape"/>
<feGaussianBlur stdDeviation="6.75" result="effect1_foregroundBlur_52_502"/>
</filter>
<filter id="filter2_f_52_502" x="350.084" y="83.6307" width="223.759" height="408.956" filterUnits="userSpaceOnUse" color-interpolation-filters="sRGB">
<feFlood flood-opacity="0" result="BackgroundImageFix"/>
<feBlend mode="normal" in="SourceGraphic" in2="BackgroundImageFix" result="shape"/>
<feGaussianBlur stdDeviation="6.75" result="effect1_foregroundBlur_52_502"/>
</filter>
<filter id="filter3_f_52_502" x="32.8511" y="824.798" width="220.182" height="409.932" filterUnits="userSpaceOnUse" color-interpolation-filters="sRGB">
<feFlood flood-opacity="0" result="BackgroundImageFix"/>
<feBlend mode="normal" in="SourceGraphic" in2="BackgroundImageFix" result="shape"/>
<feGaussianBlur stdDeviation="6.75" result="effect1_foregroundBlur_52_502"/>
</filter>
<filter id="filter4_f_52_502" x="383.813" y="0.35788" width="223.759" height="408.956" filterUnits="userSpaceOnUse" color-interpolation-filters="sRGB">
<feFlood flood-opacity="0" result="BackgroundImageFix"/>
<feBlend mode="normal" in="SourceGraphic" in2="BackgroundImageFix" result="shape"/>
<feGaussianBlur stdDeviation="6.75" result="effect1_foregroundBlur_52_502"/>
</filter>
<filter id="filter5_f_52_502" x="0.0947266" y="908.458" width="220.182" height="409.932" filterUnits="userSpaceOnUse" color-interpolation-filters="sRGB">
<feFlood flood-opacity="0" result="BackgroundImageFix"/>
<feBlend mode="normal" in="SourceGraphic" in2="BackgroundImageFix" result="shape"/>
<feGaussianBlur stdDeviation="6.75" result="effect1_foregroundBlur_52_502"/>
</filter>
<filter id="filter6_f_52_502" x="360.732" y="194.517" width="131.995" height="303.038" filterUnits="userSpaceOnUse" color-interpolation-filters="sRGB">
<feFlood flood-opacity="0" result="BackgroundImageFix"/>
<feBlend mode="normal" in="SourceGraphic" in2="BackgroundImageFix" result="shape"/>
<feGaussianBlur stdDeviation="5.5" result="effect1_foregroundBlur_52_502"/>
</filter>
<filter id="filter7_f_52_502" x="112.995" y="819.776" width="128.946" height="304.205" filterUnits="userSpaceOnUse" color-interpolation-filters="sRGB">
<feFlood flood-opacity="0" result="BackgroundImageFix"/>
<feBlend mode="normal" in="SourceGraphic" in2="BackgroundImageFix" result="shape"/>
<feGaussianBlur stdDeviation="5.5" result="effect1_foregroundBlur_52_502"/>
</filter>
</defs>
</svg>
