<svg width="553" height="597" viewBox="0 0 553 597" fill="none" xmlns="http://www.w3.org/2000/svg">
<path fill-rule="evenodd" clip-rule="evenodd" d="M319.139 28.7006V28.7007C335.266 28.7007 348.339 41.5504 348.339 57.4013L348.339 57.4013C348.339 41.5504 361.413 28.7007 377.54 28.7007V28.7006C361.413 28.7006 348.339 15.8509 348.339 0H348.339C348.339 15.8509 335.266 28.7006 319.139 28.7006Z" fill="black"/>
<path fill-rule="evenodd" clip-rule="evenodd" d="M0 124.45C10.734 124.45 19.4356 115.749 19.4356 105.015C19.4356 115.749 28.1372 124.45 38.8711 124.45C28.1372 124.45 19.4356 133.152 19.4356 143.886C19.4356 133.152 10.734 124.45 0 124.45Z" fill="black"/>
<path fill-rule="evenodd" clip-rule="evenodd" d="M530.313 189.698C530.313 178.964 521.612 170.263 510.878 170.263C521.612 170.263 530.313 161.561 530.313 150.827C530.313 161.561 539.015 170.263 549.749 170.263C539.015 170.263 530.313 178.964 530.313 189.698Z" fill="black"/>
<path fill-rule="evenodd" clip-rule="evenodd" d="M533.09 570.08C533.09 559.346 524.388 550.644 513.654 550.644C524.388 550.644 533.09 541.943 533.09 531.209C533.09 541.943 541.791 550.644 552.525 550.644C541.791 550.644 533.09 559.346 533.09 570.08Z" fill="black"/>
<path fill-rule="evenodd" clip-rule="evenodd" d="M19.4356 281.323C30.1695 281.323 38.8711 272.621 38.8711 261.887C38.8711 272.621 47.5727 281.323 58.3067 281.323C47.5756 281.323 38.8758 290.02 38.8711 300.75C38.8664 290.02 30.1666 281.323 19.4355 281.323L19.4356 281.323Z" fill="black"/>
<path fill-rule="evenodd" clip-rule="evenodd" d="M363.723 583.268C371.006 583.268 376.911 577.364 376.911 570.08C376.911 577.364 382.816 583.268 390.099 583.268C382.816 583.268 376.911 589.173 376.911 596.457C376.911 589.173 371.006 583.268 363.723 583.268H363.723V583.268H363.723Z" fill="black"/>
<path fill-rule="evenodd" clip-rule="evenodd" d="M209.626 191.781C216.91 191.781 222.815 185.876 222.815 178.592C222.815 185.876 228.72 191.781 236.003 191.781L236.003 191.781C228.72 191.781 222.815 197.685 222.815 204.969C222.815 197.685 216.91 191.781 209.626 191.781V191.781Z" fill="black"/>
<path fill-rule="evenodd" clip-rule="evenodd" d="M61.7773 488.173C61.7773 480.889 55.8726 474.985 48.5889 474.985C55.8726 474.985 61.7773 469.08 61.7773 461.796C61.7773 469.08 67.6819 474.985 74.9657 474.985C67.6819 474.985 61.7773 480.889 61.7773 488.173Z" fill="black"/>
<path fill-rule="evenodd" clip-rule="evenodd" d="M190.139 520.203C208.473 520.203 223.336 505.34 223.336 487.006V487.006H223.337V487.006C223.337 505.331 238.185 520.189 256.507 520.203C238.185 520.218 223.337 535.076 223.336 553.401C223.336 535.067 208.473 520.204 190.139 520.204L190.139 520.203Z" fill="black"/>
</svg>
