<svg width="851" height="899" viewBox="0 0 851 899" fill="none" xmlns="http://www.w3.org/2000/svg">
<path fill-rule="evenodd" clip-rule="evenodd" d="M0 61.0832C26.0682 61.0832 47.2007 39.9508 47.2007 13.8826C47.2007 39.9508 68.3331 61.0832 94.4013 61.0832C68.3331 61.0832 47.2007 82.2157 47.2007 108.284C47.2007 82.2157 26.0682 61.0832 0 61.0832Z" fill="black"/>
<path fill-rule="evenodd" clip-rule="evenodd" d="M741.328 851C767.396 851 788.529 829.868 788.529 803.799C788.529 829.867 809.661 851 835.729 851V851C809.661 851 788.529 872.132 788.529 898.201C788.529 872.132 767.396 851 741.328 851Z" fill="black"/>
<path fill-rule="evenodd" clip-rule="evenodd" d="M181.861 230.45C192.595 230.45 201.297 221.749 201.297 211.015C201.297 221.749 209.998 230.45 220.732 230.45C209.998 230.45 201.297 239.152 201.297 249.886C201.297 239.152 192.595 230.45 181.861 230.45Z" fill="black"/>
<path fill-rule="evenodd" clip-rule="evenodd" d="M712.175 295.698C712.175 284.964 703.473 276.263 692.739 276.263C703.473 276.263 712.175 267.561 712.175 256.827C712.175 267.561 720.876 276.263 731.61 276.263C720.876 276.263 712.175 284.964 712.175 295.698Z" fill="black"/>
<path fill-rule="evenodd" clip-rule="evenodd" d="M714.951 676.08C714.951 665.346 706.249 656.644 695.516 656.644C706.249 656.644 714.951 647.943 714.951 637.209C714.951 647.943 723.653 656.644 734.387 656.644C723.653 656.644 714.951 665.346 714.951 676.08Z" fill="black"/>
<path fill-rule="evenodd" clip-rule="evenodd" d="M201.297 387.323C212.031 387.323 220.732 378.621 220.732 367.887C220.732 378.621 229.434 387.323 240.168 387.323C229.437 387.323 220.737 396.02 220.732 406.75C220.728 396.02 212.028 387.323 201.297 387.323L201.297 387.323Z" fill="black"/>
<path fill-rule="evenodd" clip-rule="evenodd" d="M545.584 689.268C552.868 689.268 558.772 683.364 558.772 676.08C558.772 683.364 564.677 689.268 571.961 689.268C564.677 689.268 558.772 695.173 558.772 702.457C558.772 695.173 552.868 689.268 545.584 689.268H545.584V689.268H545.584Z" fill="black"/>
<path fill-rule="evenodd" clip-rule="evenodd" d="M391.488 297.781C398.772 297.781 404.676 291.876 404.676 284.592C404.676 291.876 410.581 297.781 417.865 297.781L417.865 297.781C410.581 297.781 404.676 303.685 404.676 310.969C404.676 303.685 398.772 297.781 391.488 297.781V297.781Z" fill="black"/>
<path fill-rule="evenodd" clip-rule="evenodd" d="M243.639 594.173C243.639 586.889 237.734 580.985 230.45 580.985C237.734 580.985 243.639 575.08 243.639 567.796C243.639 575.08 249.543 580.985 256.827 580.985C249.543 580.985 243.639 586.889 243.639 594.173Z" fill="black"/>
<path fill-rule="evenodd" clip-rule="evenodd" d="M756.599 240.168C782.667 240.168 803.799 219.035 803.799 192.967C803.799 219.029 824.921 240.158 850.981 240.168C824.921 240.178 803.799 261.307 803.799 287.369C803.799 261.3 782.667 240.168 756.599 240.168Z" fill="black"/>
<path fill-rule="evenodd" clip-rule="evenodd" d="M417.865 47.2007C443.933 47.2007 465.065 26.0682 465.065 0C465.065 26.0594 486.184 47.1864 512.24 47.2007C486.184 47.2149 465.065 68.3419 465.065 94.4013C465.065 68.3331 443.933 47.2007 417.865 47.2007Z" fill="black"/>
<path fill-rule="evenodd" clip-rule="evenodd" d="M43.0359 637.209C69.1041 637.209 90.2365 616.076 90.2365 590.008C90.2365 616.076 111.369 637.209 137.437 637.209C111.369 637.209 90.2365 658.341 90.2365 684.409C90.2365 658.341 69.1041 637.209 43.0359 637.209Z" fill="black"/>
</svg>
