<svg width="2083" height="2079" viewBox="0 0 2083 2079" fill="none" xmlns="http://www.w3.org/2000/svg">
<path fill-rule="evenodd" clip-rule="evenodd" d="M1407.83 957.989C1434.71 975.799 1470.76 969.648 1488.37 944.249L1488.37 944.249L1488.37 944.249C1470.76 969.648 1478.28 1004.68 1505.16 1022.49L1505.16 1022.49L1505.16 1022.49C1478.3 1004.69 1442.28 1010.82 1424.66 1036.18C1442.22 1010.78 1434.69 975.788 1407.83 957.989L1407.83 957.989L1407.83 957.989Z" fill="black"/>
<path fill-rule="evenodd" clip-rule="evenodd" d="M865.133 753.941C857.896 764.344 843.128 766.877 832.083 759.622C843.046 766.951 846.121 781.262 838.977 791.685C846.248 781.306 861.038 778.811 872.071 786.122C872.071 786.122 872.071 786.122 872.072 786.123C861.017 778.797 857.916 764.397 865.133 753.941Z" fill="black"/>
<path fill-rule="evenodd" clip-rule="evenodd" d="M1334.71 1185.42C1341.91 1174.97 1338.82 1160.59 1327.79 1153.27C1338.85 1160.58 1353.68 1158.04 1360.92 1147.59L1360.92 1147.59L1360.92 1147.59C1353.68 1158.05 1356.77 1172.47 1367.84 1179.81L1367.84 1179.81C1356.79 1172.49 1341.97 1175 1334.71 1185.42Z" fill="black"/>
<path fill-rule="evenodd" clip-rule="evenodd" d="M1080.74 1557.93C1087.93 1547.49 1084.85 1533.13 1073.85 1525.8C1084.91 1533.09 1099.72 1530.55 1106.95 1520.1L1106.95 1520.1L1106.95 1520.1C1099.71 1530.56 1102.8 1544.99 1113.87 1552.32L1113.87 1552.32C1113.87 1552.32 1113.87 1552.32 1113.87 1552.32C1102.82 1545 1088 1547.51 1080.74 1557.93Z" fill="black"/>
<path fill-rule="evenodd" clip-rule="evenodd" d="M753.064 957.855C760.251 947.426 757.179 933.08 746.195 925.742C757.253 933.01 772.044 930.464 779.274 920.031L779.275 920.031L779.275 920.031L779.275 920.031C772.03 930.486 775.121 944.903 786.178 952.239C775.13 944.926 760.321 947.442 753.064 957.855Z" fill="black"/>
<path fill-rule="evenodd" clip-rule="evenodd" d="M901.883 1476.97C906.781 1469.9 904.717 1460.16 897.281 1455.17C904.78 1460.07 914.794 1458.34 919.692 1451.27L919.692 1451.27L919.693 1451.27L919.693 1451.27C914.785 1458.35 916.867 1468.12 924.34 1473.1C916.835 1468.16 906.791 1469.89 901.883 1476.97C901.883 1476.97 901.883 1476.97 901.883 1476.97L901.883 1476.97L901.883 1476.97Z" fill="black"/>
<path fill-rule="evenodd" clip-rule="evenodd" d="M1007.34 990.25C1012.26 983.16 1010.17 973.385 1002.67 968.404C1010.18 973.363 1020.24 971.641 1025.15 964.551L1025.15 964.551L1025.15 964.551L1025.15 964.551C1020.24 971.641 1022.33 981.417 1029.82 986.398C1022.32 981.438 1012.26 983.16 1007.34 990.25L1007.34 990.25Z" fill="black"/>
<path fill-rule="evenodd" clip-rule="evenodd" d="M650.104 1156.16L650.104 1156.16L650.104 1156.16C655.016 1149.07 652.926 1139.3 645.437 1134.31C652.944 1139.27 663.001 1137.55 667.913 1130.46L667.913 1130.46C662.996 1137.55 665.096 1147.34 672.605 1152.32L672.605 1152.32C665.096 1147.34 655.022 1149.06 650.104 1156.16C650.104 1156.16 650.104 1156.16 650.104 1156.16Z" fill="black"/>
<path fill-rule="evenodd" clip-rule="evenodd" d="M1498.46 1148.04C1480.84 1173.38 1444.82 1179.51 1417.97 1161.71L1417.97 1161.71C1444.84 1179.52 1452.36 1214.55 1434.76 1239.95L1434.76 1239.95C1434.76 1239.95 1434.76 1239.95 1434.76 1239.95C1452.36 1214.55 1488.42 1208.4 1515.29 1226.21L1515.29 1226.21L1515.29 1226.21C1488.44 1208.41 1480.91 1173.43 1498.46 1148.04Z" fill="black"/>
<path fill-rule="evenodd" clip-rule="evenodd" d="M1225.61 664.708L1225.61 664.708L1225.61 664.708C1252.46 682.498 1259.99 717.468 1242.46 742.859C1260.06 717.566 1296 711.432 1322.83 729.135C1296.04 711.303 1288.57 676.334 1306.14 650.968L1306.14 650.968L1306.14 650.968C1288.54 676.367 1252.49 682.518 1225.61 664.708Z" fill="black"/>
<path fill-rule="evenodd" clip-rule="evenodd" d="M414.231 1061.03L414.231 1061.03L414.231 1061.03C441.088 1078.83 448.615 1113.82 431.059 1139.22C448.673 1113.86 484.698 1107.73 511.555 1125.53L511.555 1125.53C484.68 1107.72 477.162 1072.69 494.763 1047.29L494.763 1047.29C477.161 1072.69 441.106 1078.84 414.231 1061.03Z" fill="black"/>
<path fill-rule="evenodd" clip-rule="evenodd" d="M1332.56 1522.44C1331.54 1498.06 1351.33 1478.67 1376.85 1479.04C1351.29 1478.53 1329.72 1458.35 1328.64 1433.93L1328.64 1433.92L1328.64 1433.92C1329.72 1458.4 1309.83 1477.88 1284.21 1477.43C1284.21 1477.43 1284.21 1477.43 1284.21 1477.43L1284.21 1477.43C1309.8 1477.88 1331.42 1498.02 1332.56 1522.44Z" fill="black"/>
<path fill-rule="evenodd" clip-rule="evenodd" d="M492.336 757.806C493.342 782.2 473.507 801.597 447.959 801.178C473.555 801.65 495.175 821.84 496.259 846.296L496.259 846.296C495.175 821.84 515.035 802.372 540.628 802.79C515.079 802.319 493.493 782.202 492.336 757.806Z" fill="black"/>
<path fill-rule="evenodd" clip-rule="evenodd" d="M1172.92 1334.71C1172.55 1324.73 1180.66 1316.8 1191.11 1316.93C1180.63 1316.69 1171.79 1308.43 1171.31 1298.42C1171.72 1308.43 1163.6 1316.4 1153.12 1316.27C1163.58 1316.51 1172.4 1324.73 1172.92 1334.71Z" fill="black"/>
<path fill-rule="evenodd" clip-rule="evenodd" d="M668.953 1283.08C668.521 1273.03 676.677 1265.04 687.191 1265.19C676.666 1264.98 667.782 1256.67 667.336 1246.61L667.336 1246.61L667.336 1246.61C667.783 1256.69 659.593 1264.71 649.045 1264.53C649.045 1264.53 649.045 1264.53 649.045 1264.53L649.045 1264.53L649.045 1264.53C659.585 1264.71 668.493 1273.01 668.953 1283.08Z" fill="black"/>
<path fill-rule="evenodd" clip-rule="evenodd" d="M650.389 925.822C650.019 915.821 658.158 907.88 668.637 908.037C658.132 907.829 649.261 899.556 648.78 889.524C649.189 899.571 641.012 907.556 630.486 907.373C630.486 907.373 630.486 907.373 630.486 907.373L630.486 907.374L630.487 907.374C640.99 907.556 649.872 915.803 650.389 925.822Z" fill="black"/>
<path fill-rule="evenodd" clip-rule="evenodd" d="M1147.29 1187.13C1146.91 1177.1 1155.08 1169.14 1165.59 1169.33L1165.59 1169.33L1165.59 1169.33L1165.59 1169.33C1155.06 1169.14 1146.16 1160.86 1145.68 1150.81C1146.09 1160.83 1137.95 1168.8 1127.47 1168.66C1137.94 1168.89 1146.78 1177.13 1147.29 1187.13Z" fill="black"/>
<path fill-rule="evenodd" clip-rule="evenodd" d="M801.166 867.455C801.517 874.229 807.505 879.81 814.6 879.97C807.477 879.883 801.958 885.312 802.26 892.127L802.26 892.128L802.259 892.128L802.259 892.127C801.957 885.312 795.948 879.683 788.821 879.522C795.914 879.609 801.416 874.228 801.166 867.455Z" fill="black"/>
<path fill-rule="evenodd" clip-rule="evenodd" d="M969.987 1262.21C969.731 1255.41 975.273 1250.01 982.403 1250.14L982.403 1250.14L982.403 1250.14C975.259 1250.01 969.22 1244.39 968.895 1237.57C969.176 1244.39 963.626 1249.81 956.482 1249.69C956.481 1249.69 956.481 1249.69 956.481 1249.69L956.481 1249.69L956.481 1249.69C963.611 1249.81 969.64 1255.41 969.987 1262.21Z" fill="black"/>
<path fill-rule="evenodd" clip-rule="evenodd" d="M1116.46 999.131C1116.18 992.313 1121.73 986.892 1128.88 987.017L1128.88 987.017L1128.88 987.016L1128.88 987.016C1121.74 986.892 1115.7 981.275 1115.37 974.46C1115.64 981.262 1110.12 986.67 1102.99 986.567C1110.12 986.711 1116.14 992.325 1116.46 999.131Z" fill="black"/>
<path fill-rule="evenodd" clip-rule="evenodd" d="M581.564 1341.42C580.517 1316.98 600.393 1297.54 625.988 1297.98L625.989 1297.98L625.989 1297.98L625.988 1297.98C600.416 1297.54 578.801 1277.41 577.644 1253C578.651 1277.41 558.788 1296.82 533.216 1296.37L533.216 1296.37C558.812 1296.82 580.443 1316.98 581.564 1341.42Z" fill="black"/>
<path fill-rule="evenodd" clip-rule="evenodd" d="M922.482 1528.33C921.463 1503.95 941.269 1484.55 966.794 1484.93C941.273 1484.43 919.722 1464.33 918.565 1439.95C919.569 1464.34 899.747 1483.73 874.212 1483.32C899.759 1483.81 921.339 1503.93 922.482 1528.33Z" fill="black"/>
<path fill-rule="evenodd" clip-rule="evenodd" d="M1266.28 980.726C1265.33 956.371 1285.15 937.018 1310.66 937.435C1285.07 936.962 1263.45 916.773 1262.37 892.316L1262.37 892.316L1262.37 892.316C1263.45 916.766 1243.6 936.23 1218.02 935.823C1243.53 936.305 1265.08 956.373 1266.28 980.726Z" fill="black"/>
<path fill-rule="evenodd" clip-rule="evenodd" d="M720.537 615.244C723.835 644.71 704.853 669.588 678.076 670.904C704.904 669.744 729.345 692.675 732.702 722.189L732.702 722.189L732.702 722.189C729.344 692.662 748.359 667.714 775.189 666.418C748.379 667.601 723.944 644.719 720.537 615.244Z" fill="black"/>
<path fill-rule="evenodd" clip-rule="evenodd" d="M770.383 831.376C771.721 843.511 763.882 853.747 752.84 854.257L752.84 854.258C763.892 853.747 773.974 863.173 775.381 875.32C774.025 863.17 781.868 852.916 792.92 852.406C792.921 852.406 792.921 852.406 792.921 852.406L792.921 852.406L792.92 852.406C781.878 852.916 771.804 843.507 770.383 831.376Z" fill="black"/>
<path fill-rule="evenodd" clip-rule="evenodd" d="M1308.07 902.934C1306.71 890.801 1314.53 880.559 1325.56 880.022C1314.51 880.504 1304.44 871.06 1303.06 858.905L1303.06 858.905C1304.44 871.062 1296.61 881.334 1285.57 881.87C1296.6 881.384 1306.66 890.802 1308.07 902.934Z" fill="black"/>
<path fill-rule="evenodd" clip-rule="evenodd" d="M1354.98 1290.14C1356.37 1302.3 1348.53 1312.58 1337.47 1313.1C1348.53 1312.61 1358.61 1322.05 1360 1334.22L1360 1334.22C1358.62 1322.07 1366.43 1311.81 1377.46 1311.26C1366.42 1311.72 1356.37 1302.28 1354.98 1290.14L1354.98 1290.14L1354.98 1290.14Z" fill="black"/>
<path fill-rule="evenodd" clip-rule="evenodd" d="M810.651 1008.29C812.019 1020.44 804.188 1030.7 793.144 1031.23C804.2 1030.74 814.278 1040.18 815.662 1052.34L815.662 1052.34C814.278 1040.17 822.127 1029.89 833.195 1029.38L833.195 1029.38L833.195 1029.38C822.135 1029.89 812.047 1020.45 810.651 1008.29Z" fill="black"/>
<path fill-rule="evenodd" clip-rule="evenodd" d="M1187.06 1357.24C1194.57 1356.9 1199.9 1349.92 1198.96 1341.66L1198.96 1341.66L1198.96 1341.66C1199.9 1349.92 1206.75 1356.33 1214.26 1355.99L1214.26 1355.99C1206.75 1356.33 1201.42 1363.31 1202.36 1371.57L1202.36 1371.57C1201.42 1363.31 1194.57 1356.9 1187.06 1357.24L1187.06 1357.24L1187.06 1357.24Z" fill="black"/>
<path fill-rule="evenodd" clip-rule="evenodd" d="M989.575 905.071C990.498 913.318 985.175 920.279 977.674 920.625L977.674 920.626L977.674 920.626C985.157 920.28 991.984 926.647 992.963 934.863C992.075 926.667 997.355 919.757 1004.8 919.372C997.328 919.676 990.524 913.291 989.575 905.071Z" fill="black"/>
<path fill-rule="evenodd" clip-rule="evenodd" d="M848.154 1249.46C855.664 1249.11 860.991 1242.13 860.051 1233.87L860.051 1233.87L860.052 1233.87C860.991 1242.13 867.837 1248.55 875.345 1248.2C867.866 1248.55 862.554 1255.48 863.443 1263.69C862.463 1255.48 855.636 1249.11 848.154 1249.46L848.154 1249.46L848.154 1249.46Z" fill="black"/>
<path fill-rule="evenodd" clip-rule="evenodd" d="M1401.47 889.174C1398.12 859.67 1373.69 836.744 1346.87 837.889C1373.67 836.557 1392.65 811.625 1389.3 782.121L1389.3 782.121L1389.3 782.121L1389.3 782.121C1392.65 811.632 1417.09 834.562 1443.91 833.406C1417.11 834.727 1398.12 859.664 1401.47 889.175C1401.47 889.175 1401.47 889.175 1401.47 889.175L1401.47 889.175L1401.47 889.174Z" fill="black"/>
<path fill-rule="evenodd" clip-rule="evenodd" d="M1027.31 686.482L1027.31 686.482L1027.31 686.482C1023.95 656.958 999.496 634.021 972.657 635.199C999.482 633.897 1018.49 608.952 1015.13 579.428L1015.13 579.428L1015.13 579.429C1018.49 608.908 1042.88 631.821 1069.67 630.717C1042.91 632.087 1023.96 657.002 1027.31 686.482C1027.31 686.482 1027.31 686.482 1027.31 686.482Z" fill="black"/>
<path fill-rule="evenodd" clip-rule="evenodd" d="M662.159 1322.15L662.159 1322.15L662.159 1322.15C688.964 1320.91 713.418 1343.74 716.888 1373.18C713.662 1343.75 732.662 1318.93 759.434 1317.65C732.58 1318.86 708.1 1295.91 704.741 1266.37L704.74 1266.37L704.74 1266.37C708.102 1295.93 689.038 1320.91 662.159 1322.15Z" fill="black"/>
<path fill-rule="evenodd" clip-rule="evenodd" d="M542.094 940.627C556.588 958.965 581.48 962.529 597.752 948.619C581.573 962.647 580.19 988.83 594.684 1007.17L594.684 1007.17L594.684 1007.17L594.684 1007.17C580.162 988.794 555.199 985.253 538.929 999.26L538.929 999.26C555.199 985.253 556.616 959.002 542.094 940.627L542.094 940.627Z" fill="black"/>
<path fill-rule="evenodd" clip-rule="evenodd" d="M1291.38 1109.41C1285.47 1101.87 1286.05 1091.15 1292.68 1085.38C1285.98 1091.09 1275.74 1089.62 1269.78 1082.08L1269.78 1082.08L1269.78 1082.08C1275.75 1089.63 1275.18 1100.41 1268.52 1106.19C1275.2 1100.48 1285.41 1101.92 1291.38 1109.41Z" fill="black"/>
<path fill-rule="evenodd" clip-rule="evenodd" d="M948.356 1327.55L948.355 1327.55C941.656 1333.32 931.377 1331.86 925.398 1324.29L925.397 1324.29L925.397 1324.29C925.397 1324.29 925.397 1324.29 925.397 1324.29C931.357 1331.84 930.798 1342.6 924.163 1348.38C930.863 1342.68 941.092 1344.15 947.051 1351.69L947.052 1351.69L947.052 1351.69C941.073 1344.13 941.656 1333.32 948.356 1327.55L948.356 1327.55Z" fill="black"/>
<path fill-rule="evenodd" clip-rule="evenodd" d="M734.716 1060.92L734.716 1060.92C728.016 1066.68 717.738 1065.23 711.758 1057.66L711.758 1057.66L711.758 1057.66C711.758 1057.66 711.758 1057.66 711.758 1057.66C717.727 1065.21 717.156 1076 710.49 1081.77C717.191 1076.04 727.443 1077.51 733.412 1085.06L733.412 1085.06L733.412 1085.06C727.433 1077.49 728.016 1066.69 734.716 1060.92Z" fill="black"/>
<path fill-rule="evenodd" clip-rule="evenodd" d="M1170.26 981.943C1176.22 989.493 1186.47 990.961 1193.17 985.237C1186.51 991.014 1185.94 1001.79 1191.91 1009.34L1191.91 1009.34L1191.91 1009.34L1191.91 1009.34C1185.95 1001.8 1175.72 1000.33 1169.02 1006.03C1175.66 1000.24 1176.21 989.483 1170.26 981.944L1170.26 981.943L1170.26 981.943Z" fill="black"/>
<path fill-rule="evenodd" clip-rule="evenodd" d="M809.189 973.682C805.181 968.55 805.592 961.257 810.12 957.359L810.12 957.358C805.574 961.272 798.599 960.283 794.541 955.148L794.541 955.148L794.541 955.148C794.541 955.148 794.541 955.148 794.541 955.149C798.594 960.277 798.203 967.601 793.672 971.518C798.201 967.634 805.129 968.604 809.189 973.682Z" fill="black"/>
<path fill-rule="evenodd" clip-rule="evenodd" d="M1124.39 1150.51C1119.85 1154.43 1119.45 1161.76 1123.51 1166.9L1123.51 1166.9L1123.51 1166.9L1123.51 1166.9C1119.45 1161.76 1112.47 1160.77 1107.93 1164.69L1107.93 1164.69C1112.46 1160.79 1112.87 1153.49 1108.86 1148.36C1112.92 1153.44 1119.86 1154.41 1124.39 1150.51L1124.39 1150.51L1124.39 1150.51Z" fill="black"/>
<path fill-rule="evenodd" clip-rule="evenodd" d="M1051.55 862.146C1055.59 867.252 1062.51 868.258 1067.06 864.418C1062.58 868.348 1062.21 875.631 1066.25 880.738L1066.25 880.738L1066.25 880.738L1066.25 880.738C1062.21 875.635 1055.3 874.626 1050.75 878.456C1055.22 874.524 1055.59 867.248 1051.55 862.146C1051.55 862.146 1051.55 862.145 1051.55 862.145L1051.55 862.146Z" fill="black"/>
<path fill-rule="evenodd" clip-rule="evenodd" d="M925.394 1445.88C910.921 1427.51 912.352 1401.3 928.605 1387.31L928.605 1387.31L928.605 1387.31C912.35 1401.3 887.42 1397.78 872.891 1379.45C887.369 1397.82 885.939 1424.04 869.685 1438.03C869.685 1438.03 869.685 1438.03 869.685 1438.03L869.685 1438.03L869.685 1438.03C885.938 1424.04 910.865 1427.56 925.394 1445.88Z" fill="black"/>
<path fill-rule="evenodd" clip-rule="evenodd" d="M1244.3 1399.87C1229.84 1381.5 1231.28 1355.3 1247.52 1341.32L1247.52 1341.32L1247.52 1341.32C1231.25 1355.32 1206.29 1351.78 1191.77 1333.41L1191.77 1333.41C1206.28 1351.77 1204.88 1378.01 1188.63 1392.02C1204.87 1378.06 1229.77 1381.57 1244.3 1399.87Z" fill="black"/>
<path fill-rule="evenodd" clip-rule="evenodd" d="M1149.54 782.56C1135.1 764.189 1136.54 738.004 1152.78 724.021L1152.78 724.021L1152.78 724.021L1152.78 724.021C1136.51 738.028 1111.55 734.487 1097.03 716.112L1097.03 716.113C1111.55 734.487 1110.13 760.738 1093.86 774.745L1093.86 774.746L1093.86 774.746C1110.11 760.763 1135.01 764.267 1149.54 782.56Z" fill="black"/>
<path fill-rule="evenodd" clip-rule="evenodd" d="M799.115 1497.27C775.432 1508.6 747.175 1500.92 735.954 1480.11L735.954 1480.11C747.191 1500.96 737.084 1527.09 713.379 1538.49L713.379 1538.49C713.379 1538.49 713.379 1538.49 713.379 1538.49C737.048 1527.11 765.324 1534.73 776.597 1555.51C765.459 1534.71 775.524 1508.68 799.115 1497.27Z" fill="black"/>
<path fill-rule="evenodd" clip-rule="evenodd" d="M1049.79 785.416C1059.52 780.737 1063.68 770.025 1059.12 761.453C1063.78 769.979 1075.4 773.102 1085.13 768.423L1085.13 768.423L1085.13 768.423L1085.13 768.423C1075.4 773.104 1071.23 783.824 1075.8 792.397C1071.15 783.863 1059.52 780.736 1049.79 785.416C1049.79 785.416 1049.79 785.416 1049.79 785.417L1049.79 785.416L1049.79 785.416Z" fill="black"/>
<path fill-rule="evenodd" clip-rule="evenodd" d="M1263.64 1197.06C1253.89 1201.71 1242.26 1198.55 1237.65 1189.98L1237.65 1189.98L1237.65 1189.98L1237.65 1189.98C1242.26 1198.55 1238.13 1209.28 1228.41 1213.99C1238.15 1209.35 1249.77 1212.5 1254.39 1221.05C1249.79 1212.49 1253.93 1201.76 1263.64 1197.06Z" fill="black"/>
<path fill-rule="evenodd" clip-rule="evenodd" d="M918.892 1365.6C909.153 1370.22 897.555 1367.05 892.944 1358.5L892.944 1358.5L892.944 1358.5C897.57 1367.08 893.409 1377.85 883.649 1382.54L883.649 1382.54C893.409 1377.85 905.073 1381 909.7 1389.59C909.7 1389.59 909.7 1389.59 909.7 1389.59L909.701 1389.59L909.701 1389.59C905.09 1381.03 909.206 1370.32 918.892 1365.6Z" fill="black"/>
<path fill-rule="evenodd" clip-rule="evenodd" d="M915.511 869.541C925.256 864.856 929.42 854.12 924.829 845.543C929.471 854.096 941.113 857.234 950.859 852.548L950.859 852.548L950.859 852.548C941.098 857.241 936.937 868.004 941.564 876.589L941.563 876.589C941.563 876.589 941.563 876.589 941.563 876.588C936.936 868.004 925.272 864.849 915.511 869.541Z" fill="black"/>
<path fill-rule="evenodd" clip-rule="evenodd" d="M798.646 1252.85L798.646 1252.85L798.646 1252.85C801.781 1258.67 798.97 1265.96 792.366 1269.15C798.978 1265.99 806.866 1268.13 810.007 1273.93C806.882 1268.11 809.707 1260.82 816.324 1257.63L816.324 1257.63C809.7 1260.82 801.786 1258.68 798.646 1252.85L798.646 1252.85Z" fill="black"/>
<path fill-rule="evenodd" clip-rule="evenodd" d="M1105.82 963.282C1099.24 966.398 1091.41 964.283 1088.26 958.537C1091.33 964.342 1088.52 971.585 1081.94 974.762C1088.54 971.607 1096.41 973.727 1099.56 979.504C1096.48 973.711 1099.27 966.476 1105.82 963.282Z" fill="black"/>
<path fill-rule="evenodd" clip-rule="evenodd" d="M778.844 958.313C772.257 961.42 764.428 959.289 761.289 953.524C764.384 959.325 761.584 966.575 755.019 969.767C761.621 966.629 769.483 968.764 772.623 974.552C769.521 968.76 772.302 961.518 778.844 958.313Z" fill="black"/>
<path fill-rule="evenodd" clip-rule="evenodd" d="M1361.18 1242.43C1337.55 1253.74 1309.36 1246.14 1298.08 1225.43C1309.19 1246.25 1299.07 1272.29 1275.42 1283.66L1275.42 1283.66L1275.42 1283.66C1275.42 1283.66 1275.42 1283.66 1275.42 1283.66C1299.07 1272.29 1327.32 1279.89 1338.61 1300.63C1327.52 1279.83 1337.59 1253.83 1361.18 1242.43Z" fill="black"/>
<path fill-rule="evenodd" clip-rule="evenodd" d="M1327.45 870.008L1327.45 870.008L1327.45 870.009C1338.67 890.824 1328.62 916.914 1304.99 928.339C1328.67 917.02 1356.93 924.691 1368.15 945.506L1368.15 945.506C1356.91 924.658 1367.02 898.519 1390.72 887.123L1390.72 887.122C1367.02 898.519 1338.69 890.857 1327.45 870.008L1327.45 870.008Z" fill="black"/>
<path fill-rule="evenodd" clip-rule="evenodd" d="M629.35 828.175L629.35 828.176L629.35 828.176C640.577 849.005 630.499 875.116 606.841 886.529C630.532 875.178 658.817 882.845 670.044 903.674L670.044 903.674C658.808 882.826 668.915 856.687 692.619 845.29L692.619 845.29C668.914 856.686 640.588 849.024 629.351 828.176L629.35 828.175Z" fill="black"/>
<path fill-rule="evenodd" clip-rule="evenodd" d="M1128.93 1426.32L1128.93 1426.32C1110.97 1417.64 1104.49 1396.96 1114.42 1380.08C1104.37 1396.9 1081.71 1403.5 1063.74 1394.82C1063.74 1394.82 1063.74 1394.82 1063.74 1394.82L1063.74 1394.82C1081.74 1403.52 1088.21 1424.26 1078.19 1441.16L1078.19 1441.16C1088.21 1424.26 1110.93 1417.62 1128.93 1426.32Z" fill="black"/>
<path fill-rule="evenodd" clip-rule="evenodd" d="M920.672 666.926L920.672 666.926C902.67 658.227 896.201 637.477 906.223 620.581L906.223 620.581L906.223 620.58C896.208 637.463 873.518 644.111 855.522 635.443C873.492 644.155 879.943 664.885 869.929 681.768L869.928 681.768L869.929 681.768C879.951 664.872 902.67 658.227 920.672 666.926Z" fill="black"/>
<path fill-rule="evenodd" clip-rule="evenodd" d="M1047.64 1261.84C1051.8 1254.97 1061.09 1252.29 1068.46 1255.85L1068.46 1255.85L1068.46 1255.85L1068.46 1255.85C1061.05 1252.27 1058.38 1243.72 1062.51 1236.77L1062.51 1236.77L1062.51 1236.77C1058.39 1243.7 1049.08 1246.44 1041.68 1242.91C1049 1246.49 1051.65 1254.93 1047.64 1261.84Z" fill="black"/>
<path fill-rule="evenodd" clip-rule="evenodd" d="M733.259 1055.67L733.26 1055.67C725.847 1052.08 723.184 1043.54 727.31 1036.58L727.31 1036.58C723.183 1043.54 713.828 1046.28 706.416 1042.69C706.416 1042.69 706.415 1042.69 706.415 1042.69L706.415 1042.69C713.828 1046.28 716.491 1054.82 712.365 1061.78L712.365 1061.78L712.365 1061.78C716.492 1054.82 725.846 1052.08 733.259 1055.67L733.259 1055.67Z" fill="black"/>
<path fill-rule="evenodd" clip-rule="evenodd" d="M877.586 808.189L877.586 808.189C870.174 804.607 867.51 796.063 871.637 789.106L871.636 789.106C867.509 796.063 858.155 798.799 850.742 795.217L850.741 795.217L850.742 795.218C858.154 798.8 860.818 807.343 856.692 814.301L856.692 814.301C860.819 807.344 870.173 804.607 877.586 808.189Z" fill="black"/>
<path fill-rule="evenodd" clip-rule="evenodd" d="M1094.48 1153.76C1098.61 1146.84 1107.92 1144.12 1115.31 1147.66C1107.93 1144.07 1105.28 1135.55 1109.4 1128.6L1109.4 1128.6L1109.4 1128.6C1109.4 1128.6 1109.4 1128.6 1109.4 1128.6C1105.29 1135.53 1096 1138.27 1088.61 1134.76C1095.93 1138.36 1098.55 1146.84 1094.48 1153.76Z" fill="black"/>
<path fill-rule="evenodd" clip-rule="evenodd" d="M993.672 837.079L993.673 837.078C988.643 834.647 986.835 828.85 989.635 824.129L989.635 824.129C986.835 828.85 980.487 830.707 975.457 828.276C975.457 828.276 975.457 828.276 975.457 828.276L975.457 828.276C980.487 830.707 982.294 836.504 979.494 841.225L979.494 841.225C982.294 836.504 988.642 834.648 993.672 837.079L993.672 837.079Z" fill="black"/>
<path fill-rule="evenodd" clip-rule="evenodd" d="M949.577 1142.25L949.577 1142.25C944.548 1139.82 942.74 1134.02 945.54 1129.3L945.54 1129.3C942.743 1134.02 936.406 1135.88 931.379 1133.46C936.396 1135.89 938.196 1141.68 935.399 1146.4L935.399 1146.4L935.399 1146.4C938.199 1141.68 944.547 1139.82 949.577 1142.25L949.577 1142.25Z" fill="black"/>
<path fill-rule="evenodd" clip-rule="evenodd" d="M1169.67 1012.43L1169.67 1012.43C1164.65 1010 1162.84 1004.22 1165.62 999.501C1162.83 1004.19 1156.53 1006.04 1151.52 1003.66C1156.5 1006.11 1158.28 1011.88 1155.49 1016.58L1155.49 1016.58L1155.49 1016.58C1158.29 1011.86 1164.64 1010 1169.67 1012.43L1169.67 1012.43Z" fill="black"/>
<path fill-rule="evenodd" clip-rule="evenodd" d="M660.758 1011.53C650.862 1028.36 657.292 1048.98 675.161 1057.69C657.177 1049.08 634.537 1055.73 624.537 1072.59L624.537 1072.59L624.537 1072.59C634.559 1055.7 628.089 1034.95 610.087 1026.25L610.087 1026.25C628.046 1034.93 650.699 1028.33 660.758 1011.53Z" fill="black"/>
<path fill-rule="evenodd" clip-rule="evenodd" d="M835.02 1295.87C817.027 1287.17 794.322 1293.81 784.292 1310.68C794.293 1293.79 787.822 1273.06 769.828 1264.36L769.827 1264.36L769.827 1264.36C769.828 1264.36 769.828 1264.36 769.828 1264.36C787.8 1273.05 810.472 1266.44 820.52 1249.61C810.571 1266.49 817.049 1287.18 835.021 1295.87L835.02 1295.87Z" fill="black"/>
<path fill-rule="evenodd" clip-rule="evenodd" d="M1320.72 1038.53C1302.72 1029.84 1280.02 1036.47 1269.99 1053.34C1279.99 1036.45 1273.52 1015.72 1255.52 1007.03L1255.52 1007.03L1255.52 1007.03C1255.52 1007.03 1255.52 1007.03 1255.52 1007.03C1273.49 1015.71 1296.15 1009.11 1306.21 992.292C1296.27 1009.17 1302.75 1029.85 1320.72 1038.53L1320.72 1038.53Z" fill="black"/>
<path fill-rule="evenodd" clip-rule="evenodd" d="M868.655 907.141L868.655 907.14C873.031 898.477 870.05 888.8 861.999 885.498C870.079 888.743 880.158 884.367 884.534 875.703L884.534 875.704C880.149 884.385 883.151 894.083 891.239 897.366C883.151 894.083 873.04 898.46 868.655 907.141Z" fill="black"/>
<path fill-rule="evenodd" clip-rule="evenodd" d="M1228.19 1078.77L1228.19 1078.77L1228.19 1078.77C1236.28 1082.05 1239.28 1091.75 1234.89 1100.43C1239.27 1091.76 1249.37 1087.38 1257.45 1090.65C1249.38 1087.35 1246.39 1077.67 1250.77 1068.99L1250.77 1068.99L1250.77 1068.99C1246.39 1077.67 1236.28 1082.05 1228.19 1078.77L1228.19 1078.77Z" fill="black"/>
<path fill-rule="evenodd" clip-rule="evenodd" d="M1074.89 1387.25L1074.87 1387.24C1066.8 1383.95 1063.81 1374.26 1068.19 1365.59C1072.57 1356.91 1082.68 1352.53 1090.77 1355.82C1098.86 1359.1 1101.86 1368.8 1097.48 1377.48L1097.48 1377.48C1093.1 1386.15 1083 1390.53 1074.92 1387.26L1074.89 1387.25Z" fill="black"/>
<path fill-rule="evenodd" clip-rule="evenodd" d="M812.512 1018.29L812.512 1018.29L812.512 1018.29C820.6 1021.58 823.602 1031.27 819.218 1039.96L819.218 1039.96C823.603 1031.27 833.714 1026.9 841.802 1030.18L841.802 1030.18C833.714 1026.9 830.712 1017.2 835.096 1008.52L835.096 1008.52C830.711 1017.2 820.6 1021.58 812.512 1018.29Z" fill="black"/>
<path fill-rule="evenodd" clip-rule="evenodd" d="M963.889 1361.2C960.907 1367.04 954.098 1369.99 948.634 1367.8C954.091 1370.04 956.11 1376.61 953.142 1382.48L953.143 1382.48C953.143 1382.48 953.143 1382.48 953.143 1382.48C956.105 1376.62 962.917 1373.65 968.393 1375.82C962.976 1373.57 960.966 1367.06 963.889 1361.2Z" fill="black"/>
<path fill-rule="evenodd" clip-rule="evenodd" d="M1007.69 997.48C1004.7 1003.32 997.868 1006.26 992.402 1004.04L992.402 1004.04L992.402 1004.04L992.402 1004.04C997.867 1006.26 999.91 1012.79 996.989 1018.67C999.984 1012.82 1006.81 1009.89 1012.28 1012.11C1012.28 1012.11 1012.28 1012.11 1012.28 1012.11L1012.28 1012.11L1012.28 1012.11C1006.81 1009.89 1004.77 1003.35 1007.69 997.48Z" fill="black"/>
<path fill-rule="evenodd" clip-rule="evenodd" d="M770.666 1177.25C767.686 1183.09 760.885 1186.03 755.423 1183.86C760.87 1186.1 762.884 1192.66 759.918 1198.53L759.919 1198.53C759.919 1198.53 759.919 1198.53 759.919 1198.53C762.894 1192.64 769.755 1189.67 775.243 1191.9L775.244 1191.9C769.772 1189.68 767.731 1183.13 770.666 1177.25Z" fill="black"/>
<path fill-rule="evenodd" clip-rule="evenodd" d="M1291.05 1069.11L1291.05 1069.11C1310.64 1077.06 1317.95 1100.51 1307.42 1121.55C1318.11 1100.58 1342.59 1090.02 1362.18 1097.98C1362.18 1097.98 1362.18 1097.98 1362.18 1097.98L1362.18 1097.98L1362.18 1097.98C1342.57 1090.02 1335.27 1066.53 1345.85 1045.47C1335.17 1066.48 1310.66 1077.07 1291.05 1069.11Z" fill="black"/>
<path fill-rule="evenodd" clip-rule="evenodd" d="M1130.92 862.059C1141.56 841.005 1134.3 817.486 1114.72 809.482C1134.35 817.394 1158.85 806.766 1169.49 785.712L1169.49 785.712L1169.49 785.712L1169.49 785.712C1158.85 806.764 1166.11 830.279 1185.68 838.285C1166.06 830.38 1141.56 841.007 1130.92 862.059L1130.92 862.059Z" fill="black"/>
<path fill-rule="evenodd" clip-rule="evenodd" d="M591.182 1171.99L591.182 1171.99L591.182 1171.99C610.825 1179.96 618.116 1203.51 607.467 1224.6C618.116 1203.51 642.672 1192.89 662.314 1200.86L662.314 1200.86C642.673 1192.89 635.382 1169.33 646.031 1148.25L646.03 1148.25C635.381 1169.33 610.825 1179.96 591.182 1171.99L591.182 1171.99Z" fill="black"/>
<path fill-rule="evenodd" clip-rule="evenodd" d="M832.765 797.149C815.03 801.282 802.446 818.56 804.659 835.74L804.659 835.74L804.659 835.74C802.446 818.56 786.274 807.984 768.538 812.117L768.538 812.117C768.538 812.117 768.539 812.117 768.539 812.117C786.257 807.988 798.834 790.739 796.652 773.575C798.889 790.726 815.047 801.278 832.765 797.149L832.765 797.149Z" fill="black"/>
<path fill-rule="evenodd" clip-rule="evenodd" d="M1266.08 1117.41C1258.78 1119.11 1253.6 1126.23 1254.51 1133.3L1254.51 1133.3L1254.51 1133.3L1254.51 1133.3C1253.6 1126.25 1246.98 1121.9 1239.71 1123.56C1246.95 1121.83 1252.09 1114.77 1251.21 1107.74C1252.15 1114.78 1258.8 1119.11 1266.08 1117.41L1266.08 1117.41Z" fill="black"/>
<path fill-rule="evenodd" clip-rule="evenodd" d="M903.028 1184.04C902.163 1176.99 907.333 1169.92 914.611 1168.22L914.611 1168.22L914.611 1168.22C907.308 1169.92 900.649 1165.57 899.738 1158.5L899.738 1158.5C900.649 1165.57 895.467 1172.68 888.164 1174.39C888.164 1174.39 888.164 1174.39 888.164 1174.39L888.164 1174.39L888.165 1174.39C895.442 1172.69 902.08 1177.01 903.028 1184.04Z" fill="black"/>
<path fill-rule="evenodd" clip-rule="evenodd" d="M880.432 917.974C873.129 919.676 867.947 926.79 868.858 933.864L868.858 933.864L868.858 933.865C867.947 926.791 861.288 922.436 853.985 924.137L853.985 924.137C853.985 924.137 853.985 924.137 853.985 924.137C861.288 922.435 866.47 915.321 865.559 908.247L865.559 908.247C866.47 915.32 873.129 919.675 880.432 917.974L880.432 917.974Z" fill="black"/>
<path fill-rule="evenodd" clip-rule="evenodd" d="M1227.96 1032.93C1227.09 1025.88 1232.26 1018.8 1239.54 1017.11L1239.54 1017.11L1239.54 1017.11C1232.25 1018.81 1225.6 1014.47 1224.67 1007.41C1225.56 1014.47 1220.39 1021.57 1213.09 1023.27C1213.09 1023.27 1213.09 1023.27 1213.09 1023.27L1213.09 1023.27L1213.09 1023.27C1220.38 1021.57 1227.02 1025.9 1227.96 1032.93Z" fill="black"/>
<path fill-rule="evenodd" clip-rule="evenodd" d="M971.813 883.453C971.213 878.663 974.725 873.853 979.67 872.7L979.67 872.7C974.729 873.852 970.223 870.918 969.583 866.143C970.175 870.929 966.665 875.731 961.724 876.882C961.724 876.882 961.724 876.882 961.724 876.882L961.724 876.883L961.725 876.882C966.67 875.73 971.18 878.67 971.813 883.453Z" fill="black"/>
<path fill-rule="evenodd" clip-rule="evenodd" d="M1109.89 1117.02C1109.29 1112.25 1112.78 1107.45 1117.7 1106.28C1112.76 1107.41 1108.27 1104.46 1107.65 1099.67L1107.65 1099.67C1108.27 1104.47 1104.75 1109.3 1099.8 1110.46L1099.8 1110.46L1099.8 1110.46C1104.74 1109.3 1109.25 1112.24 1109.89 1117.02Z" fill="black"/>
<path fill-rule="evenodd" clip-rule="evenodd" d="M1203.27 894.097L1203.27 894.097L1203.27 894.097C1198.32 895.248 1193.82 892.313 1193.18 887.537C1193.77 892.324 1190.26 897.127 1185.32 898.279L1185.32 898.28L1185.32 898.28C1190.28 897.125 1194.79 900.08 1195.41 904.88L1195.41 904.88C1194.8 900.08 1198.31 895.252 1203.27 894.097Z" fill="black"/>
<path fill-rule="evenodd" clip-rule="evenodd" d="M1092.95 1314.1C1090.8 1296.95 1103.37 1279.73 1121.07 1275.6L1121.07 1275.6L1121.07 1275.6C1103.33 1279.73 1087.16 1269.16 1084.95 1251.98L1084.95 1251.98L1084.95 1251.98C1087.16 1269.15 1074.59 1286.42 1056.87 1290.56C1074.56 1286.46 1090.69 1296.98 1092.95 1314.1Z" fill="black"/>
<path fill-rule="evenodd" clip-rule="evenodd" d="M1297.88 865.77C1295.76 848.639 1308.32 831.447 1326 827.325L1326 827.325L1326 827.325C1308.29 831.454 1292.13 820.906 1289.89 803.76C1292.07 820.921 1279.49 838.165 1261.78 842.293C1261.78 842.294 1261.78 842.294 1261.78 842.294L1261.78 842.294L1261.78 842.294C1279.46 838.172 1295.59 848.677 1297.88 865.77Z" fill="black"/>
</svg>
