<svg width="1222" height="1309" viewBox="0 0 1222 1309" fill="none" xmlns="http://www.w3.org/2000/svg">
<path fill-rule="evenodd" clip-rule="evenodd" d="M214.458 356.701L214.458 356.701C239.492 360.164 256.889 383.905 253.317 409.727C256.889 383.905 280.079 365.779 305.112 369.242L305.112 369.242C280.079 365.779 262.681 342.038 266.253 316.216C262.681 342.038 239.492 360.164 214.458 356.701Z" fill="black"/>
<path fill-rule="evenodd" clip-rule="evenodd" d="M365.909 548.632C376.211 550.047 385.75 542.586 387.22 531.959C385.75 542.586 392.905 552.357 403.204 553.791C392.902 552.375 383.363 559.836 381.893 570.463C383.363 559.836 376.208 550.066 365.909 548.632Z" fill="black"/>
<path fill-rule="evenodd" clip-rule="evenodd" d="M871.539 645.204C870.069 655.829 860.534 663.29 850.235 661.878C860.53 663.315 867.682 673.084 866.213 683.709C867.682 673.084 877.218 665.624 887.517 667.035C877.221 665.598 870.069 655.829 871.539 645.204L871.539 645.204L871.539 645.204L871.539 645.204Z" fill="black"/>
<path fill-rule="evenodd" clip-rule="evenodd" d="M800.772 1039.04C811.074 1040.46 820.613 1032.99 822.083 1022.37C820.613 1032.99 827.768 1042.76 838.067 1044.2C827.765 1042.78 818.226 1050.24 816.756 1060.87C818.226 1050.24 811.071 1040.47 800.772 1039.04Z" fill="black"/>
<path fill-rule="evenodd" clip-rule="evenodd" d="M384.388 689.934C382.918 700.559 373.382 708.019 363.083 706.607C373.379 708.045 380.531 717.814 379.061 728.438C380.531 717.814 390.066 710.353 400.365 711.765C390.07 710.327 382.918 700.559 384.388 689.934Z" fill="black"/>
<path fill-rule="evenodd" clip-rule="evenodd" d="M652.306 1051.44L652.306 1051.44C659.297 1052.4 664.157 1059.03 663.165 1066.24C664.167 1059.03 670.644 1053.97 677.635 1054.94L677.635 1054.94C670.641 1053.97 665.78 1047.34 666.778 1040.12C665.78 1047.34 659.3 1052.4 652.306 1051.44Z" fill="black"/>
<path fill-rule="evenodd" clip-rule="evenodd" d="M557.971 643.171L557.971 643.171C564.965 644.139 569.827 650.772 568.829 657.987C569.827 650.772 576.306 645.708 583.301 646.675L583.301 646.675C576.306 645.708 571.445 639.074 572.443 631.859C571.445 639.074 564.966 644.139 557.971 643.171Z" fill="black"/>
<path fill-rule="evenodd" clip-rule="evenodd" d="M364.519 902.312L364.519 902.312C371.514 903.279 376.375 909.913 375.377 917.128C376.375 909.913 382.855 904.848 389.849 905.816L389.849 905.816C382.855 904.848 377.993 898.215 378.992 891C377.993 898.215 371.514 903.279 364.519 902.312Z" fill="black"/>
<path fill-rule="evenodd" clip-rule="evenodd" d="M916.482 634.604L916.482 634.604C941.501 638.065 958.893 661.779 955.348 687.584C958.94 661.786 982.117 643.683 1007.14 647.144L1007.14 647.144C982.103 643.681 964.705 619.941 968.277 594.118C964.705 619.941 941.516 638.066 916.482 634.604Z" fill="black"/>
<path fill-rule="evenodd" clip-rule="evenodd" d="M609.465 329.755L609.465 329.755C634.491 333.217 651.886 356.945 648.327 382.758C651.91 356.948 675.093 338.834 700.119 342.296L700.119 342.296C675.085 338.833 657.688 315.092 661.26 289.27C657.687 315.092 634.498 333.218 609.465 329.755Z" fill="black"/>
<path fill-rule="evenodd" clip-rule="evenodd" d="M176.841 933.109L176.841 933.109C201.874 936.572 219.272 960.313 215.7 986.135C219.272 960.313 242.461 942.187 267.495 945.65L267.495 945.65C242.461 942.187 225.063 918.446 228.635 892.624C225.063 918.446 201.874 936.572 176.841 933.109Z" fill="black"/>
<path fill-rule="evenodd" clip-rule="evenodd" d="M947.94 874.291C957.153 892.43 949.926 914.607 931.789 923.832L931.789 923.832C949.932 914.604 972.121 921.83 981.35 939.973C972.125 921.837 979.343 899.657 997.471 890.422C979.338 899.632 957.171 892.413 947.94 874.291Z" fill="black"/>
<path fill-rule="evenodd" clip-rule="evenodd" d="M201.895 603.09C183.763 612.314 176.534 634.482 185.738 652.619C176.5 634.499 154.326 627.287 136.194 636.51L136.194 636.51C154.323 627.288 161.552 605.125 152.355 586.99C161.596 605.103 183.766 612.312 201.895 603.09L201.895 603.09L201.895 603.09Z" fill="black"/>
<path fill-rule="evenodd" clip-rule="evenodd" d="M804.301 857.302C800.522 849.84 803.494 840.724 810.947 836.925C803.485 840.712 794.366 837.744 790.562 830.292C794.347 837.759 791.37 846.883 783.906 850.68L783.906 850.68C791.369 846.884 800.494 849.849 804.301 857.302Z" fill="black"/>
<path fill-rule="evenodd" clip-rule="evenodd" d="M418.773 979.248C422.568 986.71 431.687 989.687 439.152 985.909C431.702 989.717 428.739 998.841 432.534 1006.3L432.534 1006.3L432.534 1006.3C428.736 998.835 419.608 995.859 412.139 999.649C419.601 995.845 422.571 986.715 418.773 979.248L418.773 979.248L418.773 979.248Z" fill="black"/>
<path fill-rule="evenodd" clip-rule="evenodd" d="M282.188 715.513C285.973 722.98 282.996 732.104 275.532 735.901C275.532 735.901 275.532 735.901 275.532 735.901L275.532 735.901C283.002 732.101 292.139 735.076 295.939 742.547L295.939 742.547C292.14 735.078 295.113 725.943 302.58 722.142C295.117 725.935 285.993 722.968 282.188 715.513Z" fill="black"/>
<path fill-rule="evenodd" clip-rule="evenodd" d="M741.897 734.619C734.426 738.419 731.451 747.555 735.251 755.026L735.251 755.026L735.251 755.026C731.453 747.559 722.324 744.583 714.855 748.374C722.317 744.57 725.287 735.439 721.489 727.973L721.49 727.973C725.29 735.443 734.426 738.419 741.897 734.619L741.897 734.619Z" fill="black"/>
<path fill-rule="evenodd" clip-rule="evenodd" d="M395.385 646.355C390.316 648.934 388.297 655.134 390.875 660.203L381.538 641.845L390.716 637.176L395.385 646.355Z" fill="black"/>
<path fill-rule="evenodd" clip-rule="evenodd" d="M641.228 864.27C636.158 866.848 634.139 873.048 636.718 878.117L636.718 878.117L636.718 878.117C634.139 873.048 627.939 871.029 622.87 873.608L622.87 873.607C622.87 873.607 622.87 873.607 622.87 873.607C627.939 871.029 629.958 864.829 627.38 859.76C629.958 864.829 636.158 866.848 641.227 864.27L641.228 864.27Z" fill="black"/>
<path fill-rule="evenodd" clip-rule="evenodd" d="M653.047 610.155L653.047 610.155C647.977 612.733 641.777 610.714 639.199 605.645L639.199 605.645C639.199 605.645 639.199 605.645 639.199 605.645C641.777 610.714 639.758 616.914 634.689 619.493L634.689 619.493C639.758 616.914 645.958 618.933 648.537 624.003L648.537 624.003C645.958 618.933 647.977 612.733 653.047 610.155Z" fill="black"/>
<path fill-rule="evenodd" clip-rule="evenodd" d="M407.513 1033.62L407.513 1033.62C389.371 1042.85 382.144 1065.04 391.373 1083.18C382.144 1065.04 359.955 1057.81 341.812 1067.04C359.951 1057.82 367.178 1035.64 357.959 1017.49C367.191 1035.63 389.374 1042.85 407.513 1033.62Z" fill="black"/>
<path fill-rule="evenodd" clip-rule="evenodd" d="M711.58 1048.01L711.58 1048.01C693.445 1057.23 671.267 1050.01 662.031 1031.89C671.242 1050.03 664.014 1072.2 645.878 1081.43C664.021 1072.2 686.21 1079.42 695.439 1097.57L695.439 1097.57C686.211 1079.42 693.437 1057.23 711.58 1048.01Z" fill="black"/>
<path fill-rule="evenodd" clip-rule="evenodd" d="M747.438 554.236C738.217 536.107 745.425 513.938 763.537 504.697C745.412 513.888 723.265 506.672 714.034 488.566C723.238 506.703 716.01 528.872 697.877 538.095C716.02 528.867 738.209 536.093 747.438 554.236Z" fill="black"/>
<path fill-rule="evenodd" clip-rule="evenodd" d="M132.606 561.32C151.051 550.342 155.798 524.297 143.21 503.147L143.21 503.147L143.21 503.147C155.791 524.286 180.929 532.533 199.371 521.581C180.95 532.57 176.215 558.598 188.797 579.736L188.796 579.736C176.208 558.587 151.051 550.342 132.606 561.32Z" fill="black"/>
<path fill-rule="evenodd" clip-rule="evenodd" d="M343.071 622.14C350.665 617.619 352.62 606.895 347.437 598.186L347.437 598.186L347.437 598.186L347.437 598.186C352.62 606.895 362.979 610.29 370.574 605.77L370.574 605.77C370.574 605.77 370.574 605.77 370.574 605.77C362.985 610.287 361.027 620.999 366.197 629.705C361.01 621.01 350.66 617.623 343.071 622.14L343.071 622.14Z" fill="black"/>
<path fill-rule="evenodd" clip-rule="evenodd" d="M754.143 427.8C746.551 432.298 736.209 428.9 731.032 420.202L731.032 420.202L731.032 420.202C736.214 428.908 734.261 439.629 726.671 444.152C734.26 439.64 744.606 443.027 749.792 451.719C744.628 443.024 746.575 432.326 754.143 427.8Z" fill="black"/>
<path fill-rule="evenodd" clip-rule="evenodd" d="M912.319 751.595C919.914 747.074 921.868 736.35 916.685 727.641L916.685 727.641L916.685 727.641C921.868 736.35 932.227 739.745 939.822 735.224L939.822 735.224L939.822 735.224C939.822 735.224 939.822 735.224 939.822 735.224C932.233 739.742 930.276 750.453 935.445 759.159C930.257 750.464 919.908 747.077 912.319 751.595L912.319 751.595Z" fill="black"/>
<path fill-rule="evenodd" clip-rule="evenodd" d="M460.052 724.875C452.46 729.37 442.12 725.972 436.943 717.275L436.943 717.275L436.943 717.275C442.123 725.978 440.174 736.694 432.592 741.219C440.18 736.715 450.519 740.103 455.703 748.793C450.54 740.098 452.486 729.402 460.052 724.875Z" fill="black"/>
<path fill-rule="evenodd" clip-rule="evenodd" d="M821.989 841.206C827.143 838.138 828.469 830.861 824.952 824.952L824.952 824.952L824.952 824.952C828.469 830.861 835.498 833.165 840.652 830.097L840.652 830.097L840.652 830.097C840.652 830.097 840.652 830.097 840.652 830.097C835.498 833.165 834.172 840.442 837.689 846.352L837.689 846.352C834.172 840.442 827.143 838.139 821.989 841.206L821.989 841.206Z" fill="black"/>
<path fill-rule="evenodd" clip-rule="evenodd" d="M523.906 588.483C529.06 585.416 530.386 578.138 526.869 572.229L526.869 572.229L526.869 572.229C530.386 578.138 537.416 580.442 542.569 577.375L542.569 577.375C537.416 580.442 536.089 587.719 539.607 593.629L539.607 593.629C536.089 587.72 529.06 585.416 523.906 588.483L523.906 588.483Z" fill="black"/>
<path fill-rule="evenodd" clip-rule="evenodd" d="M546.725 886.071C551.879 883.003 553.205 875.726 549.688 869.816L549.688 869.816L549.688 869.816C553.205 875.726 560.234 878.029 565.388 874.962L565.388 874.962C560.234 878.03 558.908 885.307 562.425 891.216L562.425 891.216C558.908 885.307 551.879 883.003 546.725 886.071L546.725 886.071L546.725 886.071L546.725 886.071Z" fill="black"/>
<path fill-rule="evenodd" clip-rule="evenodd" d="M902.333 393.83C914.914 414.909 939.989 423.138 958.411 412.24C940.043 423.24 935.323 449.217 947.866 470.329C935.285 449.231 910.19 440.996 891.761 451.911C910.137 440.92 914.867 414.946 902.333 393.83Z" fill="black"/>
<path fill-rule="evenodd" clip-rule="evenodd" d="M477.73 392.454C465.149 371.357 440.054 363.123 421.627 374.038C440.008 363.043 444.735 337.058 432.188 315.939C444.765 337.031 469.849 345.267 488.276 334.367C469.909 345.367 465.189 371.342 477.73 392.454Z" fill="black"/>
<path fill-rule="evenodd" clip-rule="evenodd" d="M451.874 952.442C464.463 973.591 489.62 981.836 508.064 970.858C489.631 981.83 484.878 1007.85 497.438 1028.99C484.846 1007.88 459.717 999.647 441.285 1010.61C459.718 999.623 464.459 973.586 451.874 952.442Z" fill="black"/>
<path fill-rule="evenodd" clip-rule="evenodd" d="M225.023 766.323C241.565 774.784 260.284 768.143 266.856 751.469C260.277 768.161 268.364 788.586 284.919 797.089L284.919 797.089L284.919 797.089C268.364 788.586 249.611 795.223 243.032 811.915C249.604 795.241 241.542 774.843 225.023 766.323Z" fill="black"/>
<path fill-rule="evenodd" clip-rule="evenodd" d="M809.522 614.43C802.732 610.917 799.42 602.526 802.123 595.666L802.123 595.666C799.414 602.538 791.692 605.272 784.876 601.77L784.876 601.77C791.692 605.272 795.022 613.682 792.313 620.555L792.313 620.555L792.314 620.555C795.017 613.695 802.715 610.959 809.522 614.43Z" fill="black"/>
<path fill-rule="evenodd" clip-rule="evenodd" d="M626.855 913.944L626.855 913.944L626.855 913.944C633.668 917.443 641.384 914.716 644.098 907.852C641.398 914.723 644.728 923.125 651.54 926.624L651.54 926.624C644.724 923.123 637.002 925.856 634.293 932.729L634.293 932.729C637.002 925.856 633.672 917.445 626.855 913.944Z" fill="black"/>
<path fill-rule="evenodd" clip-rule="evenodd" d="M384.623 791.654C391.421 795.164 394.738 803.561 392.032 810.424C392.032 810.424 392.032 810.424 392.032 810.424L392.033 810.424C394.741 803.551 402.463 800.818 409.28 804.32L409.28 804.32C402.467 800.82 399.137 792.417 401.838 785.546C399.129 792.402 391.429 795.132 384.623 791.654Z" fill="black"/>
<path fill-rule="evenodd" clip-rule="evenodd" d="M697.597 556.938L697.597 556.938C694.888 563.811 687.166 566.544 680.35 563.042L680.35 563.042C687.158 566.539 690.488 574.933 687.798 581.801C690.516 574.947 698.227 572.225 705.035 575.722L705.035 575.722L705.035 575.722C698.218 572.221 694.888 563.811 697.597 556.938Z" fill="black"/>
<path fill-rule="evenodd" clip-rule="evenodd" d="M418.962 678.891C417.124 683.555 419.383 689.261 424.009 691.637L424.009 691.637L424.009 691.637L424.009 691.637C419.392 689.266 414.162 691.109 412.315 695.755C414.135 691.096 411.875 685.405 407.258 683.033L407.258 683.033C411.884 685.409 417.124 683.554 418.962 678.891L418.962 678.891Z" fill="black"/>
<path fill-rule="evenodd" clip-rule="evenodd" d="M711.51 720.674C706.896 718.304 704.636 712.62 706.449 707.962C704.601 712.595 699.386 714.435 694.776 712.078C699.39 714.459 701.642 720.158 699.806 724.816L699.806 724.816C701.645 720.152 706.884 718.298 711.51 720.674L711.51 720.674L711.51 720.674Z" fill="black"/>
<path fill-rule="evenodd" clip-rule="evenodd" d="M555.569 516.582C560.182 518.941 565.4 517.097 567.245 512.458C565.426 517.117 567.686 522.806 572.303 525.178L572.303 525.178C567.677 522.802 562.437 524.657 560.599 529.321C562.435 524.662 560.183 518.964 555.569 516.582Z" fill="black"/>
<path fill-rule="evenodd" clip-rule="evenodd" d="M668.914 1006.09C652.398 997.573 644.337 977.176 650.908 960.503L650.908 960.503L650.908 960.503C644.329 977.195 625.576 983.832 609.022 975.329C625.562 983.825 633.65 1004.22 627.101 1020.91C633.687 1004.27 652.387 997.642 668.914 1006.09Z" fill="black"/>
<path fill-rule="evenodd" clip-rule="evenodd" d="M876.91 852.131C860.415 843.6 852.369 823.218 858.936 806.557L858.936 806.556L858.936 806.556C852.357 823.248 833.604 829.886 817.049 821.382C833.6 829.884 841.687 850.301 835.117 866.99C841.688 850.337 860.381 843.698 876.91 852.131Z" fill="black"/>
<path fill-rule="evenodd" clip-rule="evenodd" d="M578.839 374.111C572.276 390.799 580.364 411.208 596.91 419.708L596.911 419.708L596.91 419.708C580.356 411.205 561.603 417.842 555.024 434.534L555.024 434.534C561.594 417.864 553.537 397.47 537.026 388.947C553.557 397.397 572.26 390.764 578.839 374.111Z" fill="black"/>
<path fill-rule="evenodd" clip-rule="evenodd" d="M598.04 1092.18C585.343 1109.6 562.871 1114.36 547.785 1102.81C562.845 1114.43 564.773 1137.98 552.084 1155.45L552.084 1155.45C552.084 1155.45 552.085 1155.45 552.085 1155.45C564.769 1137.99 587.263 1133.21 602.366 1144.75C587.34 1133.14 585.405 1109.64 598.04 1092.18Z" fill="black"/>
<path fill-rule="evenodd" clip-rule="evenodd" d="M546.688 433.027C541.465 440.193 532.227 442.154 526.015 437.421C532.197 442.211 532.983 451.895 527.764 459.081L527.764 459.081L527.764 459.081C527.764 459.081 527.764 459.081 527.764 459.081C532.984 451.895 542.238 449.923 548.457 454.664C542.28 449.881 541.488 440.211 546.688 433.027Z" fill="black"/>
<path fill-rule="evenodd" clip-rule="evenodd" d="M820.334 691.22C815.1 698.369 805.862 700.313 799.659 695.562C805.865 700.344 806.66 710.046 801.434 717.241L801.434 717.241C801.434 717.241 801.434 717.241 801.434 717.241C806.665 710.04 815.947 708.076 822.166 712.854L822.166 712.854L822.165 712.854C815.963 708.088 815.149 698.416 820.334 691.22Z" fill="black"/>
<path fill-rule="evenodd" clip-rule="evenodd" d="M636.597 947.647C631.36 954.809 622.106 956.754 615.901 951.986L615.901 951.986C622.12 956.764 622.921 966.476 617.691 973.677L617.691 973.677C617.691 973.677 617.691 973.677 617.691 973.677C622.913 966.487 632.174 964.518 638.392 969.267C632.214 964.492 631.413 954.832 636.597 947.647Z" fill="black"/>
<path fill-rule="evenodd" clip-rule="evenodd" d="M462.608 572.946C467.802 565.761 467.006 556.094 460.827 551.314C467.046 556.06 476.304 554.09 481.525 546.901L481.525 546.901L481.525 546.901C476.295 554.103 477.096 563.814 483.315 568.593L483.315 568.593C483.315 568.593 483.315 568.593 483.315 568.592C477.105 563.822 467.843 565.772 462.608 572.946Z" fill="black"/>
<path fill-rule="evenodd" clip-rule="evenodd" d="M513.136 907.129L513.136 907.129L513.136 907.13C517.352 910.369 517.899 916.951 514.359 921.836C517.906 916.966 524.185 915.635 528.402 918.859C524.197 915.612 523.659 909.033 527.203 904.152L527.203 904.152C523.654 909.039 517.356 910.372 513.136 907.129L513.136 907.129Z" fill="black"/>
<path fill-rule="evenodd" clip-rule="evenodd" d="M615.844 590.586C619.385 585.723 625.653 584.389 629.869 587.597C625.679 584.346 625.147 577.777 628.687 572.903L628.687 572.903C625.147 577.777 618.873 579.116 614.653 575.906C618.839 579.155 619.373 585.714 615.844 590.586Z" fill="black"/>
<path fill-rule="evenodd" clip-rule="evenodd" d="M397.356 691.256C393.802 696.112 387.526 697.429 383.317 694.195L384.532 708.914C384.532 708.914 384.532 708.914 384.532 708.914C388.072 704.04 394.348 702.701 398.568 705.913C394.387 702.671 393.847 696.127 397.356 691.256Z" fill="black"/>
<path fill-rule="evenodd" clip-rule="evenodd" d="M854.232 699.762L854.232 699.762C869.335 711.367 871.281 734.952 858.579 752.441L858.579 752.441C871.282 734.952 893.823 730.182 908.926 741.786L908.926 741.786L908.926 741.786C893.823 730.181 891.876 706.596 904.579 689.107C891.876 706.596 869.335 711.367 854.232 699.762Z" fill="black"/>
<path fill-rule="evenodd" clip-rule="evenodd" d="M785.965 367.667C801.068 379.272 823.61 374.501 836.312 357.012L836.312 357.012C823.61 374.501 825.556 398.087 840.659 409.691L840.659 409.691C825.57 398.097 803.056 402.848 790.347 420.298C803.011 402.814 801.054 379.261 785.965 367.667L785.965 367.667L785.965 367.667Z" fill="black"/>
<path fill-rule="evenodd" clip-rule="evenodd" d="M247.336 648.486L247.336 648.486L247.336 648.486C262.424 660.079 264.381 683.627 251.722 701.111C264.424 683.677 286.915 678.923 302.002 690.489C286.924 678.877 284.988 655.31 297.683 637.831L297.683 637.831C284.98 655.32 262.439 660.09 247.336 648.486Z" fill="black"/>
<path fill-rule="evenodd" clip-rule="evenodd" d="M805.072 915.263L805.072 915.263L805.072 915.263C789.421 915.392 777.7 902.082 778.892 885.533L778.892 885.533C777.7 902.082 764.046 915.601 748.395 915.731L748.395 915.731C764.046 915.602 775.767 928.912 774.575 945.46L774.576 945.46C775.768 928.912 789.421 915.392 805.072 915.263Z" fill="black"/>
<path fill-rule="evenodd" clip-rule="evenodd" d="M396.109 417.49L396.109 417.49L396.109 417.49C380.458 417.619 368.737 404.309 369.929 387.761L369.929 387.761L369.929 387.761C369.929 387.761 369.929 387.761 369.929 387.761C368.739 404.283 355.126 417.787 339.505 417.957C355.12 417.87 366.803 431.165 365.612 447.687L365.612 447.688L365.612 447.688C366.804 431.139 380.458 417.62 396.109 417.49L396.109 417.49Z" fill="black"/>
<path fill-rule="evenodd" clip-rule="evenodd" d="M691.077 821.026C691.594 814.238 697.203 808.701 703.63 808.648L703.63 808.648L703.63 808.648L703.63 808.648C697.185 808.701 692.359 803.221 692.85 796.407L692.85 796.407C692.85 796.407 692.85 796.407 692.85 796.407C692.36 803.201 686.769 808.756 680.347 808.84C686.747 808.818 691.536 814.257 691.077 821.026Z" fill="black"/>
<path fill-rule="evenodd" clip-rule="evenodd" d="M399.002 782.098C392.558 782.151 386.935 787.718 386.445 794.532L386.445 794.532L386.445 794.532L386.445 794.532C386.935 787.718 382.109 782.238 375.665 782.291L375.665 782.291C382.109 782.237 387.731 776.67 388.222 769.857L388.222 769.857C387.731 776.671 392.558 782.151 399.002 782.098L399.002 782.098L399.002 782.098Z" fill="black"/>
<path fill-rule="evenodd" clip-rule="evenodd" d="M402.173 553.031C402.685 546.238 408.297 540.695 414.727 540.642L414.727 540.642L414.727 540.642L414.727 540.642C408.283 540.695 403.456 535.214 403.947 528.4L403.947 528.4C403.456 535.214 397.834 540.781 391.39 540.834L391.39 540.835L391.39 540.835C397.82 540.782 402.639 546.238 402.173 553.031Z" fill="black"/>
<path fill-rule="evenodd" clip-rule="evenodd" d="M686.581 721.54C687.097 714.751 692.707 709.213 699.134 709.16L699.134 709.16L699.134 709.16C692.69 709.213 687.863 703.732 688.354 696.918L688.354 696.918L688.354 696.918C688.354 696.918 688.354 696.918 688.354 696.919C687.865 703.709 682.28 709.261 675.864 709.352C682.258 709.337 687.04 714.775 686.581 721.54Z" fill="black"/>
<path fill-rule="evenodd" clip-rule="evenodd" d="M506.236 519.189L506.236 519.189C501.863 519.225 498.588 515.506 498.921 510.882L498.92 510.882C498.587 515.506 494.772 519.283 490.399 519.32L490.399 519.32C494.772 519.284 498.047 523.003 497.714 527.626L497.714 527.626L497.714 527.626C498.047 523.003 501.862 519.225 506.235 519.189L506.236 519.189Z" fill="black"/>
<path fill-rule="evenodd" clip-rule="evenodd" d="M580.852 766.945L580.852 766.945C576.479 766.981 573.204 763.262 573.537 758.638L573.537 758.638C573.537 758.638 573.537 758.638 573.537 758.638C573.204 763.262 569.389 767.04 565.016 767.076L565.016 767.076C569.389 767.04 572.664 770.759 572.331 775.383L572.331 775.383C572.664 770.759 576.479 766.981 580.852 766.945L580.852 766.945Z" fill="black"/>
<path fill-rule="evenodd" clip-rule="evenodd" d="M683.169 578.071C682.842 582.69 686.116 586.402 690.485 586.366L690.485 586.366C686.112 586.403 682.297 590.18 681.964 594.804L681.964 594.804C682.297 590.18 679.022 586.461 674.649 586.497L674.649 586.497C674.649 586.497 674.649 586.497 674.649 586.497C679.018 586.461 682.831 582.69 683.169 578.071Z" fill="black"/>
<path fill-rule="evenodd" clip-rule="evenodd" d="M332.831 775.598L332.831 775.598L332.831 775.599C331.641 792.118 343.319 805.411 358.929 805.329C343.312 805.505 329.705 819.006 328.515 835.525L328.515 835.525C329.706 818.977 317.985 805.667 302.335 805.796L302.335 805.796C317.985 805.667 331.639 792.147 332.831 775.599C332.831 775.599 332.831 775.599 332.831 775.598Z" fill="black"/>
<path fill-rule="evenodd" clip-rule="evenodd" d="M523.068 956.263C524.299 939.751 537.934 926.276 553.559 926.147L553.559 926.147C537.908 926.276 526.187 912.965 527.379 896.417L527.379 896.417C526.187 912.965 512.533 926.485 496.882 926.614C496.882 926.614 496.882 926.614 496.882 926.614L496.882 926.614L496.882 926.614C512.508 926.485 524.216 939.752 523.068 956.263Z" fill="black"/>
<path fill-rule="evenodd" clip-rule="evenodd" d="M775.085 579.873C776.31 563.357 789.948 549.875 805.576 549.746L805.576 549.746L805.576 549.746L805.576 549.746C789.952 549.875 778.244 536.61 779.39 520.101C778.158 536.611 764.524 550.085 748.9 550.214C748.9 550.214 748.9 550.214 748.9 550.214L748.9 550.214C764.528 550.085 776.239 563.357 775.085 579.873Z" fill="black"/>
<path fill-rule="evenodd" clip-rule="evenodd" d="M430.487 605.058C437.302 604.526 442.888 597.433 442.964 589.217L442.964 589.217L442.964 589.217C442.889 597.433 448.352 603.663 455.167 603.13L455.167 603.131C448.359 603.662 442.777 610.742 442.691 618.948C442.755 610.743 437.296 604.526 430.488 605.058L430.487 605.058L430.487 605.058Z" fill="black"/>
<path fill-rule="evenodd" clip-rule="evenodd" d="M754.525 614.793L754.525 614.793L754.525 614.793C761.341 614.26 766.804 620.49 766.728 628.707L766.728 628.707C766.728 628.707 766.728 628.707 766.728 628.707C766.804 620.504 772.371 613.421 779.171 612.868C772.372 613.377 766.927 607.154 767.002 598.951C766.927 607.168 761.341 614.26 754.525 614.793L754.525 614.793Z" fill="black"/>
<path fill-rule="evenodd" clip-rule="evenodd" d="M765.814 919.708C765.871 911.527 760.436 905.327 753.651 905.831C760.447 905.274 766.011 898.193 766.087 889.993L766.087 889.992L766.087 889.992L766.087 889.992C766.011 898.209 771.475 904.439 778.29 903.906L778.29 903.906L778.29 903.906C778.29 903.906 778.29 903.906 778.29 903.906C771.486 904.438 765.907 911.508 765.814 919.708Z" fill="black"/>
<path fill-rule="evenodd" clip-rule="evenodd" d="M454.199 708.388C454.1 716.584 448.523 723.648 441.723 724.179L441.723 724.179L441.723 724.179C448.527 723.648 453.983 729.856 453.926 738.053C454.019 729.853 459.598 722.783 466.402 722.252L466.402 722.252L466.402 722.252C459.601 722.783 454.146 716.58 454.199 708.388Z" fill="black"/>
<path fill-rule="evenodd" clip-rule="evenodd" d="M658.188 938.243C662.812 937.882 666.602 933.069 666.654 927.493L666.654 927.493L666.654 927.493L666.654 927.493C666.603 933.064 670.304 937.289 674.923 936.936C670.304 937.304 666.519 942.113 666.468 947.684C666.519 942.109 662.812 937.882 658.188 938.243L658.188 938.243Z" fill="black"/>
<path fill-rule="evenodd" clip-rule="evenodd" d="M563.107 646.204C567.731 645.842 571.522 641.03 571.573 635.454L571.573 635.454L571.573 635.454L571.573 635.454C571.522 641.019 575.216 645.241 579.829 644.897C575.216 645.274 571.439 650.08 571.387 655.645C571.387 655.645 571.387 655.645 571.387 655.645L571.387 655.645C571.439 650.07 567.731 645.843 563.107 646.204L563.107 646.204L563.107 646.204Z" fill="black"/>
<path fill-rule="evenodd" clip-rule="evenodd" d="M467.335 860.231C467.284 865.788 463.518 870.588 458.914 870.977C463.517 870.646 467.201 874.864 467.149 880.422L467.15 880.422C467.201 874.846 470.991 870.033 475.616 869.672L475.616 869.672C470.991 870.033 467.284 865.806 467.335 860.23L467.335 860.23L467.335 860.231Z" fill="black"/>
<path fill-rule="evenodd" clip-rule="evenodd" d="M825.624 545.627C825.395 565.526 811.863 582.685 795.354 583.994C811.892 582.721 825.144 597.844 824.961 617.787C825.144 597.854 838.68 580.645 855.206 579.319C838.709 580.572 825.488 565.509 825.624 545.627Z" fill="black"/>
<path fill-rule="evenodd" clip-rule="evenodd" d="M611.918 414.648C611.716 434.557 598.196 451.738 581.689 453.073C598.207 451.829 611.437 466.943 611.254 486.87C611.437 466.943 624.965 449.739 641.484 448.403C624.978 449.647 611.754 434.555 611.918 414.648Z" fill="black"/>
<path fill-rule="evenodd" clip-rule="evenodd" d="M369.118 957.065C369.319 937.152 382.844 919.967 399.356 918.637C382.834 919.886 369.599 904.771 369.783 884.841L369.783 884.841L369.782 884.841C369.599 904.775 356.061 921.985 339.533 923.309C356.05 922.052 369.284 937.15 369.118 957.065Z" fill="black"/>
<path fill-rule="evenodd" clip-rule="evenodd" d="M379.435 549.012C368.411 558.767 365.553 576.561 373.05 588.755L373.05 588.756L373.05 588.756L373.05 588.756C365.558 576.57 350.56 574.587 339.538 584.318C350.542 574.558 353.391 556.781 345.899 544.596L345.899 544.596C353.397 556.79 368.411 558.767 379.435 549.012L379.435 549.012Z" fill="black"/>
<path fill-rule="evenodd" clip-rule="evenodd" d="M794.501 629.93C789.962 633.947 788.785 641.274 791.872 646.295L791.872 646.295L791.872 646.295L791.872 646.295C788.787 641.277 782.611 640.461 778.073 644.468C782.604 640.449 783.777 633.129 780.692 628.111L780.692 628.111C783.779 633.133 789.961 633.947 794.501 629.93L794.501 629.93Z" fill="black"/>
<path fill-rule="evenodd" clip-rule="evenodd" d="M565.284 799.685L565.284 799.685L565.284 799.685C560.745 803.702 554.562 802.888 551.475 797.866L551.475 797.866C554.562 802.888 553.385 810.215 548.846 814.231L548.846 814.232L548.846 814.232C553.386 810.215 559.568 811.029 562.655 816.05L562.655 816.05C559.568 811.029 560.745 803.702 565.284 799.685Z" fill="black"/>
<path fill-rule="evenodd" clip-rule="evenodd" d="M454.707 622.785L454.707 622.785C450.168 626.802 443.986 625.988 440.898 620.967L440.898 620.967C443.985 625.988 442.808 633.315 438.269 637.332C438.269 637.332 438.269 637.332 438.269 637.332L438.269 637.332C442.809 633.315 448.991 634.129 452.078 639.151L452.078 639.15C448.991 634.129 450.168 626.802 454.707 622.785Z" fill="black"/>
<path fill-rule="evenodd" clip-rule="evenodd" d="M738.513 580.148C735.453 575.128 736.636 567.827 741.164 563.819L741.164 563.819C736.625 567.836 730.442 567.022 727.355 562.001L727.355 562.001C730.437 567.015 729.268 574.328 724.746 578.348C729.272 574.361 735.423 575.166 738.513 580.148Z" fill="black"/>
<path fill-rule="evenodd" clip-rule="evenodd" d="M508.727 551.415C505.647 554.141 504.849 559.112 506.944 562.519L506.944 562.519L506.943 562.52L506.943 562.52C504.854 559.121 500.674 558.563 497.596 561.266C500.651 558.541 501.444 553.599 499.369 550.201C501.468 553.59 505.653 554.135 508.727 551.415L508.727 551.415Z" fill="black"/>
<path fill-rule="evenodd" clip-rule="evenodd" d="M677.118 675.648C679.204 679.041 683.373 679.603 686.449 676.916C683.401 679.649 682.618 684.593 684.704 687.986L684.705 687.986L684.704 687.987L684.704 687.986C682.618 684.593 678.449 684.031 675.373 686.718C678.421 683.985 679.204 679.041 677.118 675.648C677.118 675.648 677.118 675.648 677.118 675.648L677.118 675.648L677.118 675.648Z" fill="black"/>
<path fill-rule="evenodd" clip-rule="evenodd" d="M673.135 484.137L673.135 484.137L673.135 484.137C670.067 486.852 665.891 486.314 663.789 482.941C665.854 486.347 665.05 491.292 661.981 494.008C661.981 494.008 661.981 494.008 661.981 494.008L661.981 494.008C665.061 491.282 669.256 491.835 671.351 495.242L671.352 495.241C669.257 491.834 670.055 486.863 673.135 484.137Z" fill="black"/>
<path fill-rule="evenodd" clip-rule="evenodd" d="M548.661 840.468L548.66 840.468L548.66 840.468C537.637 850.223 522.622 848.246 515.125 836.052L515.125 836.052C522.622 848.246 519.763 866.04 508.74 875.795L508.74 875.796C519.764 866.04 534.778 868.017 542.276 880.212C534.778 868.017 537.637 850.223 548.661 840.468L548.661 840.468Z" fill="black"/>
<path fill-rule="evenodd" clip-rule="evenodd" d="M740.978 843.647C733.533 831.455 736.401 813.709 747.404 803.972L713.869 799.556L713.868 799.556C713.868 799.556 713.868 799.556 713.868 799.556C721.355 811.732 718.516 829.49 707.534 839.255C718.532 829.568 733.478 831.532 740.978 843.647Z" fill="black"/>
<path fill-rule="evenodd" clip-rule="evenodd" d="M702.715 383.334C710.216 395.471 725.182 397.437 736.188 387.726C725.189 397.488 722.343 415.26 729.834 427.443L729.834 427.443L729.834 427.443L729.834 427.443C722.336 415.249 707.322 413.271 696.298 423.027L696.298 423.027C696.298 423.027 696.298 423.027 696.298 423.027C707.306 413.285 710.172 395.527 702.715 383.334Z" fill="black"/>
</svg>
