<svg width="1128" height="1195" viewBox="0 0 1128 1195" fill="none" xmlns="http://www.w3.org/2000/svg">
<path fill-rule="evenodd" clip-rule="evenodd" d="M184.476 242.28L184.476 242.28C209.509 245.743 226.907 269.484 223.335 295.306C226.907 269.484 250.096 251.358 275.13 254.821L275.13 254.821C250.096 251.358 232.698 227.617 236.271 201.795C232.698 227.617 209.509 245.743 184.476 242.28Z" fill="black"/>
<path fill-rule="evenodd" clip-rule="evenodd" d="M335.927 434.21C346.228 435.626 355.767 428.165 357.237 417.538C355.767 428.165 362.923 437.936 373.222 439.37C362.92 437.954 353.381 445.415 351.911 456.042C353.381 445.415 346.226 435.645 335.927 434.21Z" fill="black"/>
<path fill-rule="evenodd" clip-rule="evenodd" d="M841.557 530.783C840.087 541.408 830.552 548.869 820.253 547.457C830.548 548.894 837.7 558.663 836.23 569.288C837.7 558.663 847.236 551.203 857.535 552.614C847.239 551.177 840.087 541.408 841.557 530.783L841.557 530.783L841.557 530.783L841.557 530.783Z" fill="black"/>
<path fill-rule="evenodd" clip-rule="evenodd" d="M770.79 924.618C781.091 926.034 790.63 918.573 792.1 907.946C790.63 918.573 797.786 928.343 808.085 929.778C797.783 928.362 788.244 935.823 786.774 946.45C788.244 935.823 781.089 926.053 770.79 924.618Z" fill="black"/>
<path fill-rule="evenodd" clip-rule="evenodd" d="M354.405 575.513C352.936 586.138 343.4 593.598 333.101 592.186C343.397 593.624 350.549 603.392 349.079 614.017C350.549 603.392 360.084 595.932 370.383 597.344C360.088 595.906 352.936 586.138 354.405 575.513Z" fill="black"/>
<path fill-rule="evenodd" clip-rule="evenodd" d="M622.323 937.015L622.323 937.015C629.315 937.983 634.175 944.61 633.182 951.821C634.185 944.612 640.662 939.552 647.653 940.519L647.653 940.519C640.658 939.552 635.797 932.918 636.795 925.703C635.797 932.918 629.318 937.983 622.323 937.015Z" fill="black"/>
<path fill-rule="evenodd" clip-rule="evenodd" d="M527.989 528.75L527.989 528.751C534.983 529.718 539.844 536.351 538.846 543.567C539.844 536.351 546.324 531.287 553.318 532.255L553.318 532.254C546.324 531.287 541.463 524.654 542.461 517.438C541.463 524.654 534.983 529.718 527.989 528.75Z" fill="black"/>
<path fill-rule="evenodd" clip-rule="evenodd" d="M334.537 787.891L334.537 787.891C341.532 788.858 346.393 795.492 345.395 802.707C346.393 795.492 352.872 790.427 359.867 791.395L359.867 791.395C352.872 790.427 348.011 783.794 349.009 776.579C348.011 783.794 341.532 788.858 334.537 787.891Z" fill="black"/>
<path fill-rule="evenodd" clip-rule="evenodd" d="M886.5 520.183L886.5 520.183C911.519 523.644 928.911 547.359 925.365 573.163C928.958 547.365 952.135 529.262 977.154 532.723L977.154 532.723C952.121 529.26 934.723 505.52 938.295 479.697C934.723 505.52 911.533 523.646 886.5 520.183Z" fill="black"/>
<path fill-rule="evenodd" clip-rule="evenodd" d="M587.655 284.038L587.655 284.038C612.681 287.5 630.076 311.227 626.517 337.041C630.1 311.23 653.283 293.116 678.308 296.578L678.309 296.578C653.275 293.115 635.877 269.375 639.449 243.553C635.877 269.375 612.688 287.501 587.655 284.038Z" fill="black"/>
<path fill-rule="evenodd" clip-rule="evenodd" d="M146.859 818.688L146.859 818.688C171.892 822.151 189.29 845.892 185.718 871.714C189.29 845.892 212.479 827.766 237.512 831.229L237.512 831.229C212.479 827.766 195.081 804.025 198.653 778.203C195.081 804.025 171.892 822.151 146.859 818.688Z" fill="black"/>
<path fill-rule="evenodd" clip-rule="evenodd" d="M917.958 759.87C927.171 778.009 919.943 800.186 901.807 809.411L901.807 809.411C919.95 800.182 942.139 807.409 951.367 825.552C942.142 807.415 949.36 785.236 967.489 776.001C949.356 785.211 927.189 777.992 917.958 759.87Z" fill="black"/>
<path fill-rule="evenodd" clip-rule="evenodd" d="M171.913 488.669C153.781 497.892 146.552 520.061 155.756 538.198C146.517 520.078 124.344 512.866 106.211 522.089L106.211 522.089C124.341 512.867 131.57 490.704 122.373 472.569C131.614 490.682 153.783 497.891 171.913 488.669L171.913 488.669L171.913 488.669Z" fill="black"/>
<path fill-rule="evenodd" clip-rule="evenodd" d="M774.319 742.881C770.539 735.419 773.511 726.303 780.965 722.504C773.503 726.291 764.384 723.323 760.58 715.871C764.364 723.338 761.388 732.462 753.924 736.258L753.924 736.258C761.386 732.462 770.511 735.428 774.319 742.881Z" fill="black"/>
<path fill-rule="evenodd" clip-rule="evenodd" d="M388.791 864.827C392.586 872.288 401.705 875.266 409.17 871.488C401.72 875.296 398.757 884.419 402.552 891.881L402.552 891.881L402.552 891.881C398.754 884.414 389.625 881.438 382.157 885.228C389.618 881.424 392.589 872.294 388.791 864.827L388.791 864.827L388.791 864.827Z" fill="black"/>
<path fill-rule="evenodd" clip-rule="evenodd" d="M252.206 601.092C255.99 608.559 253.013 617.683 245.55 621.479C245.55 621.479 245.55 621.479 245.55 621.479L245.55 621.48C253.02 617.679 262.157 620.655 265.957 628.126L265.957 628.126C262.158 620.657 265.131 611.522 272.598 607.721C265.135 611.514 256.011 608.547 252.206 601.092Z" fill="black"/>
<path fill-rule="evenodd" clip-rule="evenodd" d="M711.914 620.198C704.444 623.998 701.468 633.134 705.268 640.605L705.268 640.605L705.268 640.605C701.47 633.138 692.341 630.162 684.873 633.952C692.335 630.149 695.305 621.018 691.507 613.551L691.507 613.551C695.307 621.022 704.444 623.997 711.914 620.197L711.914 620.198Z" fill="black"/>
<path fill-rule="evenodd" clip-rule="evenodd" d="M365.403 531.934C360.334 534.513 358.314 540.712 360.893 545.782L351.555 527.424L360.734 522.755L365.403 531.934Z" fill="black"/>
<path fill-rule="evenodd" clip-rule="evenodd" d="M611.245 749.848C606.176 752.427 604.157 758.627 606.735 763.696L606.735 763.696L606.735 763.696C604.157 758.627 597.957 756.608 592.887 759.186L592.887 759.186C592.887 759.186 592.887 759.186 592.887 759.186C597.957 756.608 599.976 750.408 597.397 745.339C599.976 750.408 606.176 752.427 611.245 749.848L611.245 749.848Z" fill="black"/>
<path fill-rule="evenodd" clip-rule="evenodd" d="M623.064 495.734L623.064 495.734C617.995 498.312 611.795 496.293 609.217 491.224L609.216 491.224C609.216 491.224 609.216 491.224 609.216 491.224C611.795 496.293 609.776 502.493 604.707 505.072L604.707 505.072C609.776 502.493 615.976 504.512 618.554 509.582L618.554 509.582C615.976 504.512 617.995 498.312 623.064 495.734Z" fill="black"/>
<path fill-rule="evenodd" clip-rule="evenodd" d="M377.531 919.202L377.531 919.202C359.388 928.431 352.162 950.62 361.39 968.763C352.162 950.62 329.973 943.393 311.83 952.622C329.969 943.395 337.196 921.214 327.977 903.073C337.209 921.207 359.392 928.429 377.531 919.202Z" fill="black"/>
<path fill-rule="evenodd" clip-rule="evenodd" d="M681.598 933.585L681.598 933.585C663.462 942.81 641.284 935.593 632.049 917.467C641.259 935.606 634.031 957.78 615.896 967.005C634.039 957.776 656.228 965.003 665.457 983.146L665.457 983.146C656.228 965.003 663.455 942.814 681.598 933.585Z" fill="black"/>
<path fill-rule="evenodd" clip-rule="evenodd" d="M717.456 439.815C708.234 421.686 715.443 399.517 733.555 390.276C715.43 399.467 693.283 392.251 684.052 374.145C693.256 392.282 686.028 414.451 667.895 423.674C686.038 414.446 708.227 421.672 717.456 439.815Z" fill="black"/>
<path fill-rule="evenodd" clip-rule="evenodd" d="M102.624 446.899C121.068 435.92 125.816 409.876 113.227 388.726L113.227 388.726L113.227 388.726C125.809 409.864 150.946 418.112 169.388 407.16C150.968 418.148 146.232 444.177 158.814 465.315L158.814 465.315C146.226 444.166 121.068 435.92 102.624 446.899Z" fill="black"/>
<path fill-rule="evenodd" clip-rule="evenodd" d="M313.088 507.719C320.683 503.198 322.638 492.474 317.454 483.765L317.454 483.765L317.454 483.765L317.454 483.765C322.638 492.474 332.997 495.869 340.592 491.348L340.592 491.348C340.592 491.348 340.592 491.348 340.592 491.348C333.002 495.866 331.045 506.578 336.214 515.283C331.027 506.588 320.678 503.201 313.088 507.719L313.088 507.719Z" fill="black"/>
<path fill-rule="evenodd" clip-rule="evenodd" d="M724.161 313.379C716.568 317.876 706.227 314.479 701.049 305.78L701.049 305.78L701.049 305.78C706.232 314.487 704.279 325.208 696.689 329.73C704.278 325.218 714.624 328.606 719.809 337.298C714.646 328.603 716.593 317.905 724.161 313.379Z" fill="black"/>
<path fill-rule="evenodd" clip-rule="evenodd" d="M882.336 637.173C889.931 632.653 891.886 621.928 886.703 613.22L886.703 613.22L886.703 613.22C891.886 621.928 902.245 625.323 909.84 620.803L909.84 620.803L909.84 620.803C909.84 620.803 909.84 620.803 909.84 620.803C902.25 625.32 900.293 636.032 905.462 644.738C900.275 636.043 889.926 632.656 882.337 637.173L882.336 637.173Z" fill="black"/>
<path fill-rule="evenodd" clip-rule="evenodd" d="M430.07 610.453C422.477 614.948 412.138 611.551 406.961 602.853L406.961 602.853L406.961 602.853C412.141 611.556 410.192 622.272 402.61 626.798C410.198 622.294 420.537 625.682 425.721 634.371C420.558 625.677 422.504 614.98 430.07 610.453Z" fill="black"/>
<path fill-rule="evenodd" clip-rule="evenodd" d="M792.007 726.785C797.16 723.717 798.487 716.44 794.969 710.53L794.969 710.53L794.969 710.53C798.487 716.44 805.516 718.743 810.669 715.676L810.669 715.676L810.669 715.676C810.669 715.676 810.669 715.676 810.669 715.676C805.516 718.744 804.189 726.021 807.707 731.93L807.707 731.93C804.189 726.021 797.16 723.717 792.007 726.785L792.007 726.785Z" fill="black"/>
<path fill-rule="evenodd" clip-rule="evenodd" d="M493.924 474.062C499.078 470.994 500.404 463.717 496.887 457.808L496.887 457.808L496.887 457.808C500.404 463.717 507.433 466.021 512.587 462.953L512.587 462.953C507.433 466.021 506.107 473.298 509.624 479.207L509.624 479.207C506.107 473.298 499.078 470.994 493.924 474.062L493.924 474.062Z" fill="black"/>
<path fill-rule="evenodd" clip-rule="evenodd" d="M516.743 771.649C521.896 768.582 523.223 761.304 519.705 755.395L519.705 755.395L519.705 755.395C523.223 761.304 530.252 763.608 535.405 760.541L535.406 760.541C530.252 763.608 528.926 770.885 532.443 776.795L532.443 776.795C528.925 770.886 521.896 768.582 516.743 771.649L516.743 771.649L516.743 771.649L516.743 771.649Z" fill="black"/>
<path fill-rule="evenodd" clip-rule="evenodd" d="M791.151 233.846C772.73 244.745 747.654 236.516 735.073 215.437C747.606 236.552 742.877 262.527 724.5 273.518C742.929 262.602 768.025 270.837 780.606 291.936C768.062 270.823 772.783 244.846 791.151 233.846Z" fill="black"/>
<path fill-rule="evenodd" clip-rule="evenodd" d="M447.748 278.033C435.167 256.936 410.072 248.701 391.644 259.616C410.025 248.622 414.752 222.636 402.206 201.518C414.783 222.61 439.867 230.846 458.293 219.946C439.927 230.946 435.206 256.921 447.748 278.033Z" fill="black"/>
<path fill-rule="evenodd" clip-rule="evenodd" d="M478.082 856.437C459.637 867.415 434.48 859.17 421.892 838.02C434.479 859.167 429.734 885.208 411.295 896.189C429.728 885.223 454.862 893.453 467.456 914.572C454.896 893.429 459.648 867.409 478.082 856.437Z" fill="black"/>
<path fill-rule="evenodd" clip-rule="evenodd" d="M195.041 651.901C211.582 660.363 230.302 653.722 236.874 637.048L236.874 637.048C230.295 653.74 238.382 674.164 254.937 682.668L254.936 682.668L254.936 682.668C238.382 674.164 219.629 680.802 213.05 697.494C219.622 680.82 211.559 660.422 195.041 651.901Z" fill="black"/>
<path fill-rule="evenodd" clip-rule="evenodd" d="M779.539 500.009C772.749 496.496 769.437 488.104 772.141 481.245L772.141 481.244C769.432 488.117 761.71 490.85 754.893 487.349L754.893 487.349C761.71 490.851 765.04 499.261 762.331 506.134L762.331 506.134L762.331 506.134C765.035 499.274 772.732 496.538 779.539 500.009Z" fill="black"/>
<path fill-rule="evenodd" clip-rule="evenodd" d="M596.873 799.523L596.873 799.523L596.873 799.523C603.685 803.022 611.402 800.294 614.115 793.431C611.415 800.301 614.745 808.703 621.558 812.203L621.558 812.203C614.741 808.701 607.019 811.435 604.31 818.308L604.31 818.308C607.019 811.435 603.689 803.024 596.873 799.523Z" fill="black"/>
<path fill-rule="evenodd" clip-rule="evenodd" d="M354.64 677.233C361.438 680.743 364.755 689.139 362.05 696.003C362.05 696.003 362.05 696.003 362.05 696.003L362.05 696.003C364.759 689.13 372.481 686.397 379.297 689.899L379.297 689.898C372.485 686.399 369.155 677.996 371.855 671.125C369.146 677.98 361.446 680.711 354.64 677.233Z" fill="black"/>
<path fill-rule="evenodd" clip-rule="evenodd" d="M667.614 442.516L667.614 442.516C664.906 449.389 657.184 452.123 650.367 448.621L650.367 448.621C657.175 452.118 660.505 460.512 657.815 467.38C660.533 460.526 668.244 457.804 675.052 461.301L675.052 461.301L675.052 461.301C668.236 457.8 664.906 449.389 667.614 442.516Z" fill="black"/>
<path fill-rule="evenodd" clip-rule="evenodd" d="M388.98 564.47C387.141 569.133 389.401 574.84 394.026 577.216L394.027 577.216L394.027 577.216L394.026 577.216C389.409 574.845 384.18 576.688 382.333 581.334C384.153 576.674 381.893 570.984 377.276 568.612L377.276 568.612C381.902 570.988 387.141 569.133 388.98 564.47L388.98 564.47Z" fill="black"/>
<path fill-rule="evenodd" clip-rule="evenodd" d="M681.527 606.252C676.913 603.882 674.654 598.198 676.466 593.541C674.618 598.173 669.403 600.014 664.793 597.657C669.408 600.038 671.66 605.737 669.824 610.395L669.824 610.395C671.662 605.731 676.902 603.877 681.527 606.253L681.527 606.252L681.527 606.252Z" fill="black"/>
<path fill-rule="evenodd" clip-rule="evenodd" d="M525.587 402.161C530.199 404.52 535.418 402.676 537.263 398.037C535.444 402.696 537.704 408.385 542.32 410.757L542.32 410.757C537.695 408.381 532.455 410.236 530.617 414.899C532.453 410.241 530.201 404.542 525.587 402.161Z" fill="black"/>
<path fill-rule="evenodd" clip-rule="evenodd" d="M638.932 891.673C622.415 883.151 614.355 862.754 620.926 846.082L620.926 846.082L620.926 846.082C614.347 862.773 595.594 869.411 579.039 860.908C595.58 869.404 603.668 889.803 597.118 906.487C603.703 889.844 622.404 883.22 638.932 891.673Z" fill="black"/>
<path fill-rule="evenodd" clip-rule="evenodd" d="M846.928 737.71C830.433 729.179 822.386 708.797 828.954 692.135L828.954 692.135L828.953 692.135L828.953 692.135C822.375 708.827 803.622 715.465 787.067 706.961C803.618 715.463 811.705 735.88 805.135 752.569C811.706 735.916 830.399 729.277 846.928 737.71Z" fill="black"/>
<path fill-rule="evenodd" clip-rule="evenodd" d="M548.856 259.69C542.294 276.377 550.381 296.787 566.928 305.287L566.928 305.287L566.928 305.287C550.374 296.783 531.62 303.421 525.042 320.113L525.042 320.113C531.612 303.443 523.554 283.049 507.043 274.526C523.574 282.975 542.278 276.343 548.856 259.69Z" fill="black"/>
</svg>
