<svg width="946" height="956" viewBox="0 0 946 956" fill="none" xmlns="http://www.w3.org/2000/svg">
<path fill-rule="evenodd" clip-rule="evenodd" d="M70 115.083V115.083C95.2717 115.083 115.759 136.216 115.759 162.284C115.759 136.216 136.245 115.083 161.517 115.083V115.083C136.245 115.083 115.759 93.9508 115.759 67.8826C115.759 93.9508 95.2717 115.083 70 115.083Z" fill="black"/>
<path fill-rule="evenodd" clip-rule="evenodd" d="M246.322 284.45C256.72 284.441 265.147 275.743 265.147 265.015C265.147 275.743 273.573 284.441 283.972 284.45C273.573 284.459 265.147 293.157 265.147 303.886C265.147 293.158 256.72 284.46 246.322 284.45Z" fill="black"/>
<path fill-rule="evenodd" clip-rule="evenodd" d="M760.415 310.827C760.415 321.553 751.992 330.25 741.597 330.263C751.992 330.276 760.415 338.972 760.415 349.698C760.415 338.972 768.839 330.276 779.234 330.263C768.839 330.25 760.415 321.553 760.415 310.827V310.827H760.415V310.827Z" fill="black"/>
<path fill-rule="evenodd" clip-rule="evenodd" d="M744.282 710.644C754.681 710.635 763.107 701.937 763.107 691.209C763.107 701.937 771.534 710.635 781.932 710.644C771.534 710.654 763.107 719.352 763.107 730.08C763.107 719.352 754.681 710.654 744.282 710.644Z" fill="black"/>
<path fill-rule="evenodd" clip-rule="evenodd" d="M283.988 421.887C283.988 432.613 275.565 441.31 265.17 441.323C275.565 441.336 283.988 450.033 283.988 460.759C283.988 450.033 292.412 441.336 302.807 441.323C292.412 441.31 283.988 432.613 283.988 421.887Z" fill="black"/>
<path fill-rule="evenodd" clip-rule="evenodd" d="M598.915 743.268L598.915 743.268C605.973 743.268 611.695 749.167 611.7 756.447C611.706 749.167 617.428 743.268 624.486 743.268L624.486 743.268C617.425 743.268 611.7 737.364 611.7 730.08C611.7 737.364 605.976 743.268 598.915 743.268Z" fill="black"/>
<path fill-rule="evenodd" clip-rule="evenodd" d="M449.527 351.781V351.781C456.588 351.781 462.312 357.685 462.312 364.969C462.312 357.685 468.036 351.781 475.098 351.781V351.781C468.036 351.781 462.312 345.876 462.312 338.592C462.312 345.876 456.588 351.781 449.527 351.781Z" fill="black"/>
<path fill-rule="evenodd" clip-rule="evenodd" d="M293.409 634.985V634.985C300.47 634.985 306.195 640.889 306.195 648.173C306.195 640.889 311.919 634.985 318.98 634.985V634.985C311.919 634.985 306.195 629.08 306.195 621.796C306.195 629.08 300.47 634.984 293.409 634.985Z" fill="black"/>
<path fill-rule="evenodd" clip-rule="evenodd" d="M803.482 294.168L803.482 294.168C828.739 294.168 849.217 315.276 849.241 341.323C849.265 315.276 869.742 294.168 894.999 294.168L894.999 294.168C869.728 294.168 849.241 273.035 849.241 246.967C849.241 273.035 828.754 294.168 803.482 294.168Z" fill="black"/>
<path fill-rule="evenodd" clip-rule="evenodd" d="M475.098 101.201L475.098 101.201C500.362 101.201 520.844 122.321 520.856 148.378C520.868 122.321 541.35 101.201 566.615 101.201L566.615 101.201C541.343 101.201 520.856 80.0682 520.856 54C520.856 80.0682 500.369 101.201 475.098 101.201Z" fill="black"/>
<path fill-rule="evenodd" clip-rule="evenodd" d="M111.721 691.209V691.209C136.993 691.209 157.48 712.341 157.48 738.409C157.48 712.341 177.966 691.209 203.238 691.209L203.238 691.209C177.966 691.209 157.48 670.076 157.48 644.008C157.48 670.076 136.993 691.209 111.721 691.209Z" fill="black"/>
<path fill-rule="evenodd" clip-rule="evenodd" d="M867.487 527.284C879.099 543.99 874.978 566.947 858.277 578.571L858.277 578.571C874.984 566.943 897.954 571.061 909.582 587.768C897.958 571.067 902.069 548.107 918.761 536.476C902.061 548.084 879.114 543.97 867.487 527.284Z" fill="black"/>
<path fill-rule="evenodd" clip-rule="evenodd" d="M91.3173 360.869C74.6199 372.49 70.4971 395.44 82.0994 412.145C70.4652 395.462 47.5124 391.356 30.815 402.977L30.815 402.977C47.5099 391.358 51.6339 368.413 40.0382 351.709C51.674 368.385 74.6224 372.488 91.3173 360.869L91.3173 360.869L91.3173 360.869L91.3173 360.869Z" fill="black"/>
<path fill-rule="evenodd" clip-rule="evenodd" d="M722.875 530.137C718.109 523.263 719.803 513.827 726.666 509.042C719.794 513.815 710.354 512.125 705.565 505.265C710.337 512.143 708.638 521.588 701.765 526.372L701.765 526.372C708.637 521.589 718.082 523.276 722.875 530.137Z" fill="black"/>
<path fill-rule="evenodd" clip-rule="evenodd" d="M357.706 703.78C362.493 710.635 371.922 712.328 378.793 707.566C371.935 712.36 370.25 721.803 375.032 728.674L375.032 728.674L375.032 728.674C370.246 721.798 360.796 720.101 353.918 724.879C360.781 720.092 362.475 710.654 357.706 703.78Z" fill="black"/>
<path fill-rule="evenodd" clip-rule="evenodd" d="M186.258 461.23C191.03 468.108 189.331 477.553 182.458 482.337C182.458 482.337 182.458 482.337 182.458 482.337L182.458 482.337C189.337 477.549 198.796 479.244 203.583 486.124L203.584 486.124C198.797 479.246 200.491 469.79 207.366 465.001C200.493 469.781 191.049 468.092 186.258 461.23Z" fill="black"/>
<path fill-rule="evenodd" clip-rule="evenodd" d="M644.248 417.162C637.369 421.95 635.673 431.408 640.461 438.288L640.461 438.288L640.461 438.288C635.676 431.412 626.225 429.715 619.347 434.493C626.217 429.703 627.908 420.251 623.123 413.375L623.123 413.375C627.911 420.254 637.369 421.95 644.248 417.162L644.248 417.162Z" fill="black"/>
<path fill-rule="evenodd" clip-rule="evenodd" d="M288.911 377.213C284.243 380.462 283.092 386.88 286.341 391.548L274.576 374.643L283.028 368.76L288.911 377.213Z" fill="black"/>
<path fill-rule="evenodd" clip-rule="evenodd" d="M562.294 559.385C557.626 562.634 556.475 569.052 559.724 573.72L559.724 573.72L559.724 573.72C556.475 569.052 550.057 567.901 545.389 571.15L545.389 571.15C545.389 571.15 545.389 571.15 545.389 571.15C550.057 567.901 551.208 561.483 547.959 556.815C551.208 561.483 557.626 562.633 562.294 559.385L562.294 559.385Z" fill="black"/>
<path fill-rule="evenodd" clip-rule="evenodd" d="M539.181 306.047L539.181 306.047C534.513 309.296 528.095 308.146 524.846 303.478L524.846 303.478C524.846 303.478 524.846 303.478 524.846 303.478C528.095 308.146 526.944 314.564 522.276 317.813L522.276 317.813C526.944 314.564 533.362 315.715 536.611 320.383L536.611 320.383C533.363 315.714 534.513 309.296 539.181 306.047Z" fill="black"/>
<path fill-rule="evenodd" clip-rule="evenodd" d="M353.991 759.166L353.991 759.166C337.284 770.794 333.166 793.764 344.793 810.471C333.166 793.764 310.196 789.646 293.488 801.273C310.192 789.648 314.312 766.686 302.693 749.979C314.324 766.678 337.287 770.791 353.991 759.166Z" fill="black"/>
<path fill-rule="evenodd" clip-rule="evenodd" d="M657.16 731.748L657.16 731.748C640.46 743.371 617.502 739.261 605.87 722.572C617.479 739.277 613.358 762.233 596.658 773.855C613.365 762.228 636.335 766.346 647.962 783.053L647.962 783.053C636.335 766.346 640.453 743.376 657.16 731.748Z" fill="black"/>
<path fill-rule="evenodd" clip-rule="evenodd" d="M625.02 237.722C613.401 221.027 617.504 198.08 634.179 186.444C617.484 198.032 594.558 193.919 582.932 177.248C594.535 193.953 590.413 216.903 573.715 228.524C590.422 216.897 613.392 221.015 625.02 237.722L625.02 237.722Z" fill="black"/>
</svg>
